<svg width="302" height="321" viewBox="0 0 302 321" fill="none" xmlns="http://www.w3.org/2000/svg">
<path d="M289.021 155.677V149.722H295.511V143.767H302V137.812V131.857V125.888V119.933H295.511V113.978V108.023H289.021V102.068H282.532V96.1132V90.1583V84.2034H276.042V78.2485V72.2936V66.3387V60.3837H269.553V54.4288V48.4739V42.5048V36.5499V30.595H276.042V24.6401V18.6851H269.553V12.7302H263.063H256.574H250.084H243.595H237.09H230.6H224.111V18.6851H217.621V24.6401V30.595H224.111V36.5499V42.5048V48.4739V54.4288V60.3837H217.621V66.3387V72.2936V78.2485V84.2034H211.132V90.1583V96.1132V102.068H204.642V108.023H198.153V113.978V119.933H191.663V125.888V131.857V137.812V143.767H198.153V149.722H204.642V155.677V161.632H211.132V167.586H217.621H224.111H230.6H237.09H243.595H250.084H256.574H263.063H269.553H276.042V161.632H282.532H289.021V155.677Z" fill="#3D4142"/>
<path d="M265.252 148.901H258.762V154.856H265.252V148.901Z" fill="#DCDCDC"/>
<path d="M258.762 148.901H252.273V154.856H258.762V148.901Z" fill="#DCDCDC"/>
<path d="M252.273 148.901H245.783V154.856H252.273V148.901Z" fill="#DCDCDC"/>
<path d="M245.784 148.901H239.294V154.856H245.784V148.901Z" fill="#DCDCDC"/>
<path d="M239.279 148.901H232.789V154.856H239.279V148.901Z" fill="#DCDCDC"/>
<path d="M232.789 148.901H226.3V154.856H232.789V148.901Z" fill="#A2A2A2"/>
<path d="M226.3 148.901H219.81V154.856H226.3V148.901Z" fill="#A2A2A2"/>
<path d="M219.81 148.901H213.321V154.856H219.81V148.901Z" fill="#A2A2A2"/>
<path d="M213.321 148.901H206.831V154.856H213.321V148.901Z" fill="#A2A2A2"/>
<path d="M206.831 148.901H200.342V154.856H206.831V148.901Z" fill="#A2A2A2"/>
<path d="M278.231 142.947H271.741V148.901H278.231V142.947Z" fill="#DCDCDC"/>
<path d="M271.741 142.947H265.252V148.901H271.741V142.947Z" fill="#DCDCDC"/>
<path d="M265.252 142.947H258.762V148.901H265.252V142.947Z" fill="#DCDCDC"/>
<path d="M258.762 142.947H252.273V148.901H258.762V142.947Z" fill="#D5382B"/>
<path d="M252.273 142.947H245.783V148.901H252.273V142.947Z" fill="#D5382B"/>
<path d="M245.784 142.947H239.294V148.901H245.784V142.947Z" fill="#D5382B"/>
<path d="M239.279 142.947H232.789V148.901H239.279V142.947Z" fill="#D5382B"/>
<path d="M232.789 142.947H226.3V148.901H232.789V142.947Z" fill="#D5382B"/>
<path d="M226.3 142.947H219.81V148.901H226.3V142.947Z" fill="#D5382B"/>
<path d="M219.81 142.947H213.321V148.901H219.81V142.947Z" fill="#D5382B"/>
<path d="M213.321 142.947H206.831V148.901H213.321V142.947Z" fill="#A2A2A2"/>
<path d="M206.831 142.947H200.342V148.901H206.831V142.947Z" fill="#A2A2A2"/>
<path d="M200.342 142.947H193.852V148.901H200.342V142.947Z" fill="#A2A2A2"/>
<path d="M278.231 136.991H271.741V142.946H278.231V136.991Z" fill="#DCDCDC"/>
<path d="M271.741 136.991H265.252V142.946H271.741V136.991Z" fill="#DCDCDC"/>
<path d="M265.252 136.991H258.762V142.946H265.252V136.991Z" fill="#D5382B"/>
<path d="M258.762 136.991H252.273V142.946H258.762V136.991Z" fill="#D5382B"/>
<path d="M252.273 136.991H245.783V142.946H252.273V136.991Z" fill="#D5382B"/>
<path d="M245.784 136.991H239.294V142.946H245.784V136.991Z" fill="#D5382B"/>
<path d="M239.279 136.991H232.789V142.946H239.279V136.991Z" fill="#D5382B"/>
<path d="M232.789 136.991H226.3V142.946H232.789V136.991Z" fill="#D5382B"/>
<path d="M226.3 136.991H219.81V142.946H226.3V136.991Z" fill="#D5382B"/>
<path d="M219.81 136.991H213.321V142.946H219.81V136.991Z" fill="#D5382B"/>
<path d="M213.321 136.991H206.831V142.946H213.321V136.991Z" fill="#D5382B"/>
<path d="M206.831 136.991H200.342V142.946H206.831V136.991Z" fill="#A2A2A2"/>
<path d="M200.342 136.991H193.852V142.946H200.342V136.991Z" fill="#A2A2A2"/>
<path d="M284.72 131.037H278.231V136.992H284.72V131.037Z" fill="#DCDCDC"/>
<path d="M278.231 131.037H271.741V136.992H278.231V131.037Z" fill="#DCDCDC"/>
<path d="M271.741 131.037H265.252V136.992H271.741V131.037Z" fill="#D5382B"/>
<path d="M265.252 131.037H258.762V136.992H265.252V131.037Z" fill="#D5382B"/>
<path d="M258.762 131.037H252.273V136.992H258.762V131.037Z" fill="#D5382B"/>
<path d="M252.273 131.037H245.783V136.992H252.273V131.037Z" fill="#D5382B"/>
<path d="M245.784 131.037H239.294V136.992H245.784V131.037Z" fill="#D5382B"/>
<path d="M239.279 131.037H232.789V136.992H239.279V131.037Z" fill="#D5382B"/>
<path d="M232.789 131.037H226.3V136.992H232.789V131.037Z" fill="#D5382B"/>
<path d="M226.3 131.037H219.81V136.992H226.3V131.037Z" fill="#F05740"/>
<path d="M219.81 131.037H213.321V136.992H219.81V131.037Z" fill="#F05740"/>
<path d="M213.321 131.037H206.831V136.992H213.321V131.037Z" fill="#F05740"/>
<path d="M206.831 131.037H200.342V136.992H206.831V131.037Z" fill="#F05740"/>
<path d="M200.342 131.037H193.852V136.992H200.342V131.037Z" fill="#A2A2A2"/>
<path d="M193.852 131.037H187.363V136.992H193.852V131.037Z" fill="#A2A2A2"/>
<path d="M291.21 125.082H284.72V131.037H291.21V125.082Z" fill="#DCDCDC"/>
<path d="M284.72 125.082H278.231V131.037H284.72V125.082Z" fill="#DCDCDC"/>
<path d="M278.231 125.082H271.741V131.037H278.231V125.082Z" fill="#D5382B"/>
<path d="M271.741 125.082H265.252V131.037H271.741V125.082Z" fill="#D5382B"/>
<path d="M265.252 125.082H258.762V131.037H265.252V125.082Z" fill="#D5382B"/>
<path d="M258.762 125.082H252.273V131.037H258.762V125.082Z" fill="#D5382B"/>
<path d="M252.273 125.082H245.783V131.037H252.273V125.082Z" fill="#D5382B"/>
<path d="M245.784 125.082H239.294V131.037H245.784V125.082Z" fill="#D5382B"/>
<path d="M239.279 125.082H232.789V131.037H239.279V125.082Z" fill="#D5382B"/>
<path d="M232.789 125.082H226.3V131.037H232.789V125.082Z" fill="#F05740"/>
<path d="M226.3 125.082H219.81V131.037H226.3V125.082Z" fill="#F05740"/>
<path d="M219.81 125.082H213.321V131.037H219.81V125.082Z" fill="#F05740"/>
<path d="M213.321 125.082H206.831V131.037H213.321V125.082Z" fill="#F05740"/>
<path d="M206.831 125.082H200.342V131.037H206.831V125.082Z" fill="#F05740"/>
<path d="M200.342 125.082H193.852V131.037H200.342V125.082Z" fill="#F05740"/>
<path d="M193.852 125.082H187.363V131.037H193.852V125.082Z" fill="#A2A2A2"/>
<path d="M187.363 125.082H180.873V131.037H187.363V125.082Z" fill="#A2A2A2"/>
<path d="M291.21 119.127H284.72V125.082H291.21V119.127Z" fill="#DCDCDC"/>
<path d="M284.72 119.127H278.231V125.082H284.72V119.127Z" fill="#DCDCDC"/>
<path d="M278.231 119.127H271.741V125.082H278.231V119.127Z" fill="#D5382B"/>
<path d="M271.741 119.127H265.252V125.082H271.741V119.127Z" fill="#D5382B"/>
<path d="M265.252 119.127H258.762V125.082H265.252V119.127Z" fill="#D5382B"/>
<path d="M258.762 119.127H252.273V125.082H258.762V119.127Z" fill="#D5382B"/>
<path d="M252.273 119.127H245.783V125.082H252.273V119.127Z" fill="#D5382B"/>
<path d="M245.784 119.127H239.294V125.082H245.784V119.127Z" fill="#D5382B"/>
<path d="M239.279 119.127H232.789V125.082H239.279V119.127Z" fill="#D5382B"/>
<path d="M232.789 119.127H226.3V125.082H232.789V119.127Z" fill="#F05740"/>
<path d="M226.3 119.127H219.81V125.082H226.3V119.127Z" fill="#F05740"/>
<path d="M219.81 119.127H213.321V125.082H219.81V119.127Z" fill="#F05740"/>
<path d="M213.321 119.127H206.831V125.082H213.321V119.127Z" fill="#F05740"/>
<path d="M206.831 119.127H200.342V125.082H206.831V119.127Z" fill="#F05740"/>
<path d="M200.342 119.127H193.852V125.082H200.342V119.127Z" fill="#F05740"/>
<path d="M193.852 119.127H187.363V125.082H193.852V119.127Z" fill="#A2A2A2"/>
<path d="M187.363 119.127H180.873V125.082H187.363V119.127Z" fill="#A2A2A2"/>
<path d="M291.21 113.172H284.72V119.127H291.21V113.172Z" fill="#DCDCDC"/>
<path d="M291.21 107.203H284.72V113.158H291.21V107.203Z" fill="#DCDCDC"/>
<path d="M284.72 113.172H278.231V119.127H284.72V113.172Z" fill="#DCDCDC"/>
<path d="M278.231 113.172H271.741V119.127H278.231V113.172Z" fill="#D5382B"/>
<path d="M271.741 113.172H265.252V119.127H271.741V113.172Z" fill="#D5382B"/>
<path d="M265.252 113.172H258.762V119.127H265.252V113.172Z" fill="#D5382B"/>
<path d="M258.762 113.172H252.273V119.127H258.762V113.172Z" fill="#D5382B"/>
<path d="M252.273 113.172H245.783V119.127H252.273V113.172Z" fill="#D5382B"/>
<path d="M245.784 113.172H239.294V119.127H245.784V113.172Z" fill="#D5382B"/>
<path d="M239.279 113.172H232.789V119.127H239.279V113.172Z" fill="#D5382B"/>
<path d="M232.789 113.172H226.3V119.127H232.789V113.172Z" fill="#F05740"/>
<path d="M226.3 113.172H219.81V119.127H226.3V113.172Z" fill="#F05740"/>
<path d="M219.81 113.172H213.321V119.127H219.81V113.172Z" fill="#F05740"/>
<path d="M213.321 113.172H206.831V119.127H213.321V113.172Z" fill="#F05740"/>
<path d="M206.831 113.172H200.342V119.127H206.831V113.172Z" fill="#F05740"/>
<path d="M200.342 113.172H193.852V119.127H200.342V113.172Z" fill="#F05740"/>
<path d="M193.852 113.172H187.363V119.127H193.852V113.172Z" fill="#A2A2A2"/>
<path d="M187.363 113.172H180.873V119.127H187.363V113.172Z" fill="#A2A2A2"/>
<path d="M284.72 107.203H278.231V113.158H284.72V107.203Z" fill="#DCDCDC"/>
<path d="M278.231 107.203H271.741V113.158H278.231V107.203Z" fill="#D5382B"/>
<path d="M271.741 107.203H265.252V113.158H271.741V107.203Z" fill="#D5382B"/>
<path d="M265.252 107.203H258.762V113.158H265.252V107.203Z" fill="#D5382B"/>
<path d="M258.762 107.203H252.273V113.158H258.762V107.203Z" fill="#D5382B"/>
<path d="M252.273 107.203H245.783V113.158H252.273V107.203Z" fill="#D5382B"/>
<path d="M245.784 107.203H239.294V113.158H245.784V107.203Z" fill="#D5382B"/>
<path d="M239.279 107.203H232.789V113.158H239.279V107.203Z" fill="#D5382B"/>
<path d="M232.789 107.203H226.3V113.158H232.789V107.203Z" fill="#F05740"/>
<path d="M226.3 107.203H219.81V113.158H226.3V107.203Z" fill="#F05740"/>
<path d="M219.81 107.203H213.321V113.158H219.81V107.203Z" fill="#F05740"/>
<path d="M213.321 107.203H206.831V113.158H213.321V107.203Z" fill="#F05740"/>
<path d="M206.831 107.203H200.342V113.158H206.831V107.203Z" fill="#F05740"/>
<path d="M200.342 107.203H193.852V113.158H200.342V107.203Z" fill="#F05740"/>
<path d="M193.852 107.203H187.363V113.158H193.852V107.203Z" fill="#A2A2A2"/>
<path d="M187.363 107.203H180.873V113.158H187.363V107.203Z" fill="#A2A2A2"/>
<path d="M284.72 101.248H278.231V107.203H284.72V101.248Z" fill="#DCDCDC"/>
<path d="M278.231 101.248H271.741V107.203H278.231V101.248Z" fill="#DCDCDC"/>
<path d="M271.741 101.248H265.252V107.203H271.741V101.248Z" fill="#DCDCDC"/>
<path d="M265.252 101.248H258.762V107.203H265.252V101.248Z" fill="#DCDCDC"/>
<path d="M258.762 101.248H252.273V107.203H258.762V101.248Z" fill="#DCDCDC"/>
<path d="M252.273 101.248H245.783V107.203H252.273V101.248Z" fill="#DCDCDC"/>
<path d="M245.784 101.248H239.294V107.203H245.784V101.248Z" fill="#DCDCDC"/>
<path d="M239.279 101.248H232.789V107.203H239.279V101.248Z" fill="#DCDCDC"/>
<path d="M232.789 101.248H226.3V107.203H232.789V101.248Z" fill="#A2A2A2"/>
<path d="M226.3 101.248H219.81V107.203H226.3V101.248Z" fill="#A2A2A2"/>
<path d="M219.81 101.248H213.321V107.203H219.81V101.248Z" fill="#A2A2A2"/>
<path d="M213.321 101.248H206.831V107.203H213.321V101.248Z" fill="#A2A2A2"/>
<path d="M206.831 101.248H200.342V107.203H206.831V101.248Z" fill="#A2A2A2"/>
<path d="M200.342 101.248H193.852V107.203H200.342V101.248Z" fill="#A2A2A2"/>
<path d="M193.852 101.248H187.363V107.203H193.852V101.248Z" fill="#A2A2A2"/>
<path d="M284.72 95.2927H278.231V101.248H284.72V95.2927Z" fill="#DCDCDC"/>
<path d="M278.231 95.2927H271.741V101.248H278.231V95.2927Z" fill="#DCDCDC"/>
<path d="M271.741 95.2927H265.252V101.248H271.741V95.2927Z" fill="#DCDCDC"/>
<path d="M265.252 95.2927H258.762V101.248H265.252V95.2927Z" fill="#DCDCDC"/>
<path d="M258.762 95.2927H252.273V101.248H258.762V95.2927Z" fill="#DCDCDC"/>
<path d="M252.273 95.2927H245.783V101.248H252.273V95.2927Z" fill="#DCDCDC"/>
<path d="M245.784 95.2927H239.294V101.248H245.784V95.2927Z" fill="#DCDCDC"/>
<path d="M239.279 95.2927H232.789V101.248H239.279V95.2927Z" fill="#DCDCDC"/>
<path d="M232.789 95.2927H226.3V101.248H232.789V95.2927Z" fill="#A2A2A2"/>
<path d="M226.3 95.2927H219.81V101.248H226.3V95.2927Z" fill="#A2A2A2"/>
<path d="M219.81 95.2927H213.321V101.248H219.81V95.2927Z" fill="#A2A2A2"/>
<path d="M213.321 95.2927H206.831V101.248H213.321V95.2927Z" fill="#A2A2A2"/>
<path d="M206.831 95.2927H200.342V101.248H206.831V95.2927Z" fill="#A2A2A2"/>
<path d="M200.342 95.2927H193.852V101.248H200.342V95.2927Z" fill="#A2A2A2"/>
<path d="M193.852 95.2927H187.363V101.248H193.852V95.2927Z" fill="#A2A2A2"/>
<path d="M278.231 89.338H271.741V95.2929H278.231V89.338Z" fill="#DCDCDC"/>
<path d="M271.741 89.338H265.252V95.2929H271.741V89.338Z" fill="#DCDCDC"/>
<path d="M265.252 89.338H258.762V95.2929H265.252V89.338Z" fill="#DCDCDC"/>
<path d="M258.762 89.338H252.273V95.2929H258.762V89.338Z" fill="#DCDCDC"/>
<path d="M252.273 89.338H245.783V95.2929H252.273V89.338Z" fill="#DCDCDC"/>
<path d="M245.784 89.338H239.294V95.2929H245.784V89.338Z" fill="#DCDCDC"/>
<path d="M239.279 89.338H232.789V95.2929H239.279V89.338Z" fill="#DCDCDC"/>
<path d="M232.789 89.338H226.3V95.2929H232.789V89.338Z" fill="#A2A2A2"/>
<path d="M226.3 89.338H219.81V95.2929H226.3V89.338Z" fill="#A2A2A2"/>
<path d="M219.81 89.338H213.321V95.2929H219.81V89.338Z" fill="#A2A2A2"/>
<path d="M213.321 89.338H206.831V95.2929H213.321V89.338Z" fill="#A2A2A2"/>
<path d="M206.831 89.338H200.342V95.2929H206.831V89.338Z" fill="#A2A2A2"/>
<path d="M200.342 89.338H193.852V95.2929H200.342V89.338Z" fill="#A2A2A2"/>
<path d="M271.741 83.3829H265.252V89.3379H271.741V83.3829Z" fill="#DCDCDC"/>
<path d="M265.252 83.3829H258.762V89.3379H265.252V83.3829Z" fill="#DCDCDC"/>
<path d="M258.762 83.3829H252.273V89.3379H258.762V83.3829Z" fill="#DCDCDC"/>
<path d="M252.273 83.3829H245.783V89.3379H252.273V83.3829Z" fill="#DCDCDC"/>
<path d="M245.784 83.3829H239.294V89.3379H245.784V83.3829Z" fill="#DCDCDC"/>
<path d="M239.279 83.3829H232.789V89.3379H239.279V83.3829Z" fill="#DCDCDC"/>
<path d="M232.789 83.3829H226.3V89.3379H232.789V83.3829Z" fill="#A2A2A2"/>
<path d="M226.3 83.3829H219.81V89.3379H226.3V83.3829Z" fill="#A2A2A2"/>
<path d="M219.81 83.3829H213.321V89.3379H219.81V83.3829Z" fill="#A2A2A2"/>
<path d="M213.321 83.3829H206.831V89.3379H213.321V83.3829Z" fill="#A2A2A2"/>
<path d="M206.831 83.3829H200.342V89.3379H206.831V83.3829Z" fill="#A2A2A2"/>
<path d="M271.741 77.4281H265.252V83.383H271.741V77.4281Z" fill="#DCDCDC"/>
<path d="M265.252 77.4281H258.762V83.383H265.252V77.4281Z" fill="#DCDCDC"/>
<path d="M258.762 77.4281H252.273V83.383H258.762V77.4281Z" fill="#DCDCDC"/>
<path d="M252.273 77.4281H245.783V83.383H252.273V77.4281Z" fill="#DCDCDC"/>
<path d="M245.784 77.4281H239.294V83.383H245.784V77.4281Z" fill="#DCDCDC"/>
<path d="M239.279 77.4281H232.789V83.383H239.279V77.4281Z" fill="#DCDCDC"/>
<path d="M232.789 77.4281H226.3V83.383H232.789V77.4281Z" fill="#A2A2A2"/>
<path d="M226.3 77.4281H219.81V83.383H226.3V77.4281Z" fill="#A2A2A2"/>
<path d="M219.81 77.4281H213.321V83.383H219.81V77.4281Z" fill="#A2A2A2"/>
<path d="M213.321 77.4281H206.831V83.383H213.321V77.4281Z" fill="#A2A2A2"/>
<path d="M206.831 77.4281H200.342V83.383H206.831V77.4281Z" fill="#A2A2A2"/>
<path d="M271.741 71.4733H265.252V77.4282H271.741V71.4733Z" fill="#DCDCDC"/>
<path d="M265.252 71.4733H258.762V77.4282H265.252V71.4733Z" fill="#DCDCDC"/>
<path d="M258.762 71.4733H252.273V77.4282H258.762V71.4733Z" fill="#DCDCDC"/>
<path d="M252.273 71.4733H245.783V77.4282H252.273V71.4733Z" fill="#DCDCDC"/>
<path d="M245.784 71.4733H239.294V77.4282H245.784V71.4733Z" fill="#DCDCDC"/>
<path d="M239.279 71.4733H232.789V77.4282H239.279V71.4733Z" fill="#DCDCDC"/>
<path d="M232.789 71.4733H226.3V77.4282H232.789V71.4733Z" fill="#A2A2A2"/>
<path d="M226.3 71.4733H219.81V77.4282H226.3V71.4733Z" fill="#A2A2A2"/>
<path d="M219.81 71.4733H213.321V77.4282H219.81V71.4733Z" fill="#A2A2A2"/>
<path d="M213.321 71.4733H206.831V77.4282H213.321V71.4733Z" fill="#A2A2A2"/>
<path d="M206.831 71.4733H200.342V77.4282H206.831V71.4733Z" fill="#A2A2A2"/>
<path d="M265.252 65.5183H258.762V71.4732H265.252V65.5183Z" fill="#DCDCDC"/>
<path d="M258.762 65.5183H252.273V71.4732H258.762V65.5183Z" fill="#DCDCDC"/>
<path d="M252.273 65.5183H245.783V71.4732H252.273V65.5183Z" fill="#DCDCDC"/>
<path d="M245.784 65.5183H239.294V71.4732H245.784V65.5183Z" fill="#DCDCDC"/>
<path d="M239.279 65.5183H232.789V71.4732H239.279V65.5183Z" fill="#DCDCDC"/>
<path d="M232.789 65.5183H226.3V71.4732H232.789V65.5183Z" fill="#A2A2A2"/>
<path d="M226.3 65.5183H219.81V71.4732H226.3V65.5183Z" fill="#A2A2A2"/>
<path d="M219.81 65.5183H213.321V71.4732H219.81V65.5183Z" fill="#A2A2A2"/>
<path d="M213.321 65.5183H206.831V71.4732H213.321V65.5183Z" fill="#A2A2A2"/>
<path d="M265.252 59.5634H258.762V65.5183H265.252V59.5634Z" fill="#DCDCDC"/>
<path d="M258.762 59.5634H252.273V65.5183H258.762V59.5634Z" fill="#DCDCDC"/>
<path d="M252.273 59.5634H245.783V65.5183H252.273V59.5634Z" fill="#DCDCDC"/>
<path d="M245.784 59.5634H239.294V65.5183H245.784V59.5634Z" fill="#DCDCDC"/>
<path d="M239.279 59.5634H232.789V65.5183H239.279V59.5634Z" fill="#DCDCDC"/>
<path d="M232.789 59.5634H226.3V65.5183H232.789V59.5634Z" fill="#A2A2A2"/>
<path d="M226.3 59.5634H219.81V65.5183H226.3V59.5634Z" fill="#A2A2A2"/>
<path d="M219.81 59.5634H213.321V65.5183H219.81V59.5634Z" fill="#A2A2A2"/>
<path d="M213.321 59.5634H206.831V65.5183H213.321V59.5634Z" fill="#A2A2A2"/>
<path d="M265.252 53.6085H258.762V59.5634H265.252V53.6085Z" fill="#DCDCDC"/>
<path d="M258.762 53.6085H252.273V59.5634H258.762V53.6085Z" fill="#DCDCDC"/>
<path d="M252.273 53.6085H245.783V59.5634H252.273V53.6085Z" fill="#DCDCDC"/>
<path d="M245.784 53.6085H239.294V59.5634H245.784V53.6085Z" fill="#DCDCDC"/>
<path d="M239.279 53.6085H232.789V59.5634H239.279V53.6085Z" fill="#DCDCDC"/>
<path d="M232.789 53.6085H226.3V59.5634H232.789V53.6085Z" fill="#A2A2A2"/>
<path d="M226.3 53.6085H219.81V59.5634H226.3V53.6085Z" fill="#A2A2A2"/>
<path d="M219.81 53.6085H213.321V59.5634H219.81V53.6085Z" fill="#A2A2A2"/>
<path d="M213.321 53.6085H206.831V59.5634H213.321V53.6085Z" fill="#A2A2A2"/>
<path d="M265.252 47.6534H258.762V53.6084H265.252V47.6534Z" fill="#DCDCDC"/>
<path d="M258.762 47.6534H252.273V53.6084H258.762V47.6534Z" fill="#DCDCDC"/>
<path d="M252.273 47.6534H245.783V53.6084H252.273V47.6534Z" fill="#DCDCDC"/>
<path d="M245.784 47.6534H239.294V53.6084H245.784V47.6534Z" fill="#DCDCDC"/>
<path d="M239.279 47.6534H232.789V53.6084H239.279V47.6534Z" fill="#DCDCDC"/>
<path d="M232.789 47.6534H226.3V53.6084H232.789V47.6534Z" fill="#A2A2A2"/>
<path d="M226.3 47.6534H219.81V53.6084H226.3V47.6534Z" fill="#A2A2A2"/>
<path d="M219.81 47.6534H213.321V53.6084H219.81V47.6534Z" fill="#A2A2A2"/>
<path d="M213.321 47.6534H206.831V53.6084H213.321V47.6534Z" fill="#A2A2A2"/>
<path d="M258.762 41.6986H252.273V47.6535H258.762V41.6986Z" fill="#DCDCDC"/>
<path d="M252.273 41.6986H245.783V47.6535H252.273V41.6986Z" fill="#DCDCDC"/>
<path d="M245.784 41.6986H239.294V47.6535H245.784V41.6986Z" fill="#DCDCDC"/>
<path d="M239.279 41.6986H232.789V47.6535H239.279V41.6986Z" fill="#DCDCDC"/>
<path d="M232.789 41.6986H226.3V47.6535H232.789V41.6986Z" fill="#A2A2A2"/>
<path d="M226.3 41.6986H219.81V47.6535H226.3V41.6986Z" fill="#A2A2A2"/>
<path d="M219.81 41.6986H213.321V47.6535H219.81V41.6986Z" fill="#A2A2A2"/>
<path d="M258.762 35.7295H252.273V41.6844H258.762V35.7295Z" fill="#DCDCDC"/>
<path d="M252.273 35.7295H245.783V41.6844H252.273V35.7295Z" fill="#DCDCDC"/>
<path d="M245.784 35.7295H239.294V41.6844H245.784V35.7295Z" fill="#DCDCDC"/>
<path d="M239.279 35.7295H232.789V41.6844H239.279V35.7295Z" fill="#DCDCDC"/>
<path d="M232.789 35.7295H226.3V41.6844H232.789V35.7295Z" fill="#A2A2A2"/>
<path d="M226.3 35.7295H219.81V41.6844H226.3V35.7295Z" fill="#A2A2A2"/>
<path d="M219.81 35.7295H213.321V41.6844H219.81V35.7295Z" fill="#A2A2A2"/>
<path d="M258.762 29.7747H252.273V35.7296H258.762V29.7747Z" fill="#DCDCDC"/>
<path d="M252.273 29.7747H245.783V35.7296H252.273V29.7747Z" fill="#DCDCDC"/>
<path d="M245.784 29.7747H239.294V35.7296H245.784V29.7747Z" fill="#DCDCDC"/>
<path d="M239.279 29.7747H232.789V35.7296H239.279V29.7747Z" fill="#DCDCDC"/>
<path d="M232.789 29.7747H226.3V35.7296H232.789V29.7747Z" fill="#A2A2A2"/>
<path d="M226.3 29.7747H219.81V35.7296H226.3V29.7747Z" fill="#A2A2A2"/>
<path d="M219.81 29.7747H213.321V35.7296H219.81V29.7747Z" fill="#A2A2A2"/>
<path d="M258.762 23.8196H252.273V29.7745H258.762V23.8196Z" fill="#DCDCDC"/>
<path d="M258.762 17.8647H252.273V23.8197H258.762V17.8647Z" fill="#DCDCDC"/>
<path d="M252.273 23.8196H245.783V29.7745H252.273V23.8196Z" fill="#DCDCDC"/>
<path d="M245.784 23.8196H239.294V29.7745H245.784V23.8196Z" fill="#DCDCDC"/>
<path d="M239.279 23.8196H232.789V29.7745H239.279V23.8196Z" fill="#DCDCDC"/>
<path d="M232.789 23.8196H226.3V29.7745H232.789V23.8196Z" fill="#A2A2A2"/>
<path d="M226.3 23.8196H219.81V29.7745H226.3V23.8196Z" fill="#A2A2A2"/>
<path d="M219.81 23.8196H213.321V29.7745H219.81V23.8196Z" fill="#A2A2A2"/>
<path d="M252.273 17.8647H245.783V23.8197H252.273V17.8647Z" fill="#DCDCDC"/>
<path d="M245.784 17.8647H239.294V23.8197H245.784V17.8647Z" fill="#DCDCDC"/>
<path d="M239.279 17.8647H232.789V23.8197H239.279V17.8647Z" fill="#DCDCDC"/>
<path d="M232.789 17.8647H226.3V23.8197H232.789V17.8647Z" fill="#DCDCDC"/>
<path d="M226.3 17.8647H219.81V23.8197H226.3V17.8647Z" fill="#DCDCDC"/>
<path d="M219.81 17.8647H213.321V23.8197H219.81V17.8647Z" fill="#DCDCDC"/>
<path d="M258.762 11.9099H252.273V17.8648H258.762V11.9099Z" fill="#DCDCDC"/>
<path d="M252.273 11.9099H245.783V17.8648H252.273V11.9099Z" fill="#DCDCDC"/>
<path d="M245.784 11.9099H239.294V17.8648H245.784V11.9099Z" fill="#DCDCDC"/>
<path d="M239.279 11.9099H232.789V17.8648H239.279V11.9099Z" fill="#DCDCDC"/>
<path d="M232.789 11.9099H226.3V17.8648H232.789V11.9099Z" fill="#DCDCDC"/>
<path d="M226.3 11.9099H219.81V17.8648H226.3V11.9099Z" fill="#DCDCDC"/>
<path d="M219.81 11.9099H213.321V17.8648H219.81V11.9099Z" fill="#DCDCDC"/>
<path d="M213.321 11.9099H206.831V17.8648H213.321V11.9099Z" fill="#DCDCDC"/>
<path d="M258.762 5.95483H252.273V11.9098H258.762V5.95483Z" fill="#A2A2A2"/>
<path d="M252.273 5.95483H245.783V11.9098H252.273V5.95483Z" fill="#A2A2A2"/>
<path d="M245.784 5.95483H239.294V11.9098H245.784V5.95483Z" fill="#A2A2A2"/>
<path d="M239.279 5.95483H232.789V11.9098H239.279V5.95483Z" fill="#A2A2A2"/>
<path d="M232.789 5.95483H226.3V11.9098H232.789V5.95483Z" fill="#A2A2A2"/>
<path d="M226.3 5.95483H219.81V11.9098H226.3V5.95483Z" fill="#A2A2A2"/>
<path d="M219.81 5.95483H213.321V11.9098H219.81V5.95483Z" fill="#A2A2A2"/>
<path d="M213.321 5.95483H206.831V11.9098H213.321V5.95483Z" fill="#A2A2A2"/>
<path d="M258.762 0H252.273V5.95492H258.762V0Z" fill="#A2A2A2"/>
<path d="M265.252 11.9099H258.762V17.8648H265.252V11.9099Z" fill="#DCDCDC"/>
<path d="M265.252 5.95483H258.762V11.9098H265.252V5.95483Z" fill="#A2A2A2"/>
<path d="M252.273 0H245.783V5.95492H252.273V0Z" fill="#A2A2A2"/>
<path d="M245.784 0H239.294V5.95492H245.784V0Z" fill="#A2A2A2"/>
<path d="M239.279 0H232.789V5.95492H239.279V0Z" fill="#A2A2A2"/>
<path d="M232.789 0H226.3V5.95492H232.789V0Z" fill="#A2A2A2"/>
<path d="M226.3 0H219.81V5.95492H226.3V0Z" fill="#A2A2A2"/>
<path d="M219.81 0H213.321V5.95492H219.81V0Z" fill="#A2A2A2"/>
<path d="M229.506 219.752V213.797H223.016H216.527H210.037H203.548H197.058H190.569H184.079H177.59H171.1H164.595H158.106H151.617H145.127H138.638H132.148H125.659H119.169H112.68V219.752H106.19V225.707V231.662V237.617V243.572V249.527V255.496V261.451V267.406V273.361V279.316V285.271V291.225V297.18V303.135V309.09V315.045H112.68H119.169H125.659H132.148H138.638H145.127H151.617H158.106H164.595V321H171.1V315.045H177.59H184.079H190.569H197.058H203.548H210.037H216.527H223.016H229.506H235.995V309.09V303.135V297.18V291.225V285.271V279.316V273.361V267.406V261.451V255.496V249.527V243.572V237.617V231.662V225.707V219.752H229.506Z" fill="#3D4142"/>
<path d="M160.295 292.315H153.805V298.27H160.295V292.315Z" fill="#915816"/>
<path d="M225.205 286.36H218.716V292.315H225.205V286.36Z" fill="#915816"/>
<path d="M218.716 286.36H212.226V292.315H218.716V286.36Z" fill="#915816"/>
<path d="M212.226 286.36H205.737V292.315H212.226V286.36Z" fill="#915816"/>
<path d="M205.737 286.36H199.247V292.315H205.737V286.36Z" fill="#915816"/>
<path d="M199.247 286.36H192.758V292.315H199.247V286.36Z" fill="#915816"/>
<path d="M192.758 286.36H186.268V292.315H192.758V286.36Z" fill="#915816"/>
<path d="M186.268 286.36H179.779V292.315H186.268V286.36Z" fill="#915816"/>
<path d="M179.779 286.36H173.289V292.315H179.779V286.36Z" fill="#915816"/>
<path d="M173.289 286.36H166.8V292.315H173.289V286.36Z" fill="#915816"/>
<path d="M166.8 286.36H160.31V292.315H166.8V286.36Z" fill="#915816"/>
<path d="M160.295 286.36H153.805V292.315H160.295V286.36Z" fill="#2A1620"/>
<path d="M153.805 286.36H147.316V292.315H153.805V286.36Z" fill="#915816"/>
<path d="M147.316 286.36H140.826V292.315H147.316V286.36Z" fill="#915816"/>
<path d="M140.826 286.36H134.337V292.315H140.826V286.36Z" fill="#915816"/>
<path d="M134.337 286.36H127.847V292.315H134.337V286.36Z" fill="#915816"/>
<path d="M127.847 286.36H121.358V292.315H127.847V286.36Z" fill="#915816"/>
<path d="M121.358 286.36H114.868V292.315H121.358V286.36Z" fill="#915816"/>
<path d="M114.869 286.36H108.379V292.315H114.869V286.36Z" fill="#915816"/>
<path d="M108.379 286.36H101.89V292.315H108.379V286.36Z" fill="#915816"/>
<path d="M101.89 286.36H95.4V292.315H101.89V286.36Z" fill="#915816"/>
<path d="M225.205 280.405H218.716V286.36H225.205V280.405Z" fill="#B07128"/>
<path d="M218.716 280.405H212.226V286.36H218.716V280.405Z" fill="#DCDCDC"/>
<path d="M212.226 280.405H205.737V286.36H212.226V280.405Z" fill="#DCDCDC"/>
<path d="M205.737 280.405H199.247V286.36H205.737V280.405Z" fill="#DCDCDC"/>
<path d="M199.247 280.405H192.758V286.36H199.247V280.405Z" fill="#DCDCDC"/>
<path d="M192.758 280.405H186.268V286.36H192.758V280.405Z" fill="#DCDCDC"/>
<path d="M186.268 280.405H179.779V286.36H186.268V280.405Z" fill="#DCDCDC"/>
<path d="M179.779 280.405H173.289V286.36H179.779V280.405Z" fill="#DCDCDC"/>
<path d="M173.289 280.405H166.8V286.36H173.289V280.405Z" fill="#A2A2A2"/>
<path d="M166.8 280.405H160.31V286.36H166.8V280.405Z" fill="#DCDCDC"/>
<path d="M160.295 280.405H153.805V286.36H160.295V280.405Z" fill="#FCD386"/>
<path d="M153.805 280.405H147.316V286.36H153.805V280.405Z" fill="#DCDCDC"/>
<path d="M147.316 280.405H140.826V286.36H147.316V280.405Z" fill="#DCDCDC"/>
<path d="M140.826 280.405H134.337V286.36H140.826V280.405Z" fill="#DCDCDC"/>
<path d="M134.337 280.405H127.847V286.36H134.337V280.405Z" fill="#DCDCDC"/>
<path d="M127.847 280.405H121.358V286.36H127.847V280.405Z" fill="#DCDCDC"/>
<path d="M121.358 280.405H114.868V286.36H121.358V280.405Z" fill="#DCDCDC"/>
<path d="M114.869 280.405H108.379V286.36H114.869V280.405Z" fill="#DCDCDC"/>
<path d="M108.379 280.405H101.89V286.36H108.379V280.405Z" fill="#DCDCDC"/>
<path d="M101.89 280.405H95.4V286.36H101.89V280.405Z" fill="#D68E3A"/>
<path d="M225.205 274.45H218.716V280.405H225.205V274.45Z" fill="#B07128"/>
<path d="M218.716 274.45H212.226V280.405H218.716V274.45Z" fill="#DCDCDC"/>
<path d="M212.226 274.45H205.737V280.405H212.226V274.45Z" fill="#DCDCDC"/>
<path d="M205.737 274.45H199.247V280.405H205.737V274.45Z" fill="#DCDCDC"/>
<path d="M199.247 274.45H192.758V280.405H199.247V274.45Z" fill="#DCDCDC"/>
<path d="M192.758 274.45H186.268V280.405H192.758V274.45Z" fill="#DCDCDC"/>
<path d="M186.268 274.45H179.779V280.405H186.268V274.45Z" fill="#DCDCDC"/>
<path d="M179.779 274.45H173.289V280.405H179.779V274.45Z" fill="#A2A2A2"/>
<path d="M173.289 274.45H166.8V280.405H173.289V274.45Z" fill="#A2A2A2"/>
<path d="M166.8 274.45H160.31V280.405H166.8V274.45Z" fill="#DCDCDC"/>
<path d="M160.295 274.45H153.805V280.405H160.295V274.45Z" fill="#FCD386"/>
<path d="M153.805 274.45H147.316V280.405H153.805V274.45Z" fill="#DCDCDC"/>
<path d="M147.316 274.45H140.826V280.405H147.316V274.45Z" fill="#DCDCDC"/>
<path d="M140.826 274.45H134.337V280.405H140.826V274.45Z" fill="#DCDCDC"/>
<path d="M134.337 274.45H127.847V280.405H134.337V274.45Z" fill="#DCDCDC"/>
<path d="M127.847 274.45H121.358V280.405H127.847V274.45Z" fill="#DCDCDC"/>
<path d="M121.358 274.45H114.868V280.405H121.358V274.45Z" fill="#A2A2A2"/>
<path d="M114.869 274.45H108.379V280.405H114.869V274.45Z" fill="#A2A2A2"/>
<path d="M108.379 274.45H101.89V280.405H108.379V274.45Z" fill="#A2A2A2"/>
<path d="M101.89 274.45H95.4V280.405H101.89V274.45Z" fill="#D68E3A"/>
<path d="M225.205 268.495H218.716V274.45H225.205V268.495Z" fill="#B07128"/>
<path d="M218.716 268.495H212.226V274.45H218.716V268.495Z" fill="#DCDCDC"/>
<path d="M212.226 268.495H205.737V274.45H212.226V268.495Z" fill="#DCDCDC"/>
<path d="M205.737 268.495H199.247V274.45H205.737V268.495Z" fill="#DCDCDC"/>
<path d="M199.247 268.495H192.758V274.45H199.247V268.495Z" fill="#DCDCDC"/>
<path d="M192.758 268.495H186.268V274.45H192.758V268.495Z" fill="#DCDCDC"/>
<path d="M186.268 268.495H179.779V274.45H186.268V268.495Z" fill="#DCDCDC"/>
<path d="M179.779 268.495H173.289V274.45H179.779V268.495Z" fill="#A2A2A2"/>
<path d="M173.289 268.495H166.8V274.45H173.289V268.495Z" fill="#A2A2A2"/>
<path d="M166.8 268.495H160.31V274.45H166.8V268.495Z" fill="#DCDCDC"/>
<path d="M160.295 268.495H153.805V274.45H160.295V268.495Z" fill="#FCD386"/>
<path d="M153.805 268.495H147.316V274.45H153.805V268.495Z" fill="#DCDCDC"/>
<path d="M147.316 268.495H140.826V274.45H147.316V268.495Z" fill="#DCDCDC"/>
<path d="M140.826 268.495H134.337V274.45H140.826V268.495Z" fill="#DCDCDC"/>
<path d="M134.337 268.495H127.847V274.45H134.337V268.495Z" fill="#DCDCDC"/>
<path d="M127.847 268.495H121.358V274.45H127.847V268.495Z" fill="#DCDCDC"/>
<path d="M121.358 268.495H114.868V274.45H121.358V268.495Z" fill="#A2A2A2"/>
<path d="M114.869 268.495H108.379V274.45H114.869V268.495Z" fill="#A2A2A2"/>
<path d="M108.379 268.495H101.89V274.45H108.379V268.495Z" fill="#A2A2A2"/>
<path d="M101.89 268.495H95.4V274.45H101.89V268.495Z" fill="#D68E3A"/>
<path d="M225.205 262.54H218.716V268.495H225.205V262.54Z" fill="#B07128"/>
<path d="M218.716 262.54H212.226V268.495H218.716V262.54Z" fill="#DCDCDC"/>
<path d="M212.226 262.54H205.737V268.495H212.226V262.54Z" fill="#DCDCDC"/>
<path d="M205.737 262.54H199.247V268.495H205.737V262.54Z" fill="#DCDCDC"/>
<path d="M199.247 262.54H192.758V268.495H199.247V262.54Z" fill="#DCDCDC"/>
<path d="M192.758 262.54H186.268V268.495H192.758V262.54Z" fill="#DCDCDC"/>
<path d="M186.268 262.54H179.779V268.495H186.268V262.54Z" fill="#DCDCDC"/>
<path d="M179.779 262.54H173.289V268.495H179.779V262.54Z" fill="#A2A2A2"/>
<path d="M173.289 262.54H166.8V268.495H173.289V262.54Z" fill="#A2A2A2"/>
<path d="M166.8 262.54H160.31V268.495H166.8V262.54Z" fill="#DCDCDC"/>
<path d="M160.295 262.54H153.805V268.495H160.295V262.54Z" fill="#FCD386"/>
<path d="M153.805 262.54H147.316V268.495H153.805V262.54Z" fill="#DCDCDC"/>
<path d="M147.316 262.54H140.826V268.495H147.316V262.54Z" fill="#DCDCDC"/>
<path d="M140.826 262.54H134.337V268.495H140.826V262.54Z" fill="#DCDCDC"/>
<path d="M134.337 262.54H127.847V268.495H134.337V262.54Z" fill="#DCDCDC"/>
<path d="M127.847 262.54H121.358V268.495H127.847V262.54Z" fill="#DCDCDC"/>
<path d="M121.358 262.54H114.868V268.495H121.358V262.54Z" fill="#A2A2A2"/>
<path d="M114.869 262.54H108.379V268.495H114.869V262.54Z" fill="#A2A2A2"/>
<path d="M108.379 262.54H101.89V268.495H108.379V262.54Z" fill="#A2A2A2"/>
<path d="M101.89 262.54H95.4V268.495H101.89V262.54Z" fill="#D68E3A"/>
<path d="M225.205 256.585H218.716V262.54H225.205V256.585Z" fill="#B07128"/>
<path d="M218.716 256.585H212.226V262.54H218.716V256.585Z" fill="#DCDCDC"/>
<path d="M212.226 256.585H205.737V262.54H212.226V256.585Z" fill="#DCDCDC"/>
<path d="M205.737 256.585H199.247V262.54H205.737V256.585Z" fill="#DCDCDC"/>
<path d="M199.247 256.585H192.758V262.54H199.247V256.585Z" fill="#DCDCDC"/>
<path d="M192.758 256.585H186.268V262.54H192.758V256.585Z" fill="#DCDCDC"/>
<path d="M186.268 256.585H179.779V262.54H186.268V256.585Z" fill="#DCDCDC"/>
<path d="M179.779 256.585H173.289V262.54H179.779V256.585Z" fill="#A2A2A2"/>
<path d="M173.289 256.585H166.8V262.54H173.289V256.585Z" fill="#A2A2A2"/>
<path d="M166.8 256.585H160.31V262.54H166.8V256.585Z" fill="#DCDCDC"/>
<path d="M160.295 256.585H153.805V262.54H160.295V256.585Z" fill="#FCD386"/>
<path d="M153.805 256.585H147.316V262.54H153.805V256.585Z" fill="#DCDCDC"/>
<path d="M147.316 256.585H140.826V262.54H147.316V256.585Z" fill="#DCDCDC"/>
<path d="M140.826 256.585H134.337V262.54H140.826V256.585Z" fill="#DCDCDC"/>
<path d="M134.337 256.585H127.847V262.54H134.337V256.585Z" fill="#DCDCDC"/>
<path d="M127.847 256.585H121.358V262.54H127.847V256.585Z" fill="#DCDCDC"/>
<path d="M121.358 256.585H114.868V262.54H121.358V256.585Z" fill="#A2A2A2"/>
<path d="M114.869 256.585H108.379V262.54H114.869V256.585Z" fill="#A2A2A2"/>
<path d="M108.379 256.585H101.89V262.54H108.379V256.585Z" fill="#A2A2A2"/>
<path d="M101.89 256.585H95.4V262.54H101.89V256.585Z" fill="#D68E3A"/>
<path d="M225.205 260.63H218.716V266.585H225.205V260.63Z" fill="#B07128"/>
<path d="M218.716 260.63H212.226V266.585H218.716V260.63Z" fill="#DCDCDC"/>
<path d="M212.226 260.63H205.737V266.585H212.226V260.63Z" fill="#DCDCDC"/>
<path d="M205.737 260.63H199.247V266.585H205.737V260.63Z" fill="#DCDCDC"/>
<path d="M199.247 260.63H192.758V266.585H199.247V260.63Z" fill="#DCDCDC"/>
<path d="M192.758 260.63H186.268V266.585H192.758V260.63Z" fill="#DCDCDC"/>
<path d="M186.268 260.63H179.779V266.585H186.268V260.63Z" fill="#DCDCDC"/>
<path d="M179.779 260.63H173.289V266.585H179.779V260.63Z" fill="#A2A2A2"/>
<path d="M173.289 260.63H166.8V266.585H173.289V260.63Z" fill="#A2A2A2"/>
<path d="M166.8 260.63H160.31V266.585H166.8V260.63Z" fill="#DCDCDC"/>
<path d="M160.295 260.63H153.805V266.585H160.295V260.63Z" fill="#FCD386"/>
<path d="M153.805 260.63H147.316V266.585H153.805V260.63Z" fill="#DCDCDC"/>
<path d="M147.316 260.63H140.826V266.585H147.316V260.63Z" fill="#DCDCDC"/>
<path d="M140.826 260.63H134.337V266.585H140.826V260.63Z" fill="#DCDCDC"/>
<path d="M134.337 260.63H127.847V266.585H134.337V260.63Z" fill="#DCDCDC"/>
<path d="M127.847 260.63H121.358V266.585H127.847V260.63Z" fill="#DCDCDC"/>
<path d="M121.358 260.63H114.868V266.585H121.358V260.63Z" fill="#A2A2A2"/>
<path d="M114.869 260.63H108.379V266.585H114.869V260.63Z" fill="#A2A2A2"/>
<path d="M108.379 260.63H101.89V266.585H108.379V260.63Z" fill="#A2A2A2"/>
<path d="M101.89 260.63H95.4V266.585H101.89V260.63Z" fill="#D68E3A"/>
<path d="M225.205 254.676H218.716V260.63H225.205V254.676Z" fill="#B07128"/>
<path d="M218.716 254.676H212.226V260.63H218.716V254.676Z" fill="#DCDCDC"/>
<path d="M212.226 254.676H205.737V260.63H212.226V254.676Z" fill="#AE5A44"/>
<path d="M205.737 254.676H199.247V260.63H205.737V254.676Z" fill="#AE5A44"/>
<path d="M199.247 254.676H192.758V260.63H199.247V254.676Z" fill="#DCDCDC"/>
<path d="M192.758 254.676H186.268V260.63H192.758V254.676Z" fill="#AE5A44"/>
<path d="M186.268 254.676H179.779V260.63H186.268V254.676Z" fill="#AE5A44"/>
<path d="M179.779 254.676H173.289V260.63H179.779V254.676Z" fill="#AE5A44"/>
<path d="M173.289 254.676H166.8V260.63H173.289V254.676Z" fill="#AE5A44"/>
<path d="M166.8 254.676H160.31V260.63H166.8V254.676Z" fill="#DCDCDC"/>
<path d="M160.295 254.676H153.805V260.63H160.295V254.676Z" fill="#FCD386"/>
<path d="M153.805 254.676H147.316V260.63H153.805V254.676Z" fill="#DCDCDC"/>
<path d="M147.316 254.676H140.826V260.63H147.316V254.676Z" fill="#DCDCDC"/>
<path d="M140.826 254.676H134.337V260.63H140.826V254.676Z" fill="#DCDCDC"/>
<path d="M134.337 254.676H127.847V260.63H134.337V254.676Z" fill="#DCDCDC"/>
<path d="M127.847 254.676H121.358V260.63H127.847V254.676Z" fill="#DCDCDC"/>
<path d="M121.358 254.676H114.868V260.63H121.358V254.676Z" fill="#A2A2A2"/>
<path d="M114.869 254.676H108.379V260.63H114.869V254.676Z" fill="#A2A2A2"/>
<path d="M108.379 254.676H101.89V260.63H108.379V254.676Z" fill="#A2A2A2"/>
<path d="M101.89 254.676H95.4V260.63H101.89V254.676Z" fill="#D68E3A"/>
<path d="M225.205 248.72H218.716V254.675H225.205V248.72Z" fill="#B07128"/>
<path d="M218.716 248.72H212.226V254.675H218.716V248.72Z" fill="#DCDCDC"/>
<path d="M212.226 248.72H205.737V254.675H212.226V248.72Z" fill="#DCDCDC"/>
<path d="M205.737 248.72H199.247V254.675H205.737V248.72Z" fill="#DCDCDC"/>
<path d="M199.247 248.72H192.758V254.675H199.247V248.72Z" fill="#DCDCDC"/>
<path d="M192.758 248.72H186.268V254.675H192.758V248.72Z" fill="#DCDCDC"/>
<path d="M186.268 248.72H179.779V254.675H186.268V248.72Z" fill="#DCDCDC"/>
<path d="M179.779 248.72H173.289V254.675H179.779V248.72Z" fill="#DCDCDC"/>
<path d="M173.289 248.72H166.8V254.675H173.289V248.72Z" fill="#A2A2A2"/>
<path d="M166.8 248.72H160.31V254.675H166.8V248.72Z" fill="#DCDCDC"/>
<path d="M160.295 248.72H153.805V254.675H160.295V248.72Z" fill="#FCD386"/>
<path d="M153.805 248.72H147.316V254.675H153.805V248.72Z" fill="#DCDCDC"/>
<path d="M147.316 248.72H140.826V254.675H147.316V248.72Z" fill="#DCDCDC"/>
<path d="M140.826 248.72H134.337V254.675H140.826V248.72Z" fill="#DCDCDC"/>
<path d="M134.337 248.72H127.847V254.675H134.337V248.72Z" fill="#DCDCDC"/>
<path d="M127.847 248.72H121.358V254.675H127.847V248.72Z" fill="#DCDCDC"/>
<path d="M121.358 248.72H114.868V254.675H121.358V248.72Z" fill="#A2A2A2"/>
<path d="M114.869 248.72H108.379V254.675H114.869V248.72Z" fill="#A2A2A2"/>
<path d="M108.379 248.72H101.89V254.675H108.379V248.72Z" fill="#A2A2A2"/>
<path d="M101.89 248.72H95.4V254.675H101.89V248.72Z" fill="#D68E3A"/>
<path d="M225.205 242.766H218.716V248.72H225.205V242.766Z" fill="#B07128"/>
<path d="M218.716 242.766H212.226V248.72H218.716V242.766Z" fill="#DCDCDC"/>
<path d="M212.226 242.766H205.737V248.72H212.226V242.766Z" fill="#DCDCDC"/>
<path d="M205.737 242.766H199.247V248.72H205.737V242.766Z" fill="#9A4831"/>
<path d="M199.247 242.766H192.758V248.72H199.247V242.766Z" fill="#DCDCDC"/>
<path d="M192.758 242.766H186.268V248.72H192.758V242.766Z" fill="#AE5A44"/>
<path d="M186.268 242.766H179.779V248.72H186.268V242.766Z" fill="#DCDCDC"/>
<path d="M179.779 242.766H173.289V248.72H179.779V242.766Z" fill="#9A4831"/>
<path d="M173.289 242.766H166.8V248.72H173.289V242.766Z" fill="#DCDCDC"/>
<path d="M166.8 242.766H160.31V248.72H166.8V242.766Z" fill="#DCDCDC"/>
<path d="M160.295 242.766H153.805V248.72H160.295V242.766Z" fill="#FCD386"/>
<path d="M153.805 242.766H147.316V248.72H153.805V242.766Z" fill="#DCDCDC"/>
<path d="M147.316 242.766H140.826V248.72H147.316V242.766Z" fill="#DCDCDC"/>
<path d="M140.826 242.766H134.337V248.72H140.826V242.766Z" fill="#DCDCDC"/>
<path d="M134.337 242.766H127.847V248.72H134.337V242.766Z" fill="#DCDCDC"/>
<path d="M127.847 242.766H121.358V248.72H127.847V242.766Z" fill="#DCDCDC"/>
<path d="M121.358 242.766H114.868V248.72H121.358V242.766Z" fill="#A2A2A2"/>
<path d="M114.869 242.766H108.379V248.72H114.869V242.766Z" fill="#A2A2A2"/>
<path d="M108.379 242.766H101.89V248.72H108.379V242.766Z" fill="#A2A2A2"/>
<path d="M101.89 242.766H95.4V248.72H101.89V242.766Z" fill="#D68E3A"/>
<path d="M225.205 236.811H218.716V242.766H225.205V236.811Z" fill="#B07128"/>
<path d="M218.716 236.811H212.226V242.766H218.716V236.811Z" fill="#DCDCDC"/>
<path d="M212.226 236.811H205.737V242.766H212.226V236.811Z" fill="#AE5A44"/>
<path d="M205.737 236.811H199.247V242.766H205.737V236.811Z" fill="#AE5A44"/>
<path d="M199.247 236.811H192.758V242.766H199.247V236.811Z" fill="#DCDCDC"/>
<path d="M192.758 236.811H186.268V242.766H192.758V236.811Z" fill="#AE5A44"/>
<path d="M186.268 236.811H179.779V242.766H186.268V236.811Z" fill="#AE5A44"/>
<path d="M179.779 236.811H173.289V242.766H179.779V236.811Z" fill="#AE5A44"/>
<path d="M173.289 236.811H166.8V242.766H173.289V236.811Z" fill="#DCDCDC"/>
<path d="M166.8 236.811H160.31V242.766H166.8V236.811Z" fill="#DCDCDC"/>
<path d="M160.295 236.811H153.805V242.766H160.295V236.811Z" fill="#FCD386"/>
<path d="M153.805 236.811H147.316V242.766H153.805V236.811Z" fill="#DCDCDC"/>
<path d="M147.316 236.811H140.826V242.766H147.316V236.811Z" fill="#DCDCDC"/>
<path d="M140.826 236.811H134.337V242.766H140.826V236.811Z" fill="#DCDCDC"/>
<path d="M134.337 236.811H127.847V242.766H134.337V236.811Z" fill="#DCDCDC"/>
<path d="M127.847 236.811H121.358V242.766H127.847V236.811Z" fill="#DCDCDC"/>
<path d="M121.358 236.811H114.868V242.766H121.358V236.811Z" fill="#A2A2A2"/>
<path d="M114.869 236.811H108.379V242.766H114.869V236.811Z" fill="#A2A2A2"/>
<path d="M108.379 236.811H101.89V242.766H108.379V236.811Z" fill="#A2A2A2"/>
<path d="M101.89 236.811H95.4V242.766H101.89V236.811Z" fill="#D68E3A"/>
<path d="M225.205 230.841H218.716V236.796H225.205V230.841Z" fill="#B07128"/>
<path d="M218.716 230.841H212.226V236.796H218.716V230.841Z" fill="#DCDCDC"/>
<path d="M212.226 230.841H205.737V236.796H212.226V230.841Z" fill="#AE5A44"/>
<path d="M205.737 230.841H199.247V236.796H205.737V230.841Z" fill="#9A4831"/>
<path d="M199.247 230.841H192.758V236.796H199.247V230.841Z" fill="#9A4831"/>
<path d="M192.758 230.841H186.268V236.796H192.758V230.841Z" fill="#9A4831"/>
<path d="M186.268 230.841H179.779V236.796H186.268V230.841Z" fill="#DCDCDC"/>
<path d="M179.779 230.841H173.289V236.796H179.779V230.841Z" fill="#9A4831"/>
<path d="M173.289 230.841H166.8V236.796H173.289V230.841Z" fill="#DCDCDC"/>
<path d="M166.8 230.841H160.31V236.796H166.8V230.841Z" fill="#DCDCDC"/>
<path d="M160.295 230.841H153.805V236.796H160.295V230.841Z" fill="#FCD386"/>
<path d="M153.805 230.841H147.316V236.796H153.805V230.841Z" fill="#DCDCDC"/>
<path d="M147.316 230.841H140.826V236.796H147.316V230.841Z" fill="#DCDCDC"/>
<path d="M140.826 230.841H134.337V236.796H140.826V230.841Z" fill="#DCDCDC"/>
<path d="M134.337 230.841H127.847V236.796H134.337V230.841Z" fill="#DCDCDC"/>
<path d="M127.847 230.841H121.358V236.796H127.847V230.841Z" fill="#DCDCDC"/>
<path d="M121.358 230.841H114.868V236.796H121.358V230.841Z" fill="#A2A2A2"/>
<path d="M114.869 230.841H108.379V236.796H114.869V230.841Z" fill="#A2A2A2"/>
<path d="M108.379 230.841H101.89V236.796H108.379V230.841Z" fill="#A2A2A2"/>
<path d="M101.89 230.841H95.4V236.796H101.89V230.841Z" fill="#D68E3A"/>
<path d="M225.205 224.887H218.716V230.842H225.205V224.887Z" fill="#B07128"/>
<path d="M218.716 224.887H212.226V230.842H218.716V224.887Z" fill="#DCDCDC"/>
<path d="M212.226 224.887H205.737V230.842H212.226V224.887Z" fill="#DCDCDC"/>
<path d="M205.737 224.887H199.247V230.842H205.737V224.887Z" fill="#DCDCDC"/>
<path d="M199.247 224.887H192.758V230.842H199.247V224.887Z" fill="#DCDCDC"/>
<path d="M192.758 224.887H186.268V230.842H192.758V224.887Z" fill="#DCDCDC"/>
<path d="M186.268 224.887H179.779V230.842H186.268V224.887Z" fill="#DCDCDC"/>
<path d="M179.779 224.887H173.289V230.842H179.779V224.887Z" fill="#F7E0B1"/>
<path d="M173.289 224.887H166.8V230.842H173.289V224.887Z" fill="#DCDCDC"/>
<path d="M166.8 224.887H160.31V230.842H166.8V224.887Z" fill="#DCDCDC"/>
<path d="M160.295 224.887H153.805V230.842H160.295V224.887Z" fill="#FCD386"/>
<path d="M153.805 224.887H147.316V230.842H153.805V224.887Z" fill="#DCDCDC"/>
<path d="M147.316 224.887H140.826V230.842H147.316V224.887Z" fill="#DCDCDC"/>
<path d="M140.826 224.887H134.337V230.842H140.826V224.887Z" fill="#DCDCDC"/>
<path d="M134.337 224.887H127.847V230.842H134.337V224.887Z" fill="#DCDCDC"/>
<path d="M127.847 224.887H121.358V230.842H127.847V224.887Z" fill="#DCDCDC"/>
<path d="M121.358 224.887H114.868V230.842H121.358V224.887Z" fill="#A2A2A2"/>
<path d="M114.869 224.887H108.379V230.842H114.869V224.887Z" fill="#A2A2A2"/>
<path d="M108.379 224.887H101.89V230.842H108.379V224.887Z" fill="#A2A2A2"/>
<path d="M101.89 224.887H95.4V230.842H101.89V224.887Z" fill="#D68E3A"/>
<path d="M225.205 218.932H218.716V224.887H225.205V218.932Z" fill="#B07128"/>
<path d="M218.716 218.932H212.226V224.887H218.716V218.932Z" fill="#DCDCDC"/>
<path d="M212.226 218.932H205.737V224.887H212.226V218.932Z" fill="#9A4831"/>
<path d="M205.737 218.932H199.247V224.887H205.737V218.932Z" fill="#AE5A44"/>
<path d="M199.247 218.932H192.758V224.887H199.247V218.932Z" fill="#9A4831"/>
<path d="M192.758 218.932H186.268V224.887H192.758V218.932Z" fill="#AE5A44"/>
<path d="M186.268 218.932H179.779V224.887H186.268V218.932Z" fill="#AE5A44"/>
<path d="M179.779 218.932H173.289V224.887H179.779V218.932Z" fill="#AE5A44"/>
<path d="M173.289 218.932H166.8V224.887H173.289V218.932Z" fill="#DCDCDC"/>
<path d="M166.8 218.932H160.31V224.887H166.8V218.932Z" fill="#DCDCDC"/>
<path d="M160.295 218.932H153.805V224.887H160.295V218.932Z" fill="#FCD386"/>
<path d="M153.805 218.932H147.316V224.887H153.805V218.932Z" fill="#DCDCDC"/>
<path d="M147.316 218.932H140.826V224.887H147.316V218.932Z" fill="#DCDCDC"/>
<path d="M140.826 218.932H134.337V224.887H140.826V218.932Z" fill="#DCDCDC"/>
<path d="M134.337 218.932H127.847V224.887H134.337V218.932Z" fill="#DCDCDC"/>
<path d="M127.847 218.932H121.358V224.887H127.847V218.932Z" fill="#DCDCDC"/>
<path d="M121.358 218.932H114.868V224.887H121.358V218.932Z" fill="#A2A2A2"/>
<path d="M114.869 218.932H108.379V224.887H114.869V218.932Z" fill="#A2A2A2"/>
<path d="M108.379 218.932H101.89V224.887H108.379V218.932Z" fill="#A2A2A2"/>
<path d="M101.89 218.932H95.4V224.887H101.89V218.932Z" fill="#D68E3A"/>
<path d="M225.205 212.977H218.716V218.932H225.205V212.977Z" fill="#B07128"/>
<path d="M218.716 212.977H212.226V218.932H218.716V212.977Z" fill="#DCDCDC"/>
<path d="M212.226 212.977H205.737V218.932H212.226V212.977Z" fill="#AE5A44"/>
<path d="M205.737 212.977H199.247V218.932H205.737V212.977Z" fill="#9A4831"/>
<path d="M199.247 212.977H192.758V218.932H199.247V212.977Z" fill="#9A4831"/>
<path d="M192.758 212.977H186.268V218.932H192.758V212.977Z" fill="#9A4831"/>
<path d="M186.268 212.977H179.779V218.932H186.268V212.977Z" fill="#9A4831"/>
<path d="M179.779 212.977H173.289V218.932H179.779V212.977Z" fill="#9A4831"/>
<path d="M173.289 212.977H166.8V218.932H173.289V212.977Z" fill="#DCDCDC"/>
<path d="M166.8 212.977H160.31V218.932H166.8V212.977Z" fill="#DCDCDC"/>
<path d="M160.295 212.977H153.805V218.932H160.295V212.977Z" fill="#FCD386"/>
<path d="M153.805 212.977H147.316V218.932H153.805V212.977Z" fill="#DCDCDC"/>
<path d="M147.316 212.977H140.826V218.932H147.316V212.977Z" fill="#DCDCDC"/>
<path d="M140.826 212.977H134.337V218.932H140.826V212.977Z" fill="#DCDCDC"/>
<path d="M134.337 212.977H127.847V218.932H134.337V212.977Z" fill="#DCDCDC"/>
<path d="M127.847 212.977H121.358V218.932H127.847V212.977Z" fill="#DCDCDC"/>
<path d="M121.358 212.977H114.868V218.932H121.358V212.977Z" fill="#A2A2A2"/>
<path d="M114.869 212.977H108.379V218.932H114.869V212.977Z" fill="#A2A2A2"/>
<path d="M108.379 212.977H101.89V218.932H108.379V212.977Z" fill="#A2A2A2"/>
<path d="M101.89 212.977H95.4V218.932H101.89V212.977Z" fill="#D68E3A"/>
<path d="M225.205 207.022H218.716V212.977H225.205V207.022Z" fill="#B07128"/>
<path d="M218.716 207.022H212.226V212.977H218.716V207.022Z" fill="#DCDCDC"/>
<path d="M212.226 207.022H205.737V212.977H212.226V207.022Z" fill="#DCDCDC"/>
<path d="M205.737 207.022H199.247V212.977H205.737V207.022Z" fill="#DCDCDC"/>
<path d="M199.247 207.022H192.758V212.977H199.247V207.022Z" fill="#DCDCDC"/>
<path d="M192.758 207.022H186.268V212.977H192.758V207.022Z" fill="#DCDCDC"/>
<path d="M186.268 207.022H179.779V212.977H186.268V207.022Z" fill="#DCDCDC"/>
<path d="M179.779 207.022H173.289V212.977H179.779V207.022Z" fill="#A2A2A2"/>
<path d="M173.289 207.022H166.8V212.977H173.289V207.022Z" fill="#A2A2A2"/>
<path d="M166.8 207.022H160.31V212.977H166.8V207.022Z" fill="#DCDCDC"/>
<path d="M160.295 207.022H153.805V212.977H160.295V207.022Z" fill="#FCD386"/>
<path d="M153.805 207.022H147.316V212.977H153.805V207.022Z" fill="#DCDCDC"/>
<path d="M147.316 207.022H140.826V212.977H147.316V207.022Z" fill="#DCDCDC"/>
<path d="M140.826 207.022H134.337V212.977H140.826V207.022Z" fill="#DCDCDC"/>
<path d="M134.337 207.022H127.847V212.977H134.337V207.022Z" fill="#DCDCDC"/>
<path d="M127.847 207.022H121.358V212.977H127.847V207.022Z" fill="#A2A2A2"/>
<path d="M121.358 207.022H114.868V212.977H121.358V207.022Z" fill="#A2A2A2"/>
<path d="M114.869 207.022H108.379V212.977H114.869V207.022Z" fill="#A2A2A2"/>
<path d="M108.379 207.022H101.89V212.977H108.379V207.022Z" fill="#A2A2A2"/>
<path d="M101.89 207.022H95.4V212.977H101.89V207.022Z" fill="#D68E3A"/>
<path d="M218.716 201.067H212.226V207.022H218.716V201.067Z" fill="#DCDCDC"/>
<path d="M212.226 201.067H205.737V207.022H212.226V201.067Z" fill="#DCDCDC"/>
<path d="M205.737 201.067H199.247V207.022H205.737V201.067Z" fill="#DCDCDC"/>
<path d="M199.247 201.067H192.758V207.022H199.247V201.067Z" fill="#DCDCDC"/>
<path d="M192.758 201.067H186.268V207.022H192.758V201.067Z" fill="#DCDCDC"/>
<path d="M186.268 201.067H179.779V207.022H186.268V201.067Z" fill="#A2A2A2"/>
<path d="M179.779 201.067H173.289V207.022H179.779V201.067Z" fill="#A2A2A2"/>
<path d="M173.289 201.067H166.8V207.022H173.289V201.067Z" fill="#A2A2A2"/>
<path d="M166.8 201.067H160.31V207.022H166.8V201.067Z" fill="#A2A2A2"/>
<path d="M160.295 201.067H153.805V207.022H160.295V201.067Z" fill="#FCD386"/>
<path d="M153.805 201.067H147.316V207.022H153.805V201.067Z" fill="#DCDCDC"/>
<path d="M147.316 201.067H140.826V207.022H147.316V201.067Z" fill="#DCDCDC"/>
<path d="M140.826 201.067H134.337V207.022H140.826V201.067Z" fill="#DCDCDC"/>
<path d="M134.337 201.067H127.847V207.022H134.337V201.067Z" fill="#DCDCDC"/>
<path d="M127.847 201.067H121.358V207.022H127.847V201.067Z" fill="#A2A2A2"/>
<path d="M121.358 201.067H114.868V207.022H121.358V201.067Z" fill="#A2A2A2"/>
<path d="M114.869 201.067H108.379V207.022H114.869V201.067Z" fill="#A2A2A2"/>
<path d="M108.379 201.067H101.89V207.022H108.379V201.067Z" fill="#A2A2A2"/>
<path d="M88.6793 80.2572H82.1898V74.3022H75.7004H69.2109H62.7214H56.2319H49.7424H43.2375H36.748H30.2586V80.2572H23.7691H17.2796H10.7901V86.2121V92.167V98.1219H17.2796V104.077V110.032V115.987V121.956V127.911V133.866V139.821V145.775V151.73V157.685V163.64V169.595V175.55H23.7691V181.505H30.2586V187.46H36.748H43.2375H49.7424H56.2319H62.7214H69.2109H75.7004H82.1898V181.505H88.6793V175.55H95.1688V169.595V163.64V157.685V151.73V145.775V139.821V133.866V127.911V121.956V115.987V110.032V104.077V98.1219H101.658V92.167V86.2121V80.2572H95.1688H88.6793Z" fill="#3D4142"/>
<path d="M71.3998 174.432H64.9103V180.387H71.3998V174.432Z" fill="#58AE8C"/>
<path d="M64.9102 174.432H58.4207V180.387H64.9102V174.432Z" fill="#58AE8C"/>
<path d="M58.4208 174.432H51.9313V180.387H58.4208V174.432Z" fill="#58AE8C"/>
<path d="M51.9313 174.432H45.4418V180.387H51.9313V174.432Z" fill="#58AE8C"/>
<path d="M45.4264 174.432H38.9369V180.387H45.4264V174.432Z" fill="#58AE8C"/>
<path d="M38.9369 174.432H32.4474V180.387H38.9369V174.432Z" fill="#58AE8C"/>
<path d="M32.4474 174.432H25.9579V180.387H32.4474V174.432Z" fill="#58AE8C"/>
<path d="M25.9579 174.432H19.4684V180.387H25.9579V174.432Z" fill="#58AE8C"/>
<path d="M77.8892 168.478H71.3997V174.432H77.8892V168.478Z" fill="#58AE8C"/>
<path d="M71.3998 168.478H64.9103V174.432H71.3998V168.478Z" fill="#FFA12E"/>
<path d="M64.9102 168.478H58.4207V174.432H64.9102V168.478Z" fill="#FFA12E"/>
<path d="M58.4208 168.478H51.9313V174.432H58.4208V168.478Z" fill="#FFA12E"/>
<path d="M51.9313 168.478H45.4418V174.432H51.9313V168.478Z" fill="#FFA12E"/>
<path d="M45.4264 168.478H38.9369V174.432H45.4264V168.478Z" fill="#FFA12E"/>
<path d="M38.9369 168.478H32.4474V174.432H38.9369V168.478Z" fill="#FFA12E"/>
<path d="M32.4474 168.478H25.9579V174.432H32.4474V168.478Z" fill="#FFA12E"/>
<path d="M25.9579 168.478H19.4684V174.432H25.9579V168.478Z" fill="#FFA12E"/>
<path d="M19.4684 168.478H12.9789V174.432H19.4684V168.478Z" fill="#12D0A0"/>
<path d="M84.3787 162.523H77.8892V168.478H84.3787V162.523Z" fill="#58AE8C"/>
<path d="M77.8892 162.523H71.3997V168.478H77.8892V162.523Z" fill="#FFA12E"/>
<path d="M71.3998 162.523H64.9103V168.478H71.3998V162.523Z" fill="#FFA12E"/>
<path d="M64.9102 162.523H58.4207V168.478H64.9102V162.523Z" fill="#FFA12E"/>
<path d="M58.4208 162.523H51.9313V168.478H58.4208V162.523Z" fill="#FFA12E"/>
<path d="M51.9313 162.523H45.4418V168.478H51.9313V162.523Z" fill="#FFA12E"/>
<path d="M45.4264 162.523H38.9369V168.478H45.4264V162.523Z" fill="#FFA12E"/>
<path d="M38.9369 162.523H32.4474V168.478H38.9369V162.523Z" fill="#FFA12E"/>
<path d="M32.4474 162.523H25.9579V168.478H32.4474V162.523Z" fill="#FCBC3C"/>
<path d="M25.9579 162.523H19.4684V168.478H25.9579V162.523Z" fill="#FCBC3C"/>
<path d="M19.4684 162.523H12.9789V168.478H19.4684V162.523Z" fill="#FCBC3C"/>
<path d="M12.9789 162.523H6.48944V168.478H12.9789V162.523Z" fill="#12D0A0"/>
<path d="M84.3787 156.568H77.8892V162.523H84.3787V156.568Z" fill="#58AE8C"/>
<path d="M77.8892 156.568H71.3997V162.523H77.8892V156.568Z" fill="#58AE8C"/>
<path d="M71.3998 156.568H64.9103V162.523H71.3998V156.568Z" fill="#FFA12E"/>
<path d="M64.9102 156.568H58.4207V162.523H64.9102V156.568Z" fill="#FFA12E"/>
<path d="M58.4208 156.568H51.9313V162.523H58.4208V156.568Z" fill="#FFA12E"/>
<path d="M51.9313 156.568H45.4418V162.523H51.9313V156.568Z" fill="#FFA12E"/>
<path d="M45.4264 156.568H38.9369V162.523H45.4264V156.568Z" fill="#FCBC3C"/>
<path d="M38.9369 156.568H32.4474V162.523H38.9369V156.568Z" fill="#FCBC3C"/>
<path d="M32.4474 156.568H25.9579V162.523H32.4474V156.568Z" fill="#FCBC3C"/>
<path d="M25.9579 156.568H19.4684V162.523H25.9579V156.568Z" fill="#12D0A0"/>
<path d="M19.4684 156.568H12.9789V162.523H19.4684V156.568Z" fill="#12D0A0"/>
<path d="M12.9789 156.568H6.48944V162.523H12.9789V156.568Z" fill="#12D0A0"/>
<path d="M84.3787 150.613H77.8892V156.568H84.3787V150.613Z" fill="#58AE8C"/>
<path d="M77.8892 150.613H71.3997V156.568H77.8892V150.613Z" fill="#58AE8C"/>
<path d="M71.3998 150.613H64.9103V156.568H71.3998V150.613Z" fill="#58AE8C"/>
<path d="M64.9102 150.613H58.4207V156.568H64.9102V150.613Z" fill="#58AE8C"/>
<path d="M58.4208 150.613H51.9313V156.568H58.4208V150.613Z" fill="#58AE8C"/>
<path d="M51.9313 150.613H45.4418V156.568H51.9313V150.613Z" fill="#FFA12E"/>
<path d="M45.4264 150.613H38.9369V156.568H45.4264V150.613Z" fill="#FCBC3C"/>
<path d="M38.9369 150.613H32.4474V156.568H38.9369V150.613Z" fill="#12D0A0"/>
<path d="M32.4474 150.613H25.9579V156.568H32.4474V150.613Z" fill="#12D0A0"/>
<path d="M25.9579 150.613H19.4684V156.568H25.9579V150.613Z" fill="#12D0A0"/>
<path d="M19.4684 150.613H12.9789V156.568H19.4684V150.613Z" fill="#12D0A0"/>
<path d="M12.9789 150.613H6.48944V156.568H12.9789V150.613Z" fill="#12D0A0"/>
<path d="M84.3787 144.658H77.8892V150.613H84.3787V144.658Z" fill="#58AE8C"/>
<path d="M77.8892 144.658H71.3997V150.613H77.8892V144.658Z" fill="#58AE8C"/>
<path d="M71.3998 144.658H64.9103V150.613H71.3998V144.658Z" fill="#58AE8C"/>
<path d="M64.9102 144.658H58.4207V150.613H64.9102V144.658Z" fill="#58AE8C"/>
<path d="M58.4208 144.658H51.9313V150.613H58.4208V144.658Z" fill="#58AE8C"/>
<path d="M51.9313 144.658H45.4418V150.613H51.9313V144.658Z" fill="#FFA12E"/>
<path d="M45.4264 144.658H38.9369V150.613H45.4264V144.658Z" fill="#FCBC3C"/>
<path d="M38.9369 144.658H32.4474V150.613H38.9369V144.658Z" fill="#12D0A0"/>
<path d="M32.4474 144.658H25.9579V150.613H32.4474V144.658Z" fill="#12D0A0"/>
<path d="M25.9579 144.658H19.4684V150.613H25.9579V144.658Z" fill="#12D0A0"/>
<path d="M19.4684 144.658H12.9789V150.613H19.4684V144.658Z" fill="#12D0A0"/>
<path d="M12.9789 144.658H6.48944V150.613H12.9789V144.658Z" fill="#12D0A0"/>
<path d="M84.3787 138.703H77.8892V144.658H84.3787V138.703Z" fill="#58AE8C"/>
<path d="M77.8892 138.703H71.3997V144.658H77.8892V138.703Z" fill="#58AE8C"/>
<path d="M71.3998 138.703H64.9103V144.658H71.3998V138.703Z" fill="#58AE8C"/>
<path d="M64.9102 138.703H58.4207V144.658H64.9102V138.703Z" fill="#58AE8C"/>
<path d="M58.4208 138.703H51.9313V144.658H58.4208V138.703Z" fill="#58AE8C"/>
<path d="M51.9313 138.703H45.4418V144.658H51.9313V138.703Z" fill="#FFA12E"/>
<path d="M45.4264 138.703H38.9369V144.658H45.4264V138.703Z" fill="#FCBC3C"/>
<path d="M38.9369 138.703H32.4474V144.658H38.9369V138.703Z" fill="#12D0A0"/>
<path d="M32.4474 138.703H25.9579V144.658H32.4474V138.703Z" fill="#12D0A0"/>
<path d="M25.9579 138.703H19.4684V144.658H25.9579V138.703Z" fill="#12D0A0"/>
<path d="M19.4684 138.703H12.9789V144.658H19.4684V138.703Z" fill="#12D0A0"/>
<path d="M12.9789 138.703H6.48944V144.658H12.9789V138.703Z" fill="#12D0A0"/>
<path d="M84.3787 132.748H77.8892V138.703H84.3787V132.748Z" fill="#58AE8C"/>
<path d="M77.8892 132.748H71.3997V138.703H77.8892V132.748Z" fill="#58AE8C"/>
<path d="M71.3998 132.748H64.9103V138.703H71.3998V132.748Z" fill="#58AE8C"/>
<path d="M64.9102 132.748H58.4207V138.703H64.9102V132.748Z" fill="#58AE8C"/>
<path d="M58.4208 132.748H51.9313V138.703H58.4208V132.748Z" fill="#58AE8C"/>
<path d="M51.9313 132.748H45.4418V138.703H51.9313V132.748Z" fill="#FFA12E"/>
<path d="M45.4264 132.748H38.9369V138.703H45.4264V132.748Z" fill="#FCBC3C"/>
<path d="M38.9369 132.748H32.4474V138.703H38.9369V132.748Z" fill="#12D0A0"/>
<path d="M32.4474 132.748H25.9579V138.703H32.4474V132.748Z" fill="#12D0A0"/>
<path d="M25.9579 132.748H19.4684V138.703H25.9579V132.748Z" fill="#12D0A0"/>
<path d="M19.4684 132.748H12.9789V138.703H19.4684V132.748Z" fill="#12D0A0"/>
<path d="M12.9789 132.748H6.48944V138.703H12.9789V132.748Z" fill="#12D0A0"/>
<path d="M84.3787 126.793H77.8892V132.748H84.3787V126.793Z" fill="#58AE8C"/>
<path d="M77.8892 126.793H71.3997V132.748H77.8892V126.793Z" fill="#58AE8C"/>
<path d="M71.3998 126.793H64.9103V132.748H71.3998V126.793Z" fill="#58AE8C"/>
<path d="M64.9102 126.793H58.4207V132.748H64.9102V126.793Z" fill="#58AE8C"/>
<path d="M58.4208 126.793H51.9313V132.748H58.4208V126.793Z" fill="#58AE8C"/>
<path d="M51.9313 126.793H45.4418V132.748H51.9313V126.793Z" fill="#FFA12E"/>
<path d="M45.4264 126.793H38.9369V132.748H45.4264V126.793Z" fill="#FCBC3C"/>
<path d="M38.9369 126.793H32.4474V132.748H38.9369V126.793Z" fill="#12D0A0"/>
<path d="M32.4474 126.793H25.9579V132.748H32.4474V126.793Z" fill="#12D0A0"/>
<path d="M25.9579 126.793H19.4684V132.748H25.9579V126.793Z" fill="#12D0A0"/>
<path d="M19.4684 126.793H12.9789V132.748H19.4684V126.793Z" fill="#46F0C5"/>
<path d="M12.9789 126.793H6.48944V132.748H12.9789V126.793Z" fill="#12D0A0"/>
<path d="M84.3787 120.838H77.8892V126.793H84.3787V120.838Z" fill="#58AE8C"/>
<path d="M77.8892 120.838H71.3997V126.793H77.8892V120.838Z" fill="#58AE8C"/>
<path d="M71.3998 120.838H64.9103V126.793H71.3998V120.838Z" fill="#58AE8C"/>
<path d="M64.9102 120.838H58.4207V126.793H64.9102V120.838Z" fill="#58AE8C"/>
<path d="M58.4208 120.838H51.9313V126.793H58.4208V120.838Z" fill="#58AE8C"/>
<path d="M51.9313 120.838H45.4418V126.793H51.9313V120.838Z" fill="#FFA12E"/>
<path d="M45.4264 120.838H38.9369V126.793H45.4264V120.838Z" fill="#FCBC3C"/>
<path d="M38.9369 120.838H32.4474V126.793H38.9369V120.838Z" fill="#12D0A0"/>
<path d="M32.4474 120.838H25.9579V126.793H32.4474V120.838Z" fill="#12D0A0"/>
<path d="M25.9579 120.838H19.4684V126.793H25.9579V120.838Z" fill="#12D0A0"/>
<path d="M19.4684 120.838H12.9789V126.793H19.4684V120.838Z" fill="#46F0C5"/>
<path d="M12.9789 120.838H6.48944V126.793H12.9789V120.838Z" fill="#12D0A0"/>
<path d="M84.3787 114.883H77.8892V120.838H84.3787V114.883Z" fill="#58AE8C"/>
<path d="M77.8892 114.883H71.3997V120.838H77.8892V114.883Z" fill="#58AE8C"/>
<path d="M71.3998 114.883H64.9103V120.838H71.3998V114.883Z" fill="#58AE8C"/>
<path d="M64.9102 114.883H58.4207V120.838H64.9102V114.883Z" fill="#58AE8C"/>
<path d="M58.4208 114.883H51.9313V120.838H58.4208V114.883Z" fill="#58AE8C"/>
<path d="M51.9313 114.883H45.4418V120.838H51.9313V114.883Z" fill="#FFA12E"/>
<path d="M45.4264 114.883H38.9369V120.838H45.4264V114.883Z" fill="#FCBC3C"/>
<path d="M38.9369 114.883H32.4474V120.838H38.9369V114.883Z" fill="#12D0A0"/>
<path d="M32.4474 114.883H25.9579V120.838H32.4474V114.883Z" fill="#12D0A0"/>
<path d="M25.9579 114.883H19.4684V120.838H25.9579V114.883Z" fill="#12D0A0"/>
<path d="M19.4684 114.883H12.9789V120.838H19.4684V114.883Z" fill="#46F0C5"/>
<path d="M12.9789 114.883H6.48944V120.838H12.9789V114.883Z" fill="#12D0A0"/>
<path d="M84.3787 108.928H77.8892V114.883H84.3787V108.928Z" fill="#58AE8C"/>
<path d="M77.8892 108.928H71.3997V114.883H77.8892V108.928Z" fill="#58AE8C"/>
<path d="M71.3998 108.928H64.9103V114.883H71.3998V108.928Z" fill="#58AE8C"/>
<path d="M64.9102 108.928H58.4207V114.883H64.9102V108.928Z" fill="#58AE8C"/>
<path d="M58.4208 108.928H51.9313V114.883H58.4208V108.928Z" fill="#58AE8C"/>
<path d="M51.9313 108.928H45.4418V114.883H51.9313V108.928Z" fill="#FFA12E"/>
<path d="M45.4264 108.928H38.9369V114.883H45.4264V108.928Z" fill="#FCBC3C"/>
<path d="M38.9369 108.928H32.4474V114.883H38.9369V108.928Z" fill="#12D0A0"/>
<path d="M32.4474 108.928H25.9579V114.883H32.4474V108.928Z" fill="#12D0A0"/>
<path d="M25.9579 108.928H19.4684V114.883H25.9579V108.928Z" fill="#12D0A0"/>
<path d="M19.4684 108.928H12.9789V114.883H19.4684V108.928Z" fill="#46F0C5"/>
<path d="M12.9789 108.928H6.48944V114.883H12.9789V108.928Z" fill="#12D0A0"/>
<path d="M84.3787 102.959H77.8892V108.914H84.3787V102.959Z" fill="#58AE8C"/>
<path d="M77.8892 102.959H71.3997V108.914H77.8892V102.959Z" fill="#58AE8C"/>
<path d="M71.3998 102.959H64.9103V108.914H71.3998V102.959Z" fill="#58AE8C"/>
<path d="M64.9102 102.959H58.4207V108.914H64.9102V102.959Z" fill="#58AE8C"/>
<path d="M58.4208 102.959H51.9313V108.914H58.4208V102.959Z" fill="#58AE8C"/>
<path d="M51.9313 102.959H45.4418V108.914H51.9313V102.959Z" fill="#FFA12E"/>
<path d="M45.4264 102.959H38.9369V108.914H45.4264V102.959Z" fill="#FCBC3C"/>
<path d="M38.9369 102.959H32.4474V108.914H38.9369V102.959Z" fill="#12D0A0"/>
<path d="M32.4474 102.959H25.9579V108.914H32.4474V102.959Z" fill="#12D0A0"/>
<path d="M25.9579 102.959H19.4684V108.914H25.9579V102.959Z" fill="#12D0A0"/>
<path d="M19.4684 102.959H12.9789V108.914H19.4684V102.959Z" fill="#46F0C5"/>
<path d="M12.9789 102.959H6.48944V108.914H12.9789V102.959Z" fill="#12D0A0"/>
<path d="M84.3787 97.0043H77.8892V102.959H84.3787V97.0043Z" fill="#58AE8C"/>
<path d="M77.8892 97.0043H71.3997V102.959H77.8892V97.0043Z" fill="#58AE8C"/>
<path d="M71.3998 97.0043H64.9103V102.959H71.3998V97.0043Z" fill="#58AE8C"/>
<path d="M64.9102 97.0043H58.4207V102.959H64.9102V97.0043Z" fill="#58AE8C"/>
<path d="M58.4208 97.0043H51.9313V102.959H58.4208V97.0043Z" fill="#58AE8C"/>
<path d="M51.9313 97.0043H45.4418V102.959H51.9313V97.0043Z" fill="#FFA12E"/>
<path d="M45.4264 97.0043H38.9369V102.959H45.4264V97.0043Z" fill="#FCBC3C"/>
<path d="M38.9369 97.0043H32.4474V102.959H38.9369V97.0043Z" fill="#12D0A0"/>
<path d="M32.4474 97.0043H25.9579V102.959H32.4474V97.0043Z" fill="#12D0A0"/>
<path d="M25.9579 97.0043H19.4684V102.959H25.9579V97.0043Z" fill="#12D0A0"/>
<path d="M19.4684 97.0043H12.9789V102.959H19.4684V97.0043Z" fill="#46F0C5"/>
<path d="M12.9789 97.0043H6.48944V102.959H12.9789V97.0043Z" fill="#12D0A0"/>
<path d="M84.3787 91.0494H77.8892V97.0044H84.3787V91.0494Z" fill="#58AE8C"/>
<path d="M77.8892 91.0494H71.3997V97.0044H77.8892V91.0494Z" fill="#58AE8C"/>
<path d="M71.3998 91.0494H64.9103V97.0044H71.3998V91.0494Z" fill="#58AE8C"/>
<path d="M64.9102 91.0494H58.4207V97.0044H64.9102V91.0494Z" fill="#58AE8C"/>
<path d="M58.4208 91.0494H51.9313V97.0044H58.4208V91.0494Z" fill="#58AE8C"/>
<path d="M51.9313 91.0494H45.4418V97.0044H51.9313V91.0494Z" fill="#FFA12E"/>
<path d="M45.4264 91.0494H38.9369V97.0044H45.4264V91.0494Z" fill="#FFA12E"/>
<path d="M38.9369 91.0494H32.4474V97.0044H38.9369V91.0494Z" fill="#58AE8C"/>
<path d="M32.4474 91.0494H25.9579V97.0044H32.4474V91.0494Z" fill="#58AE8C"/>
<path d="M25.9579 91.0494H19.4684V97.0044H25.9579V91.0494Z" fill="#58AE8C"/>
<path d="M19.4684 91.0494H12.9789V97.0044H19.4684V91.0494Z" fill="#58AE8C"/>
<path d="M12.9789 91.0494H6.48944V97.0044H12.9789V91.0494Z" fill="#58AE8C"/>
<path d="M90.8682 85.0946H84.3788V91.0495H90.8682V85.0946Z" fill="#2A1620"/>
<path d="M84.3787 85.0946H77.8892V91.0495H84.3787V85.0946Z" fill="#2A1620"/>
<path d="M77.8892 85.0946H71.3997V91.0495H77.8892V85.0946Z" fill="#2A1620"/>
<path d="M71.3998 85.0946H64.9103V91.0495H71.3998V85.0946Z" fill="#2A1620"/>
<path d="M64.9102 85.0946H58.4207V91.0495H64.9102V85.0946Z" fill="#2A1620"/>
<path d="M58.4208 85.0946H51.9313V91.0495H58.4208V85.0946Z" fill="#2A1620"/>
<path d="M51.9313 85.0946H45.4418V91.0495H51.9313V85.0946Z" fill="#2A1620"/>
<path d="M45.4264 85.0946H38.9369V91.0495H45.4264V85.0946Z" fill="#2A1620"/>
<path d="M38.9369 85.0946H32.4474V91.0495H38.9369V85.0946Z" fill="#2A1620"/>
<path d="M32.4474 85.0946H25.9579V91.0495H32.4474V85.0946Z" fill="#2A1620"/>
<path d="M25.9579 85.0946H19.4684V91.0495H25.9579V85.0946Z" fill="#2A1620"/>
<path d="M19.4684 85.0946H12.9789V91.0495H19.4684V85.0946Z" fill="#2A1620"/>
<path d="M12.9789 85.0946H6.48944V91.0495H12.9789V85.0946Z" fill="#2A1620"/>
<path d="M6.48949 85.0946H0V91.0495H6.48949V85.0946Z" fill="#2A1620"/>
<path d="M90.8682 79.1395H84.3788V85.0944H90.8682V79.1395Z" fill="#4C323F"/>
<path d="M84.3787 79.1395H77.8892V85.0944H84.3787V79.1395Z" fill="#4C323F"/>
<path d="M77.8892 79.1395H71.3997V85.0944H77.8892V79.1395Z" fill="#4C323F"/>
<path d="M71.3998 79.1395H64.9103V85.0944H71.3998V79.1395Z" fill="#4C323F"/>
<path d="M64.9102 79.1395H58.4207V85.0944H64.9102V79.1395Z" fill="#4C323F"/>
<path d="M58.4208 79.1395H51.9313V85.0944H58.4208V79.1395Z" fill="#4C323F"/>
<path d="M51.9313 79.1395H45.4418V85.0944H51.9313V79.1395Z" fill="#4C323F"/>
<path d="M45.4264 79.1395H38.9369V85.0944H45.4264V79.1395Z" fill="#4C323F"/>
<path d="M38.9369 79.1395H32.4474V85.0944H38.9369V79.1395Z" fill="#4C323F"/>
<path d="M32.4474 79.1395H25.9579V85.0944H32.4474V79.1395Z" fill="#4C323F"/>
<path d="M25.9579 79.1395H19.4684V85.0944H25.9579V79.1395Z" fill="#4C323F"/>
<path d="M19.4684 79.1395H12.9789V85.0944H19.4684V79.1395Z" fill="#4C323F"/>
<path d="M12.9789 79.1395H6.48944V85.0944H12.9789V79.1395Z" fill="#4C323F"/>
<path d="M6.48949 79.1395H0V85.0944H6.48949V79.1395Z" fill="#4C323F"/>
<path d="M84.3787 73.1846H77.8892V79.1395H84.3787V73.1846Z" fill="#4C323F"/>
<path d="M90.8682 73.1846H84.3788V79.1395H90.8682V73.1846Z" fill="#4C323F"/>
<path d="M77.8892 73.1846H71.3997V79.1395H77.8892V73.1846Z" fill="#4C323F"/>
<path d="M71.3998 73.1846H64.9103V79.1395H71.3998V73.1846Z" fill="#4C323F"/>
<path d="M64.9102 73.1846H58.4207V79.1395H64.9102V73.1846Z" fill="#4C323F"/>
<path d="M58.4208 73.1846H51.9313V79.1395H58.4208V73.1846Z" fill="#4C323F"/>
<path d="M51.9313 73.1846H45.4418V79.1395H51.9313V73.1846Z" fill="#4C323F"/>
<path d="M45.4264 73.1846H38.9369V79.1395H45.4264V73.1846Z" fill="#4C323F"/>
<path d="M38.9369 73.1846H32.4474V79.1395H38.9369V73.1846Z" fill="#4C323F"/>
<path d="M32.4474 73.1846H25.9579V79.1395H32.4474V73.1846Z" fill="#4C323F"/>
<path d="M25.9579 73.1846H19.4684V79.1395H25.9579V73.1846Z" fill="#4C323F"/>
<path d="M19.4684 73.1846H12.9789V79.1395H19.4684V73.1846Z" fill="#4C323F"/>
<path d="M12.9789 73.1846H6.48944V79.1395H12.9789V73.1846Z" fill="#4C323F"/>
<path d="M6.48949 73.1846H0V79.1395H6.48949V73.1846Z" fill="#4C323F"/>
<path d="M71.3998 67.2297H64.9103V73.1847H71.3998V67.2297Z" fill="#4C323F"/>
<path d="M64.9102 67.2297H58.4207V73.1847H64.9102V67.2297Z" fill="#4C323F"/>
<path d="M58.4208 67.2297H51.9313V73.1847H58.4208V67.2297Z" fill="#4C323F"/>
<path d="M51.9313 67.2297H45.4418V73.1847H51.9313V67.2297Z" fill="#4C323F"/>
<path d="M45.4264 67.2297H38.9369V73.1847H45.4264V67.2297Z" fill="#4C323F"/>
<path d="M38.9369 67.2297H32.4474V73.1847H38.9369V67.2297Z" fill="#4C323F"/>
<path d="M32.4474 67.2297H25.9579V73.1847H32.4474V67.2297Z" fill="#4C323F"/>
<path d="M25.9579 67.2297H19.4684V73.1847H25.9579V67.2297Z" fill="#4C323F"/>
</svg>
