<svg xmlns="http://www.w3.org/2000/svg" viewBox="0 0 223.04 228.53"><defs><style>.cls-1{fill:#dbdbdb;}.cls-2{fill:#d8be66;}.cls-3{fill:#a1a1a1;}.cls-4{fill:#12cf9f;}.cls-5{fill:#4c323f;}.cls-6{fill:#fbd286;}.cls-7{fill:#af7128;}.cls-8{fill:#d58d3a;}.cls-9{fill:#2a1620;}.cls-10{fill:#925a18;}.cls-11{fill:#a2a2a2;}.cls-12{fill:#58ad8b;}.cls-13{fill:#57ad8b;}.cls-14{fill:#19cf9f;}.cls-15{fill:#ad5a44;}.cls-16{fill:#ae5c47;}.cls-17{fill:#ad5b46;}.cls-18{fill:#9a4932;}.cls-19{fill:#f6dfb1;}.cls-20{fill:#994831;}.cls-21{fill:#97611d;}.cls-22{fill:#d4382b;}.cls-23{fill:#ef5740;}.cls-24{fill:#fbbb3c;}.cls-25{fill:#45efc4;}.cls-26{fill:#7caa77;}.cls-27{fill:#5bad8a;}.cls-28{fill:#5a3923;}.cls-29{fill:#9b4a34;}</style></defs><g id="Layer_2" data-name="Layer 2"><g id="Capa_1" data-name="Capa 1"><path class="cls-1" d="M77.18,117.21l23.81.06c1.22,1.3,1,2.92,1,4.46q0,39.75,0,79.52c0,1.54.11,3.14-.92,4.51-1.41,1.09-3.12,1-4.78,1q-19.12,0-38.25,0a8.31,8.31,0,0,1-4.5-.81,4.72,4.72,0,0,1-.23-5.74c3.35-1.73,7-.84,10.5-.92,6.48-.15,6.49,0,6.49-6.1V133.68c0-3.17-.32-6.38,4.35-7.2,1.54-.27,1.25-2,1.37-3.15C76.27,121.27,75.6,119.06,77.18,117.21Z"/><path class="cls-1" d="M130.89,117.26c8.47,0,16.94.09,25.4-.15,3.31-.1,4.63.82,4.11,3.9a9.34,9.34,0,0,0,0,1.67c1.3,1.27,1.11,2.89,1.11,4.42q0,37.08,0,74.15c0,1.55.11,3.14-.92,4.52-1.3,1-2.88,1-4.41,1q-16.59.06-33.18,0a8,8,0,0,1-4.14-.75c-2-3.72-1.51-5.41,2.31-6.68,2.14-.71,2.18-2.12,2.19-3.69,0-6,0-12.06,0-18.08,0-1.56-.15-3.14.71-4.58,2.12-1.78,4.74-.88,7.15-1.17,1.61-.19,4,.63,4.11-1.93s-2.34-2-4-2c-3-.12-5.93,0-8.9-.05a6.74,6.74,0,0,1-3.77-.77c-1.28-1.66-1.12-3.42-.41-5.22a2.34,2.34,0,0,1,.86-.79c4,.23,4.23-2.92,5.39-5.25,4.78-1.29,5.63-1,7.57,3.09.38.79.8,1.39,1.78,1.36,1.24,0,1.5-.9,1.66-1.83.43-2.6-.68-5.39,1.11-7.82,5-1.69,6.78-.57,6.82,4.32,0,1.62-.44,3.29.43,4.83a2.4,2.4,0,0,0,3.44.12c.64-2.41,1.19-4.83,4.67-4.94.93,0,1.31-.89,1.41-1.71a28.87,28.87,0,0,0,0-5.34,2.09,2.09,0,0,0-2.27-2.1c-5.94-.21-11.89-.24-17.83,0-.32,0-.6.34-.85.58-.89,1.17-.41,2.8-1.47,3.91-2.32.88-4.64,2-6.91-.09-.82-1.48-.65-3.08-.65-4.66,0-.4,0-.81,0-1.21,0-1.81-.39-3.71,1.07-5.28,1.52-.87,3.22-.74,4.87-.72,6.56.08,13.12,0,19.67.07,4,.05,4.59-.51,4.5-4.21-.12-4.84-.51-5.24-5.82-5.28-6.2-.05-12.4,0-18.6,0-1.54,0-3.12.2-4.55-.58-2.12-3.91-1.47-5.72,3-6.68C130.39,121,129.52,118.5,130.89,117.26Z"/><path class="cls-2" d="M166.05,122.76c1.2,1,.41,2.31.63,3.46.13.65.16,1.85.33,1.87,3.72.32,3.17,2.94,3.5,5.25.15,1.09,1.58.77,2.47.78,2.35,0,3.21.9,3.2,3.25q-.13,41.38,0,82.79c0,2.39-.79,3-3.26,3-17.44-.09-34.88,0-52.32-.09-2.63,0-4.51.14-3.94,3.29.4,2.22-1.21,2.19-2.89,2.2s-3.25,0-2.87-2.22c.5-2.79-.92-3.29-3.61-3.27-15.53.1-31.06,0-46.58.1-2.59,0-3.7-.5-3.49-3.12s.9-5.71-.38-7.53c-1.46-2.09-5.1-.42-7.74-.85a4.2,4.2,0,0,1-1.16-.58c2-1.56,4.34-1.21,6.52-1,13.35,1.2,26.72.32,40.07.6a19.6,19.6,0,0,1,5.67.44c1.44.58,1.47,1.87,1.69,3s.72,1.88,2,1.88a2.15,2.15,0,0,0,2.28-1.69c.32-1.14.25-2.47,1.61-3.16,1.84-.68,3.77-.5,5.66-.5q22.87,0,45.75,0c5.52,0,5.52,0,5.82-5.1-.23-21.31,0-42.63-.1-64,0-4.8,0-9.6,0-14.4C165,125.66,164.78,124,166.05,122.76Z"/><path class="cls-1" d="M211.93,74.2v1.51c-.29,2.53-1.51,5.14,1.57,7.15,1.1.72.68,2.28.3,3.48-.87,2.78-1.61,5.59-2.33,8.41-.6,2.35-1.57,3.62-4.46,4.71s-7.38,2-7.89,6.47c-.28,2.47-2.17,3.31-4.72,2.48-2.28-.75-4.37-1.13-5.89,1.3a2.1,2.1,0,0,1-2.27.67c-6.38-1.66-13.11-2.25-19-5.31a3.2,3.2,0,0,1,.62-4.07c1.23-.81,2.51-.47,3.78-.12,2.63.73,5.32,1.27,8,2a7,7,0,0,0,6.33-1.09,81.56,81.56,0,0,1,7.6-4.21c3.6-1.76,7.84-3,8.82-8.4,1.59-8.67,3.34-7.4-6.26-9.8-5.07-1.27-10.12-2.6-15.22-3.78-1.72-.39-3.52-.72-4.86-2-.85-1.32-.18-2.59.17-3.87,4.41-15.76,9-31.49,13.54-47.21.73-2.51.16-3.66-2.6-4.3s-5.7-.83-7.92-2.8c.61-2.05,1.75-3.89-1.87-5-1.92-.6-.28-3,.2-4.52,4.66.37,9,2,13.47,3.09,6.9,1.67,13.77,3.46,20.67,5.14a6,6,0,0,1,3.45,1.59c.9,2.43-.05,3.93-2.73,4.32a2.79,2.79,0,0,0-2.67,2.26c-1,4.26-2.61,8.34-3.74,12.55-.45,1.66-.57,3.06,1.49,3.88,1.63.64,1.26,1.95,1,3.16-.79,3.15-1.77,6.24-2.68,9.36-.42,1.43-.75,2.9.92,3.89,1.9,1.12,1.82,2.69,1.24,4.41-.51,1.48-.85,3-1.3,4.52-.51,1.72-.71,3.3,1.33,4.34.53.27,1,.78,1,1.33C208.6,72,210.54,72.92,211.93,74.2Z"/><path class="cls-3" d="M77.18,117.21c0,2.79,0,5.57.1,8.36.06,1.65-.51,2.65-2.42,2.37-3.13-.46-3.42,1.13-3.41,3.5.07,21.73,0,43.46.11,65.19,0,2.88-.66,3.94-3.92,3.76-4.63-.27-9.29,0-13.94,0-1.47-1.18-1.28-2.82-1.28-4.35q-.06-34.65,0-69.31c0-1.45-.05-2.93,1.1-4.12.19-5.43.19-5.43,6.24-5.42C65.57,117.16,71.37,117.19,77.18,117.21Z"/><path class="cls-3" d="M179.16,15.4c3.33.82,6.61,1.88,10,2.38,2.52.36,2.5,1.51,2,3.2q-5.67,19.6-11.34,39.23c-1.27,4.39-2.48,8.8-3.71,13.2l-.41.32c-5.16-.27-9.95-2.08-14.89-3.25-11.26-2.67-8.65-3.26-11.8,6.45-.79,2.42-1.3,4.45,1.17,6.91,1.36,1.35,2.44,3.73,3.74,5.59.07,1.45,0,2.93,1.91,3.56.81.26,1.6.91,1.33,1.75-.88,2.76,1.4,2.67,3.08,3.37,2.64,1.09,6,.39,8,3a7,7,0,0,0-.8,3.89,3.69,3.69,0,0,1-3.08.09c-4.53-1.43-9.47-1.66-13.69-4-1.85-1.13-5.56-.84-4-4.61.1-.22-.42-1-.72-1-4.08-.54-2.43-2.91-1.81-4.91s1.31-3.43-1.75-4.92c-1.51-.74-1.68-4.48-4.14-5.93,1.29-4.5,2.57-9,3.89-13.51.16-.53.52-1.11,1.26-.83,4.23,1.53,3.88-1.86,4.54-3.85s.64-3.68,3.79-2.69c2.85.9,1.07-3.35,3.29-3.17,1.87.16,3.67,1.31,4.13-1.72a51.67,51.67,0,0,1,2.09-7.4c.3-1,.73-2.13,2.17-1.53,2.68,1.11,3-.58,3.43-2.29.94-3.45,1.93-6.89,2.91-10.33.37-1.28.55-2.7,2.75-1.87,1.73.65,2.5-.27,2.92-1.89C176.59,24.19,177.91,19.81,179.16,15.4Z"/><path class="cls-4" d="M27.05,93.7c-5,1.23-5.09,1.24-6.13-3.55q-5.85-27-11.64-54.06A4.71,4.71,0,0,1,15,35.17c1.61,2.69,1.63,5.77,2.33,8.68,1.24,5.21,2.24,10.47,3.43,15.7C21,60.86,20.94,63,23,62.7c2.21-.34,1.22-2.33,1-3.63-1.4-6.89-2.94-13.76-4.37-20.64-.32-1.5-.93-3,.09-4.54a42.73,42.73,0,0,1,15.23-3.06c1.59.62,1.69,2.06,2,3.33,3.34,14.13,6.21,28.35,9.22,42.54.7,3.35.07,4.07-3.51,4.92-1,.24-2.1.4-3.14.62-1.4.3-2.47.84-2.37,2.42.16,2.42-1.5,3.31-3.66,3.76a8.35,8.35,0,0,1-1.39.28c-3.09.17-4.85,1.5-4.62,4.58Z"/><path class="cls-2" d="M74.31,9.26c8.51-2,8.51-2,10.1,6.06a23.68,23.68,0,0,0,.73,3.26c.89,2.45,1,4.25-2.66,4.41-1.91.09-1.5,1.44-1.2,2.76,2.84,13,5.61,25.93,8.4,38.9C91.11,71.3,92.42,78,94,84.59c.47,2-.05,2.86-2,3-2.22.13-3,.8-2.14,2.9s-.51,2.87-2.41,3.05-2.49.78-1.83,2.58,0,2.89-2.42,3.32C71.16,101.62,59.06,104,47,106.35c-1,.18-2.57.5-2.57-.92,0-3.56-2.11-3.57-4.87-3-.35.08-.81-.33-1.22-.51,1-1.39,2.62-1.41,4.1-1.74,9.52-2.08,19.14-3.74,28.74-5.48,2.74-.49,4.14-1.48,3.43-4.21a2.34,2.34,0,0,1,.35-.92c3.29-.79,4.54-2.85,4.2-5.91A2.24,2.24,0,0,1,80,83c3.32-.56,3.24-2.58,2.7-5C78.78,60.08,74.79,42.17,71,24.23a13,13,0,0,1-.56-4.63,1.73,1.73,0,0,1,1.26-1.07c3.07-.57,3.31-2.36,2.37-4.68C73.78,12.3,72.94,10.73,74.31,9.26Z"/><path class="cls-5" d="M74.31,9.26,75,14a6,6,0,0,1-3.29,1.13c-21.5,4-42.92,8.3-64.44,12.17-1.7.3-3.45,1.09-5.2.1-.7-3-2.78-6.61-1.74-9,1.13-2.58,5.86-1.69,9-2.56A17.67,17.67,0,0,1,12,15.26c2.28-.24,3.92-.85,2.79-3.48C14.07,10,15,9.52,16.77,9.2c12.37-2.27,24.74-4.57,37.08-7,1.95-.38,2.6,0,2.71,1.77.14,2.34,1.3,2.82,3.75,2.13,3.06-.86,6.38-.93,9.41-1.85s3.53.33,3.84,2.5C73.68,7.61,73.58,8.55,74.31,9.26Z"/><path class="cls-2" d="M150.69,101.06c5.75.73,11.17,2.67,16.77,3.94l17.88,4.41c1,.25,2.46,1,2.77-.3.85-3.47,3.18-2.77,5.4-1.84,3.28,1.39,4.63.31,5.21-2.76.38-2,.28-4.2,4.2-3.78,1.46.16,3.56-3.31,6.63-3a11.75,11.75,0,0,0,.42-1.54c1-3.42,1.91-6.87,3-10.27.59-1.83.87-3.33-1.8-3.69a1.29,1.29,0,0,1-1.14-2c.64-1.52.6-3.29,1.9-4.57,0,1.25,1.19,1.17,2,1.52s2,.47,1.61,1.44c-.78,2.31-.1,3.47,2.49,3.91,1.14.19.64,1.25.44,2-.38,1.4-.81,2.79-1.21,4.19-.26.9-.52,2,.82,2.15,3.21.44,2.53,2.19,1.9,4.16-.89,2.77-1.58,5.6-2.38,8.4-.24.86-.54,2.46-.78,2.46-3.44-.07-4.88,3.76-8.07,3.63-1.4-.05-2,.16-2.32,1.26a19.11,19.11,0,0,0-.84,2.9c-.35,2.65-1.69,3.32-4.4,2.47-2.26-.72-5.09-2.46-6,1.75-.21,1-1.6.52-2.52.29l-37.24-9.43c-.46-.11-.91-.26-1.37-.39C155.56,104.88,150.38,104.09,150.69,101.06Z"/><path class="cls-6" d="M101,205.62V117.27l6.27,0c1.6,1.64,1.06,3.66,1.12,5.58.22,26.59.09,53.17.07,79.76a7.44,7.44,0,0,1-.25,2,3.22,3.22,0,0,1-.57,1.14c-1.75,1.2-3.69.9-5.63.62A2.15,2.15,0,0,1,101,205.62Z"/><path class="cls-2" d="M211.93,74.2c-1.87-.77-5.38-.17-3.65-3.93.33-.72-.22-1.21-1.06-1.39-2.62-.54-2.62-2-1.8-4,.58-1.43.61-3.05,1.15-4.5.79-2.12,2.13-4.11-1.62-5.06-1.49-.38-.82-1.88-.53-2.91,1-3.62,2.05-7.24,3.2-10.83.45-1.43.3-2.31-1.43-2.58s-2.12-1.07-1.56-2.8c1.66-5.18,3.05-10.45,4.51-15.69.27-1,.58-1.7,1.9-1.35,3.06.79,3.75-.88,3.78-3.22-.27-.74.12-1.14.81-1.38,1.15.27,2.31.51,3.45.82.73.2,1.46.67,1,1.43-1.57,2.36-.45,3.34,2,3.76.42.08,1.11.07,1,.64-.38,1.62-1.06,3.18-1.3,4.81-.34,2.25-2,2.08-3.64,2-1.14-.05-1.54.38-1.84,1.48-1.42,5.33-2.93,10.64-4.64,15.9-.52,1.61.14,2,1.46,2.26,2.11.43,2.21,1.38,1.51,3.22-1.25,3.3-2,6.76-3,10.14-.43,1.48-.69,3.12,1.32,3.54,2.38.5,2.05,1.61,1.38,3.12C213.33,69.79,213.28,72.2,211.93,74.2Z"/><path class="cls-7" d="M166.05,122.76q0,41.46.08,82.91a4.7,4.7,0,0,1-5.76,0q0-41.49,0-83Z"/><path class="cls-8" d="M53.52,122.58,53.58,196c0,1.44.08,2.89.12,4.33l-.09,5.28a4.64,4.64,0,0,1-5.68.08q-.07-25.92-.14-51.86c0-8.59,0-17.18,0-25.77C47.79,122.59,47.79,122.59,53.52,122.58Z"/><path class="cls-9" d="M2,27.35l42.54-8.06c8.72-1.66,17.44-3.3,26.14-5A22.63,22.63,0,0,1,75,14c1.27,4.22,1.27,4.22-4.09,5.47-1.07,1.26-2.66,1.37-4.16,1.65-7.45,1.4-14.9,2.79-22.34,4.22-3.41.77-6.88,1.31-10.3,2.06C27,28.58,19.91,30,12.83,31.3c-1.49.27-3,.75-4.53.13a7.27,7.27,0,0,0-1,0C2.59,32.06,2.59,32.06,2,27.35Z"/><path class="cls-10" d="M47.93,205.72l5.68-.07,47.38,0,.53.21a1,1,0,0,1,.36.8c-.36,1.65.15,3.3-.1,5a.56.56,0,0,1-.81.11c-8.19,0-16.39-.24-24.58-.07-9.5.2-19-.62-28.45-.56C47.94,209.28,47.93,207.5,47.93,205.72Z"/><path class="cls-11" d="M215.63,14.55l-.81,1.38q-17.12-4.35-34.22-8.67c-1.16-.29-2.32-.46-3.1-1.42.39-1.64.18-3.86,3.29-2.73A1.51,1.51,0,0,0,183,2c.45-2.52,2-2.07,3.93-1.56,7.79,2.06,15.62,4,23.43,5.95.58.14,1.16.26,1.74.39C210.77,10.33,216.24,11.22,215.63,14.55Z"/><path class="cls-12" d="M75.09,89.66a4.49,4.49,0,0,0,.21,1c1.23,2.75,1,4.15-2.86,4.79C61,97.3,49.67,99.72,38.29,101.92c-2,.36-4.25,1.27-4.44-2.08-.09-1.58-1.78-1.49-3-1.73.31-1.36,1.6-1.26,2.62-1.57C46,94.57,58.46,92,71,89.69,72.32,89.44,73.71,88.77,75.09,89.66Z"/><path class="cls-3" d="M107.33,122.56c0-1.78,0-3.55-.07-5.32l23.63,0c0,1.22,0,2.45.05,3.67s-.6,1.78-1.74,1.57c-5.28-1-4.76,2.29-4.58,5.35-1.63,1.51-3.72.79-5.62,1-3.33.11-6.63.42-7.33-4C111.37,122.93,108.5,123.83,107.33,122.56Z"/><path class="cls-13" d="M8.3,31.43c8.53-2,17.18-3.54,25.85-5,1.46,1.42,2,3,.92,4.82L19.84,34.13c-1.4,1.42-3.16,1.58-5.05,1.25s-3.66.56-5.51.71Z"/><path class="cls-14" d="M32.85,97c-.35.89-1.5.51-2,1.12-1.65.55-2.95.58-3.11-1.57a19.17,19.17,0,0,0-.67-2.84l0,0c1.64-1.4,3.59-2.12,5.51-.87C34.12,93.89,34,95.52,32.85,97Z"/><path class="cls-10" d="M160.37,205.67h5.76c.27,5.91.27,5.9-6,5.91l-52.84.1c-.77.06-.82-.46-.9-1,.25-1.61-.43-3.4,1-4.78l-.1-.31c1.75-1.25,3.79-.91,5.77-.92s4-.34,5.77.93Z"/><path class="cls-3" d="M118.83,205.64H113c-1.15-1.17-1.11-2.65-1.11-4.08q-.06-12.48,0-25a6.09,6.09,0,0,1,.89-3.84,14.9,14.9,0,0,1,11.77.1c0,8.22,0,16.44,0,24.66,0,1.12.44,2.95-1.56,2.7C117.71,199.54,118.83,202.91,118.83,205.64Z"/><path class="cls-15" d="M118.8,128l5.82-.11c8.69.06,17.38.23,26.07.15,2.8,0,4,.51,3.94,3.46-.12,7.84,0,7.81-8.28,7.82-7.26,0-14.52.07-21.78.11a5.47,5.47,0,0,1-6,0C117.26,135.57,117,131.74,118.8,128Z"/><path class="cls-15" d="M124.54,144.64l0,.69a2.88,2.88,0,0,0-.27.22c-1.08,1.06-4,0-3.63,2.66.35,2.25,2.78,1,4,1.77,2.07.93,4.14.18,6.22,0a9,9,0,0,1,5.42.32l.39.38c0,3-.07,6,0,9,0,1.7-1.08,1.86-2.32,1.64s-3.62.92-3.39-1.19c.59-5.31-3-4.34-6.25-4.08-3.22.44-4.44,2.64-5.25,5.2l-.35.08-.35,0-.48-.46c-.95-5.47-1.29-10.92.26-16.35A5.3,5.3,0,0,1,124.54,144.64Z"/><path class="cls-16" d="M124.59,172.86l-11.4-.14c-1.75-1.95-1.42-4-.29-6.08a5.39,5.39,0,0,1,5.93.12c5.08,0,10.18.24,15.25.05,2.81-.1,2.63,1.33,2.69,3.09s-.16,2.95-2.62,2.83C131,172.59,127.78,172.8,124.59,172.86Z"/><path class="cls-17" d="M131,145.34c.46-1,1.41-.66,2.17-.66,6.21,0,12.41.09,18.61,0,2.24,0,3,.69,2.79,2.7a22.48,22.48,0,0,0,0,4.34c.26,2.75.07,5-3.93,4.31-1.65-.27-1.9.78-2,2.06,0,1.06.53,2.24-.53,3.16-1.5-1,0-3.87-2.35-4-2.74-.11-1,3-2.62,4-1.5-1.76-.59-3.79-.61-5.68-.06-5.36,0-5.37-5.86-4.9l-.1-.13c.76-1.8,2.48-1.36,3.93-1.44s2.83.38,4.26.36c1.25,0,2.54-.28,2.57-1.71s-1.32-1.4-2.35-1.44c-3.21-.12-6.42,0-9.63-.06C133.88,146.27,132.29,146.43,131,145.34Z"/><path class="cls-18" d="M131,145.34h14.6c1.68,0,3.47-.27,3.31,2.22-.15,2.21-1.38,3.31-3.66,3.11-2.45-.23-4.86-1-7.37-.61a5.28,5.28,0,0,0-1.26.53c-1.94.14-3.9.41-5.71-.57Z"/><path class="cls-15" d="M148.74,172.68c-1,0-1.91-.08-2.85,0-2.32.22-3.43-.4-3.42-2.89s.81-3.17,3.28-3a31,31,0,0,0,5.7,0c2.59-.25,3.18.78,3.18,3s-.68,3.09-3,2.81A24.62,24.62,0,0,0,148.74,172.68Z"/><path class="cls-19" d="M124.54,144.64l-5.66.12a3.9,3.9,0,0,1,0-5.58l5.68.21Z"/><path class="cls-3" d="M118.83,166.76l-5.66.12c-1.61-1.77-1.7-3.83-.13-5.4s3.86-1.31,5.82-.06l0-.06Z"/><path class="cls-20" d="M119.53,161.32V161c0-5,0-5,5.25-4.87,0,.23,0,.45,0,.67C124.65,161.56,124.65,161.56,119.53,161.32Z"/><path class="cls-20" d="M143.2,161.29c0-.87.05-1.75,0-2.63-.13-1.68.3-2.65,2.46-2.65s2.68.84,2.52,2.59c-.07.87,0,1.75,0,2.63Z"/><path class="cls-18" d="M124.7,150c-1.42.65-2.92,1.2-4.36.27-1.26-.82-1-2.28-.74-3.38.73-2.79,3.29-1.05,5-1.54Z"/><path class="cls-21" d="M106.59,211.21l.66.47a26,26,0,0,0,0,2.65c.28,2.66-1.52,2.67-3.6,2.76-2.29.1-2.94-.82-2.73-2.75a23.4,23.4,0,0,0,0-2.65h.69c1.36-1.05,3-.87,4.54-.8Z"/><path class="cls-22" d="M168.26,101.11l-9.81-2.65c-.56-.15-1.14-.27-1.69-.45-2.63-.86,1.65-3.88-1.45-4.39s-2.54-2.14-1.9-4c.77-1.58,2.16-1,3.39-.8,1.86.31,3.68.79,5.52,1.23,1.59.39,3,.52,3.93-1.18a1.78,1.78,0,0,1,1.66-1.09c3.52.45,3.68-2,4.23-4.13.63-2.48,1.5-4.89,2.16-7.36.29-1.06.5-2.21,1.88-2.61l-.07-.28c8.84,2.24,17.65,4.59,26.55,6.64,2.48.57,2.67,1.51,2.06,3.44-1.07,3.42-2,6.88-3,10.32-.18.64-.42,1.28-.63,1.91-3.9-1.88-4.51,4.08-8.09,3-.23-.07-.46-.12-.69-.18-.6,3.71-5.85,2-6.85,5.07-.56,1.69-1.51,1.26-2.73,1C177.94,103.37,173.09,102.25,168.26,101.11Z"/><path class="cls-23" d="M176.18,73.69c-1.26,4.27-2.48,8.54-3.78,12.79-.45,1.48-.81,3.22-3.3,2-.7-.32-1.93-.34-2.06.66-.44,3.38-2.71,2.18-4.74,1.85-3-.48-5.72-2.1-8.89-1.39-.33-1.29-2.3-1-2.43-1.47-.77-2.65-3.95-4.84-3.86-6.81.18-4.33,2.12-8.6,3.37-12.89.35-1.22,1.47-1.06,2.35-.84C160.63,69.61,168.4,71.66,176.18,73.69Z"/><path class="cls-24" d="M32.85,97c-.12-4.24-.12-4.24-5.82-3.27a14.25,14.25,0,0,0-.43-2.29c-.73-2,0-2.92,2.21-3.1,1.42-.12,2.81-.5,4.21-.72,2.3-.37,4.2-.89,2.85-3.75-.6-1.27-.06-2.18,1.59-2.22a1.39,1.39,0,0,0,.35,0c2.53-.84,6.34,0,7.47-2.11.95-1.75-.52-4.69-1.06-7.07-3.09-13.7-5.57-27.53-9.15-41.13-.31-1.61-.61-3.21-.92-4.82l10.36-2c2,.9,1.8,2.78,2.13,4.33q4.77,22.34,9.72,44.62C57.14,77,57.13,77,61,76.26c2-.37,4-.72,6-1.12,2.71-.53,5.25-.78,6.64,2.22.42.9,1.4,1.06,2.38,1.25,3.57.67,4.12,1.55,3.33,5l0,0A6.74,6.74,0,0,0,75,89.7l0,0Q55,93.55,34.83,97.45A3.21,3.21,0,0,1,32.85,97Z"/><path class="cls-25" d="M14.79,35.38c1.5-1.05,3.41-.69,5.05-1.25,1.84,8.79,3.66,17.58,5.56,26.36.39,1.77.23,3.08-1.91,3.6-1.89.47-2.94-.23-3.28-2C18.51,53.17,16,44.39,14.79,35.38Z"/><path class="cls-26" d="M79.34,83.65a9.82,9.82,0,0,1-.6-2.26c0-2.11-1.21-2.31-3-1.8s-3-.13-3.18-2c-.23-2.25-1.8-2.25-3.58-1.91-3.14.62-6.29,1.18-9.4,1.9-2.45.56-3.43,0-4-2.52C52,58.2,48.22,41.36,44.51,24.5l26.36-5.08c2.6,11.74,5.22,23.47,7.78,35.21,1.76,8,3.43,16.1,5.13,24.16C84.75,83.36,84.57,83.54,79.34,83.65Z"/><path class="cls-27" d="M75,89.7a3.63,3.63,0,0,0-.1-1.29c-1.15-2.43-.83-4,2.45-4.2a9.3,9.3,0,0,0,2-.59,1.82,1.82,0,0,0,0,.33C80.37,88.88,80.37,88.88,75,89.7Z"/><path class="cls-1" d="M118.86,161.42h-.35c-5.62,0-5.62,0-5.34,5.46,0,2,0,3.89,0,5.84L113,205.64h-5.75q0-41.53,0-83.07c1.3,0,2.6,0,3.9,0,.88,0,1.92.23,1.74,1.19-1,5,2.71,4.24,5.83,4.21l.09,11.22c0,1.86,0,3.72,0,5.58Q118.87,153.09,118.86,161.42Z"/><path class="cls-28" d="M107.39,205.94c-.38,1.74.67,3.67-.8,5.27l0-.2c-.68-2.54-2.63-3.88-5.1-4.73a2.26,2.26,0,0,0,0-.45A20.56,20.56,0,0,1,107.39,205.94Z"/><path class="cls-9" d="M101.52,206.28c5.12.2,5.12.2,5.1,4.73-1.53,1-3.27.69-5,.67A4.85,4.85,0,0,1,101.52,206.28Z"/><path class="cls-29" d="M148.91,138.61a2,2,0,0,1-.7-2.11c.17-1.81-.49-2.68-2.59-2.6-1.81.07-3.45,0-3.16,2.39.25,2-1,2.42-2.81,2.38s-3.19-.12-2.92-2.26-1.1-2.54-3-2.49c-3.68.08-7.38-.08-11.06.05-2.24.08-3.16-.51-3.18-2.78,0-2.45,1.27-2.65,3.32-2.63,7.38.07,14.76.16,22.13,0,3-.08,4.59.51,4,3.61a1.69,1.69,0,0,0,.7,1.79C150.59,135.66,150,137.17,148.91,138.61Z"/><path class="cls-18" d="M148.91,138.61a11.66,11.66,0,0,1,.72-4.67c4,0,5.24,1,4.2,3.49C152.86,139.76,150.56,138.21,148.91,138.61Z"/></g></g></svg>