<svg width="155" height="276" viewBox="0 0 155 276" fill="none" xmlns="http://www.w3.org/2000/svg">
<path d="M129.141 275.811H134.689C135.288 270.845 134.817 265.861 134.954 260.895C135.014 258.587 134.852 256.261 134.954 253.962C135.074 252.124 134.433 251.594 132.612 251.628C128.816 251.697 128.816 251.628 128.816 247.824C128.816 241.165 128.748 234.515 128.816 227.864C128.816 226.001 128.269 225.522 126.457 225.539C117.054 225.624 107.651 225.539 98.1879 225.633C95.9825 225.633 95.4268 225.035 95.4268 222.855C95.4952 191.158 95.4952 159.458 95.4268 127.755C95.4268 125.49 96.1278 124.908 98.2478 125.045C100.915 125.208 103.608 124.985 106.283 125.114C108.121 125.199 108.899 124.746 108.848 122.703C108.745 118.6 108.694 118.429 104.479 118.369C101.616 118.369 98.7521 118.258 95.9312 118.437C91.4262 118.335 86.9127 118.326 82.4078 118.437C79.168 118.266 75.9367 118.318 72.6969 118.395C69.7221 118.463 69.4486 118.813 69.4486 121.814V222.256C69.4486 225.915 69.8247 225.573 66.2259 225.573C57.0706 225.573 47.924 225.642 38.7687 225.53C36.7513 225.53 36.0504 225.958 36.0931 228.095C36.2384 235.028 36.0931 241.969 36.1957 248.901C36.1957 251.03 35.7341 252.039 33.4688 251.671C32.7422 251.56 31.9899 251.671 31.2548 251.671C29.9554 251.568 29.4511 252.056 29.4682 253.381C29.528 260.681 29.4682 267.99 29.528 275.29C29.528 275.461 29.6734 275.623 29.7588 275.794H35.9051C37.2984 273.914 36.6488 271.734 36.7599 269.674C36.8667 268.123 36.8667 266.566 36.7599 265.015C36.8539 257.946 36.0076 258.98 42.8035 258.835C45.0175 258.758 47.3085 259.365 49.4028 258.151C49.9107 257.11 50.1811 255.97 50.1944 254.813C50.2077 253.655 49.9636 252.509 49.4797 251.457C49.0606 251.093 48.565 250.827 48.0295 250.679C47.494 250.531 46.9322 250.505 46.3853 250.603C44.0174 250.739 43.3592 249.551 43.419 247.388C43.5045 244.345 43.513 241.285 43.419 238.242C43.5558 231.454 42.6069 232.352 49.6422 232.258C58.3785 232.383 67.1092 232.383 75.8341 232.258C89.2293 232.395 102.624 232.258 116.011 232.318C121.491 232.318 121.491 232.318 121.721 237.857C121.653 240.883 121.721 243.909 121.721 246.935C121.679 250.355 121.533 250.526 118.174 250.568C117.319 250.568 116.524 250.568 115.703 250.568C109.115 250.449 102.528 250.449 95.9397 250.568C90.3406 250.423 84.7415 250.517 79.1423 250.568C78.0372 250.452 76.9242 250.698 75.9709 251.269C74.6288 253.526 74.7998 255.826 75.7487 258.159C77.9199 259.51 80.322 258.817 82.63 258.92C95.8884 259.057 109.13 258.92 122.397 258.98C123.414 258.98 124.431 259.031 125.44 258.98C127.56 258.877 128.475 259.835 128.346 261.963C128.302 262.884 128.322 263.806 128.406 264.724C128.278 267.4 128.355 270.067 128.406 272.734C128.253 273.816 128.516 274.916 129.141 275.811Z" fill="#D9BF66"/>
<path d="M95.7945 119.198C99.2138 119.198 102.633 119.386 106.052 119.198C108.292 119.087 108.668 120.01 108.617 121.951C108.557 123.66 108.617 124.985 106.198 124.789C103.539 124.566 100.838 124.874 98.1709 124.695C95.8971 124.532 95.1619 125.225 95.1961 127.584C95.3243 137.286 95.2474 146.989 95.2474 156.691C95.2474 178.347 95.2474 199.974 95.2474 221.573C95.2474 226.59 94.555 225.847 99.7096 225.898C108.258 225.941 116.892 225.992 125.483 225.855C127.834 225.855 128.68 226.3 128.603 228.856C128.406 235.694 128.603 242.533 128.492 249.372C128.492 251.398 128.996 252.372 131.108 251.996C134.031 251.474 134.792 252.697 134.706 255.569C134.51 262.305 134.706 269.058 134.706 275.803H135.262C134.723 268.793 135.065 261.775 135.082 254.766C135.082 252.389 134.672 251.09 132.005 251.611C129.338 252.133 128.808 250.885 128.859 248.431C129.022 241.499 128.859 234.566 128.962 227.633C128.962 225.924 128.5 225.471 126.799 225.488C117.285 225.565 107.762 225.488 98.2479 225.565C96.2476 225.565 95.5637 225.129 95.5723 223C95.6406 191.212 95.6406 159.418 95.5723 127.618C95.5723 125.72 96.0339 124.985 98.0256 125.096C100.881 125.259 103.753 125.045 106.574 125.173C108.284 125.25 108.993 124.874 108.942 122.942C108.831 119.053 108.942 118.899 112.9 119.087C115.148 119.19 115.661 118.454 115.592 116.334C115.438 111.436 115.644 106.53 115.498 101.64C115.438 99.5713 116.037 98.9729 118.123 98.9985C127.175 99.1097 136.236 98.9985 145.289 99.1011C147.597 99.1011 148.708 98.7421 148.349 96.1519C148.17 94.9295 147.956 93.5875 148.7 92.365C148.934 92.082 149.106 91.7529 149.204 91.3991C149.632 88.373 149.401 85.3213 149.418 82.2866C149.418 71.5841 149.418 60.8874 149.418 50.1963C149.418 48.7346 149.597 47.2215 148.7 45.9222C144.273 44.6099 139.561 44.6099 135.134 45.9222C134.193 47.1104 134.279 48.5379 134.279 49.9057C134.279 62.8649 134.279 75.8184 134.279 88.7662C134.279 90.057 134.185 91.3307 134.894 92.5446C136.014 93.6387 137.459 93.3994 138.818 93.4763C140.947 93.5447 143.092 93.4165 145.195 93.5618C145.451 93.548 145.707 93.5919 145.944 93.6903C146.18 93.7888 146.392 93.9392 146.563 94.1304C146.733 94.3217 146.859 94.5489 146.93 94.7952C147.001 95.0416 147.016 95.3008 146.973 95.5536C146.973 96.6734 146.64 97.5539 145.34 97.7334C144.423 97.8303 143.501 97.8674 142.579 97.8445C134.715 97.8445 126.859 97.8445 119.003 97.8445C114.9 97.8445 114.37 98.4172 114.336 102.503C114.302 106.589 114.336 110.641 114.336 114.71C114.336 116.223 114.396 117.788 112.139 117.728C109.882 117.668 110.027 116.078 110.01 114.599C109.959 110.616 110.01 106.641 110.01 102.632C109.942 99.0755 109.301 98.3574 105.736 98.4087C102.368 98.5027 98.8975 97.5539 95.6406 99.1524C95.1356 99.9274 94.8957 100.845 94.9568 101.768C94.9055 106.709 94.8969 111.65 94.9568 116.591C94.9092 117.06 94.9591 117.533 95.1032 117.982C95.2474 118.431 95.4827 118.845 95.7945 119.198Z" fill="#D9BF66"/>
<path d="M29.7932 275.812C29.7932 268.597 29.7932 261.382 29.6992 254.176C29.6992 252.338 30.2463 251.611 32.05 251.868C32.7766 251.962 33.5374 251.799 34.264 251.868C35.9736 252.099 36.4523 251.363 36.4352 249.679C36.3497 242.567 36.478 235.438 36.3497 228.309C36.3497 226.197 36.9396 225.667 38.9912 225.693C48.3259 225.804 57.6692 225.693 67.0039 225.795C69.2094 225.795 69.7479 225.189 69.7479 223.026C69.6795 189.551 69.7479 156.076 69.6283 122.6C69.6283 119.762 70.3292 118.933 73.1245 119.181C76.2446 119.429 79.399 119.181 82.5276 119.181C83.7586 117.523 83.3825 115.659 83.126 113.856C82.9038 112.24 81.6044 111.795 80.2538 111.847C77.7491 111.941 76.4498 111.052 76.6293 108.342C76.7661 106.171 75.518 105.068 73.3895 105.162C70.9532 105.265 69.8078 104.307 69.9702 101.743C70.1326 99.4175 68.8076 98.3233 66.5509 98.443C64.2941 98.5627 63.1316 97.6395 63.3025 95.2203C63.4564 92.9806 62.3964 91.6471 60.0542 91.801C57.7119 91.9548 56.4553 91.0231 56.6348 88.4757C56.7802 86.1933 55.6005 84.9709 53.2925 85.1248C50.9844 85.2786 49.8219 84.4494 49.9843 81.979C50.1467 79.5085 48.9585 78.3032 46.5051 78.4485C44.3339 78.5768 43.3593 77.7561 43.291 75.4481C43.2055 72.3622 42.7439 72.0288 39.675 71.7809C38.2817 71.6697 37.0507 71.6697 36.7601 69.7122C36.042 64.9508 33.9733 63.9592 29.0666 65.8484C27.6732 69.943 28.4682 74.1146 28.5452 78.269C28.6573 78.6077 28.8344 78.9213 29.0666 79.1922C29.759 80.6882 29.3914 82.2867 29.3829 83.8254C29.3829 85.1931 29.6564 85.9881 31.2037 85.7402C31.2947 85.7318 31.3862 85.7318 31.4772 85.7402C35.9907 85.8685 36.0677 85.8685 36.042 90.2195C36.042 91.8352 36.3327 92.6985 38.1449 92.425C38.8715 92.3139 39.6323 92.4763 40.3589 92.425C42.0686 92.2369 43.0089 92.8097 42.7524 94.7074C42.6755 95.2459 42.8037 95.8187 42.7524 96.3658C42.4618 98.4259 43.0858 99.2465 45.3938 99.1696C49.933 99.0072 49.4799 98.5285 49.3773 103.033C49.3346 105.102 49.7535 105.906 52.053 105.829C56.6007 105.675 56.139 105.196 56.0365 109.693C55.9937 111.778 56.4297 112.565 58.7206 112.488C63.2598 112.334 62.7982 111.864 62.6956 116.36C62.6528 118.446 63.0974 119.224 65.3798 119.147C69.8847 119.002 69.3975 118.489 69.3975 123.028C69.3975 156.138 69.4174 189.243 69.4573 222.342C69.4573 224.77 68.9786 225.676 66.3115 225.625C57.3529 225.445 48.3601 225.71 39.41 225.471C36.4523 225.385 35.9907 226.325 36.042 228.993C36.2301 235.558 36.042 242.123 36.1531 248.654C36.1531 250.851 35.7428 251.782 33.3066 251.671C29.4513 251.483 29.494 251.671 29.4342 255.595C29.3401 262.339 29.7248 269.084 29.229 275.82L29.7932 275.812Z" fill="#D9BF66"/>
<path d="M42.5553 275.811H82.5186C84.0316 272.247 83.4504 268.605 82.9204 264.964C82.7409 264.643 82.4661 264.386 82.1339 264.228C81.0827 263.88 79.9733 263.74 78.8685 263.818C68.0007 263.818 57.1359 263.818 46.2738 263.818C44.9916 263.818 43.7093 263.733 42.5468 264.57C41.1625 268.19 41.1655 272.194 42.5553 275.811Z" fill="#D9BF66"/>
<path d="M102.496 275.811H122.482C123.807 272.189 123.849 268.221 122.602 264.57C122.26 264.434 122.73 264.476 122.371 264.425C115.768 263.375 109.038 263.407 102.445 264.519C101.102 268.167 101.121 272.176 102.496 275.811Z" fill="#D9BF66"/>
<path d="M102.496 275.811L102.582 264.767C101.838 263.912 100.795 263.861 99.7866 263.844C94.9995 263.775 90.2068 263.775 85.4084 263.844C84.3997 263.844 83.3568 263.895 82.6216 264.776C82.6216 268.451 82.5988 272.13 82.5532 275.811H102.496Z" fill="#D9BF66"/>
<path d="M122.431 264.767L122.482 275.811H129.142L129.048 264.699C128.054 264.075 126.902 263.75 125.729 263.762C124.556 263.774 123.411 264.123 122.431 264.767Z" fill="#D9BF66"/>
<path d="M42.5559 275.811C42.5559 272.113 42.5559 268.409 42.5559 264.699L42.1883 264.365C40.0854 263.792 37.9911 263.451 35.9822 264.69L35.8882 275.803L42.5559 275.811Z" fill="#D9BF66"/>
<path d="M29.3229 65.9422C29.7845 65.9422 30.2461 65.9422 30.7077 65.9422C35.5803 65.9422 35.6401 65.9422 35.8367 70.6951C35.9051 72.1227 36.3753 72.721 37.8028 72.6099C38.6577 72.5501 39.4697 72.6698 40.2989 72.6099C41.9402 72.4475 42.7352 73.0373 42.5471 74.7812C42.4616 75.636 42.5984 76.4481 42.5471 77.2773C42.3933 78.8929 43.1626 79.4229 44.6671 79.2947C45.5219 79.2263 46.3768 79.346 47.1632 79.2947C48.7275 79.1579 49.3943 79.8161 49.2233 81.3719C49.2233 81.7395 49.2661 82.1156 49.2233 82.4832C48.7703 85.2101 49.7277 86.5094 52.6427 85.9709C55.361 85.4751 56.3441 86.7146 55.8996 89.3218C55.4551 91.9291 56.5407 93.1258 59.1992 92.6215C62.2082 92.0573 62.9946 93.5447 62.5501 96.169C62.1056 98.7933 63.3024 99.708 65.7643 99.2891C68.5681 98.8019 69.7307 99.9132 69.1836 102.708C68.6365 105.504 70.0384 106.359 72.6029 105.923C75.3127 105.461 76.2103 106.641 75.9111 109.282C75.7145 110.992 75.3897 112.778 78.3388 112.659C82.5104 112.479 82.519 112.659 82.5275 116.933C82.5275 117.668 82.5275 118.412 82.5275 119.147H95.7774L95.9056 99.1951C96.4259 98.1716 96.7106 97.0446 96.7387 95.8968C96.7668 94.7489 96.5376 93.6094 96.068 92.5616C94.9995 91.5871 93.6574 91.7068 92.3837 91.7068C90.7937 91.7068 90.1269 90.9631 89.9902 89.356C89.6311 85.4238 89.5713 85.3554 85.8528 85.0819C84.1431 84.9537 83.4422 84.2954 83.2883 82.5174C83.0062 78.7048 82.9378 78.6194 79.2962 78.3886C77.4498 78.2774 76.7318 77.5337 76.6206 75.7129C76.3984 72.0799 76.3129 72.0115 72.4918 71.7209C70.7821 71.5927 70.0983 70.8661 69.9273 69.1564C69.6452 65.3353 69.5683 65.2413 65.9267 65.0361C64.0632 64.925 63.3622 64.1813 63.2596 62.3605C63.0374 58.7018 62.9434 58.6335 59.1308 58.3685C57.4212 58.2488 56.7373 57.5735 56.5663 55.804C56.2757 52.0342 56.2073 51.9487 52.2922 51.658C50.4628 51.5213 49.9158 50.6579 49.9329 49.0081C49.9329 46.8881 49.9329 44.7339 49.9329 42.631C49.9329 41.5369 50.0354 40.3999 49.343 39.4169C48.4882 38.3313 47.2743 38.3655 46.0947 38.374C44.2739 38.374 43.7268 37.4251 43.7866 35.8095C43.8379 34.4076 44.5218 33.8947 45.8553 33.8776C47.4026 33.8776 48.2745 34.4161 48.3087 36.0745C48.3087 37.2456 48.2317 38.4851 49.2832 39.3742C51.9246 40.6478 54.737 39.9127 57.4725 39.9982C61.0969 40.1264 61.7466 40.0666 61.644 43.691C61.7039 45.9307 62.9776 46.8796 64.9693 46.7599C67.3543 46.6573 68.6365 47.4608 68.4399 50.0681C68.2689 52.3676 69.4657 53.5558 71.7652 53.4874C74.0647 53.419 75.27 54.1627 75.0905 56.6503C74.911 59.1378 76.1419 60.3175 78.5782 60.1551C81.0144 59.9926 81.8864 61.1552 81.7582 63.4632C81.6299 65.7713 82.8096 66.968 85.1091 66.8056C87.6736 66.609 88.5284 67.8827 88.4258 70.2762C88.3232 72.4475 89.4773 73.5844 91.64 73.4647C94.0848 73.3194 95.2474 74.2512 95.0593 76.8071C94.8883 79.0639 96.1193 80.2179 98.4188 80.0897C100.718 79.9614 101.838 80.8932 101.701 83.2953C101.565 85.6973 102.813 86.9198 105.232 86.7659C107.463 86.6206 108.472 87.5609 108.352 89.8347C108.253 90.3841 108.284 90.949 108.441 91.4845C108.598 92.0201 108.878 92.5118 109.258 92.9207C109.566 93.1343 109.921 93.272 110.292 93.3224C117.986 93.6729 125.773 93.5703 133.51 93.3737C133.841 93.3718 134.167 93.2937 134.464 93.1454C134.76 92.9972 135.019 92.7828 135.219 92.5189C135.219 78.1065 135.236 63.6969 135.27 49.2902C135.27 48.1789 135.33 47.0762 135.365 45.9649L134.988 45.6059C132.962 44.9647 130.954 44.751 129.005 45.9478C128.09 47.2642 128.304 48.7773 128.304 50.2219C128.304 60.7363 128.304 71.2593 128.304 81.7822C128.304 83.0987 128.62 84.6716 126.594 84.9793C124.568 85.287 123.653 84.6801 123.397 82.4148C122.995 78.9015 122.944 78.7219 119.422 78.474C117.37 78.3287 116.806 77.3713 116.686 75.4992C116.481 72.3706 116.139 72.003 113.062 71.832C111.028 71.7123 110.113 70.9772 110.019 68.8743C109.873 65.72 109.472 65.3011 106.446 65.1815C104.197 65.0874 103.257 64.2069 103.377 61.9929C103.514 59.5652 102.257 58.3599 99.8634 58.4881C97.4699 58.6164 96.5809 57.4367 96.7006 55.1458C96.8202 53.0258 95.7774 51.7264 93.589 51.8547C91.0245 51.9914 89.8021 50.9998 90.0329 48.3242C90.0894 47.4949 89.8332 46.6745 89.3148 46.0247C88.9815 45.8709 89.4516 45.982 89.1097 45.8452C86.4364 44.7038 84.2699 42.6285 83.0148 40.0067C82.3907 38.639 81.1598 38.5193 79.9801 38.5792C77.6977 38.6817 76.6463 37.9124 76.6206 35.4334C76.6206 32.4329 76.0821 31.9628 72.9449 31.92C70.5513 31.92 70.047 30.8002 69.9957 28.6888C69.9188 25.6798 70.6368 22.6024 69.4572 19.6703C68.5425 18.4821 67.1919 18.6445 65.9353 18.5847C64.6787 18.5249 63.9179 17.9521 63.9093 16.5673C63.9093 15.3449 64.4051 14.661 65.6703 14.6439C66.9354 14.6268 68.1322 14.5414 68.3886 16.2083C68.551 17.4478 68.3886 18.8155 69.6538 19.6276C71.201 20.4824 72.885 20.1661 74.5092 20.1747C78.3559 20.1747 82.2027 20.1747 86.0408 20.1747C87.146 20.2812 88.2559 20.0262 89.2037 19.4481C89.7788 18.4982 90.0983 17.4156 90.1312 16.3057C90.1642 15.1957 89.9095 14.0962 89.3918 13.1138C88.904 12.6794 88.2754 12.4365 87.6223 12.4299C81.8265 12.353 76.0222 12.0282 70.2351 12.6094C69.9106 12.7532 69.6195 12.9628 69.3802 13.2249C67.303 13.3275 64.7812 12.7291 63.2767 13.7036C61.7722 14.6781 63.2767 17.4649 62.5159 19.354C62.3022 19.608 62.1345 19.8973 62.0201 20.2089C61.7698 22.1128 61.6983 24.036 61.8064 25.9533C61.7039 32.6723 62.4903 31.7149 55.9423 31.8517C54.0168 31.7359 52.0846 31.8046 50.1722 32.0568C49.8606 32.175 49.5715 32.3456 49.3174 32.5612C47.2401 33.2792 44.385 31.7491 43.1284 33.3305C42.077 34.664 42.6583 37.3055 42.5215 39.3656C42.3065 39.6172 42.1411 39.9072 42.0342 40.2204C41.7866 42.096 41.7179 43.9908 41.8291 45.8794C41.6496 47.6574 42.4787 49.7176 41.3418 51.1622C40.2049 52.6069 37.8541 51.4187 36.2128 52.2479C35.9386 52.386 35.7122 52.6034 35.5632 52.8719C35.5632 56.7101 34.375 59.3515 29.8358 58.8557C29.4939 58.8557 29.1947 59.172 28.981 59.4712C28.2544 61.6681 27.8441 63.865 29.3229 65.9422Z" fill="#D9BF66"/>
<path d="M69.3203 13.2592C69.4704 13.2341 69.6189 13.1998 69.7648 13.1566C69.9985 12.9376 70.1844 12.6727 70.3109 12.3785C70.4374 12.0843 70.5018 11.7672 70.5 11.4469C70.3205 8.08746 71.4745 8.02762 74.398 8.02762H103.744C104.206 8.02762 104.668 8.02762 105.129 8.02762C106.574 8.02762 107.694 8.43794 107.694 10.1903C107.694 11.9427 106.676 12.3616 105.215 12.3873C103.18 12.3873 101.154 12.3873 99.1197 12.3873C97.9314 12.3873 96.7005 12.3274 95.7003 13.1395C95.1809 14.1051 94.9126 15.1858 94.92 16.2822C94.9275 17.3786 95.2105 18.4555 95.7431 19.4139C100.171 20.7731 104.616 20.5252 109.078 19.6106C109.385 19.262 109.619 18.8555 109.766 18.415C109.913 17.9745 109.97 17.509 109.933 17.0461C110.01 15.5159 110.583 14.6269 112.293 14.7038C114.002 14.7808 114.31 16.0032 114.327 17.3795C114.378 20.7047 114.327 24.03 114.327 27.3553C114.327 28.2785 114.327 29.2017 114.327 30.125C114.472 33.3477 115.062 33.9973 118.336 34.0315C126.372 34.0999 134.407 34.0315 142.442 34.0315C143.366 34.013 144.291 34.0416 145.212 34.117C146.657 34.2623 146.99 35.2112 146.973 36.4507C147.004 36.7055 146.977 36.9639 146.894 37.2069C146.812 37.4498 146.675 37.6711 146.496 37.8542C146.316 38.0373 146.097 38.1776 145.856 38.2646C145.614 38.3516 145.356 38.3832 145.101 38.357C142.972 38.4852 140.827 38.357 138.724 38.4339C137.45 38.4339 136.117 38.3228 134.997 39.1776C134.472 40.2258 134.198 41.3819 134.198 42.5542C134.198 43.7265 134.472 44.8826 134.997 45.9308H135.236L148.383 45.8795C149.443 45.0246 149.238 43.6911 149.367 42.5285C149.367 42.2738 149.421 42.022 149.527 41.7901C149.632 41.5582 149.786 41.3515 149.978 41.1839C150.17 41.0163 150.395 40.8917 150.639 40.8184C150.883 40.7452 151.14 40.7249 151.392 40.759C152.683 40.759 153.521 41.2292 153.632 42.6397C153.701 43.5629 153.701 44.4861 153.701 45.4093V86.2702C153.701 90.4075 153.701 90.4075 149.734 91.3991C149.285 91.5182 148.875 91.7541 148.546 92.083C148.537 92.1779 148.565 92.2726 148.623 92.348C154.949 92.6643 154.949 92.6643 154.949 86.4668C154.949 71.7637 154.897 57.0606 155 42.3576C155 40.1179 154.572 39.2887 152.17 39.4255C148.324 39.6307 148.195 39.4255 148.332 35.4078C148.401 33.3904 147.93 32.7322 145.768 32.7664C136.621 32.8946 127.466 32.7664 118.311 32.869C116.208 32.869 115.396 32.4159 115.481 30.1335C115.652 25.3379 115.481 20.5167 115.567 15.7125C115.567 14.0029 115.216 13.0797 113.31 13.3789C112.771 13.4643 112.199 13.3276 111.651 13.3789C109.54 13.6695 108.497 12.9514 108.856 10.6776C108.959 10.045 108.805 9.37825 108.856 8.73713C109.19 7.24973 108.677 6.70264 107.044 6.70264C95.1162 6.77102 83.1885 6.77102 71.2608 6.70264C69.8674 6.70264 69.2434 7.02747 69.3374 8.54907C69.4314 10.0707 69.3374 11.6948 69.3203 13.2592Z" fill="#D9BF66"/>
<path d="M35.837 52.624H36.1105C42.7012 52.6924 42.7012 52.6924 42.5046 45.9478C41.5301 45.093 40.2906 45.2212 39.1281 45.1614C37.5039 45.0844 37.2389 44.0672 37.256 42.7337C37.2143 42.4621 37.2353 42.1846 37.3172 41.9223C37.3991 41.6601 37.5399 41.42 37.7287 41.2204C37.9176 41.0209 38.1495 40.8671 38.4068 40.7708C38.6642 40.6746 38.9401 40.6384 39.2135 40.665C40.3761 40.6137 41.6242 40.7932 42.573 39.8101C42.5552 39.6531 42.5208 39.4983 42.4704 39.3485L41.0856 39.2972C36.1874 39.2972 36.1361 39.2972 35.9566 44.0244C35.8968 45.4178 35.5207 46.1102 34.0504 45.9649C33.4092 45.9051 32.7425 46.0418 32.1099 45.9649C29.7591 45.5973 29.1265 46.606 29.212 48.8799C29.3744 53.154 29.5882 52.7095 25.6132 52.5984C23.6385 52.5556 23.0829 53.1882 23.0829 55.1201C23.1855 62.2323 23.2282 69.3445 23.0829 76.4909C23.0316 78.8673 23.8181 79.6366 26.0577 79.3374C27.0573 79.2345 28.0618 79.1859 29.0667 79.1921C29.1262 79.0782 29.1721 78.9577 29.2035 78.8331C29.042 78.6071 28.8309 78.421 28.5865 78.2892C28.342 78.1573 28.0706 78.0831 27.793 78.0723C24.8609 78.192 24.3737 76.5336 24.4421 74.029C24.5789 68.6863 24.4848 63.3436 24.4848 57.9924C24.4848 57.3512 24.4848 56.7016 24.5447 56.0604C24.6216 54.8808 25.1345 54.1713 26.4082 54.1371C27.6819 54.1029 28.2119 54.7611 28.3401 55.9579C28.4683 57.1546 28.2119 58.4027 29.3232 59.2917C35.9652 59.343 35.9652 59.343 35.8712 52.5813C34.9479 51.7863 33.8025 51.8718 32.7083 51.8632C30.9986 51.8632 30.5456 50.8545 30.5712 49.3415C30.5969 47.8284 31.2038 47.3412 32.5886 47.3155C34.1102 47.3155 35.1018 47.7173 35.1531 49.4526C35.1275 50.5468 35.0505 51.6923 35.837 52.624Z" fill="#D9BF66"/>
<path d="M62.5502 19.867C62.5363 19.7045 62.5048 19.544 62.4562 19.3883C62.0886 19.3883 61.7211 19.3456 61.362 19.3456C56.2929 19.3456 56.2331 19.3456 55.9168 24.2523C55.8227 25.5345 55.4124 25.962 54.1302 26.0303C49.1807 26.3637 49.1893 26.415 49.2235 31.4842C49.2235 31.8432 49.2235 32.2108 49.2662 32.5783C49.4221 32.6261 49.5825 32.6576 49.7449 32.6724C50.6938 31.7235 50.5313 30.4755 50.5997 29.3129C50.6596 27.74 51.5571 27.3297 52.942 27.3468C54.3268 27.3639 55.0277 27.8169 55.1047 29.2274C55.1645 30.39 54.9936 31.6295 55.8826 32.6467C62.7212 32.8519 62.7212 32.8519 62.5246 26.0047C61.5415 25.1499 60.302 25.2781 59.1053 25.2183C57.4811 25.1413 57.2247 24.1241 57.2332 22.7905C57.1915 22.519 57.2125 22.2415 57.2944 21.9792C57.3763 21.717 57.5171 21.4769 57.7059 21.2773C57.8948 21.0778 58.1267 20.924 58.3841 20.8277C58.6414 20.7315 58.9173 20.6952 59.1908 20.7219C60.3533 20.6449 61.6014 20.8159 62.5502 19.867Z" fill="#D9BF66"/>
<path d="M75.9453 132.055V178.634C76.8001 179.489 77.9371 179.489 79.0056 179.421C80.9717 179.327 81.8607 180.139 81.7496 182.131C81.6379 183.13 81.7699 184.142 82.1343 185.08C82.2872 185.366 82.5265 185.596 82.8181 185.738C84.9552 186.191 87.0923 186.644 89.0926 185.302V138.714C88.2378 137.859 87.1008 137.859 86.0323 137.936C84.0662 138.03 83.1772 137.209 83.2883 135.218C83.3996 134.218 83.2677 133.206 82.9036 132.268C82.7455 131.986 82.5076 131.757 82.2198 131.61C80.0827 131.166 77.9456 130.713 75.9453 132.055Z" fill="#D9BF66"/>
<path d="M122.388 238.045C122.73 231.403 122.73 231.395 116.293 231.403L75.8515 231.489C75.2327 232.5 74.9053 233.663 74.9053 234.848C74.9053 236.034 75.2327 237.196 75.8515 238.208C76.7918 238.796 77.9027 239.052 79.0058 238.934C84.5964 238.934 90.1784 239.037 95.769 238.883C102.385 238.985 109.01 239.011 115.627 238.883C117.909 238.72 120.294 239.55 122.388 238.045Z" fill="#D9BF66"/>
<path d="M122.431 264.767L129.047 264.69C129.389 258.048 129.389 258.039 122.953 258.048L82.5105 258.134C81.9217 259.116 81.6064 260.238 81.5974 261.383C81.5883 262.529 81.8859 263.656 82.4593 264.647L82.5789 264.776H122.431V264.767Z" fill="#D9BF66"/>
<path d="M115.763 238.113H95.8971C95.6006 238.4 95.3704 238.749 95.2227 239.134C95.075 239.52 95.0134 239.933 95.0423 240.345C95.2646 244.003 94.1362 247.756 95.8031 251.312H115.875C117.262 247.016 117.223 242.386 115.763 238.113Z" fill="#D9BF66"/>
<path d="M95.7948 251.312L95.8973 238.114L75.8516 238.062L75.5097 238.421C74.6548 242.499 74.9968 246.593 75.296 250.688C75.4043 251.006 75.5998 251.288 75.8602 251.5L95.7948 251.312Z" fill="#D9BF66"/>
<path d="M82.4589 264.647L82.5102 258.134L75.8853 257.963C74.9663 257.328 73.8504 257.043 72.7395 257.159C65.9351 257.159 59.1335 257.159 52.3348 257.159C51.2266 257.044 50.1139 257.329 49.1975 257.963L42.5726 258.134C41.9522 259.118 41.623 260.257 41.623 261.42C41.623 262.584 41.9522 263.723 42.5726 264.707L82.4589 264.647Z" fill="#D9BF66"/>
<path d="M75.8512 238.062V231.523H49.2319C47.9325 233.608 48.283 235.797 48.907 237.96C49.1216 238.258 49.4187 238.487 49.7619 238.618C53.0187 239.336 56.3269 238.9 59.6095 238.96C63.8238 239.037 68.0381 238.96 72.2439 238.96C73.5261 238.96 74.8083 239.028 75.894 238.105L75.8512 238.062Z" fill="#D9BF66"/>
<path d="M75.9453 198.62V211.947C76.9027 212.879 78.1337 212.802 79.3048 212.802C80.8862 212.802 81.5273 213.537 81.6983 215.11C82.1941 219.572 84.7415 220.726 89.1268 218.589V205.271C88.0753 204.288 86.7418 204.502 85.4938 204.416C84.2457 204.331 83.6131 203.707 83.4165 202.399C82.6557 197.603 80.5016 196.526 75.9453 198.62Z" fill="#D9BF66"/>
<path d="M75.9456 198.62H77.5954C82.22 198.62 82.2628 198.62 82.4936 203.33C82.5534 204.715 82.9466 205.374 84.4084 205.297C85.8701 205.22 87.5285 205.297 89.0929 205.297V192.013C88.144 191.064 86.9045 191.158 85.7419 191.158C83.9724 191.2 83.28 190.363 83.3228 188.662C83.3228 187.49 83.4082 186.26 82.4679 185.294C81.4829 184.671 80.3418 184.341 79.1768 184.341C78.0119 184.341 76.8707 184.671 75.8857 185.294L75.9456 198.62Z" fill="#D9BF66"/>
<path d="M49.1978 257.963H75.8855V251.5V251.261C75.2113 250.759 74.3829 250.508 73.5433 250.551C66.0806 250.551 58.6094 250.423 51.1382 250.594C50.7691 250.619 50.4059 250.699 50.0611 250.833C49.7114 250.957 49.4114 251.191 49.2063 251.5L49.1978 257.963Z" fill="#D9BF66"/>
<path d="M89.11 218.606H87.7252C82.827 218.606 82.7757 218.606 82.5449 213.896C82.4765 212.511 82.0833 211.862 80.6216 211.93C79.1598 211.998 77.4929 211.93 75.9285 211.93C75.9285 215.708 75.9285 219.495 75.8345 223.265C75.7918 224.881 76.4329 225.342 77.9459 225.3C80.9891 225.214 84.0323 225.188 87.0755 225.3C88.8621 225.368 89.3152 224.599 89.1955 223.009C89.0758 221.419 89.1271 220.085 89.11 218.606Z" fill="#D9BF66"/>
<path d="M115.764 238.113L115.866 251.312C122.483 251.577 122.491 251.577 122.474 244.926C122.474 242.627 122.423 240.336 122.389 238.045L115.764 238.113Z" fill="#D9BF66"/>
<path d="M42.6494 238.045C42.6494 241.815 42.6494 245.593 42.5298 249.363C42.4785 250.893 42.923 251.517 44.5301 251.415C46.1372 251.312 47.6502 251.457 49.2145 251.5V251.261C49.5653 250.897 49.8254 250.456 49.9739 249.974C50.1225 249.491 50.1552 248.98 50.0694 248.483C49.8044 245.003 50.9755 241.413 49.2145 238.054C48.2271 237.448 47.0916 237.127 45.9332 237.125C44.7748 237.124 43.6385 237.442 42.6494 238.045Z" fill="#D9BF66"/>
<path d="M75.9453 185.362H82.5275C82.5275 178.763 82.5275 178.763 75.9453 178.669V185.362Z" fill="#D9BF66"/>
<path d="M82.5107 185.362C82.5107 191.961 82.5107 191.961 89.0929 192.055V185.345L82.5107 185.362Z" fill="#D9BF66"/>
<path d="M42.5642 264.707C42.5642 262.519 42.5642 260.328 42.5642 258.134C35.623 257.775 35.623 257.775 35.9821 264.69L42.5642 264.707Z" fill="#D9BF66"/>
<path d="M89.0927 132.004C89.4347 125.114 89.4347 125.114 82.5447 125.456C81.9207 126.44 81.5894 127.581 81.5894 128.747C81.5894 129.912 81.9207 131.053 82.5447 132.038C83.5285 132.65 84.6651 132.971 85.8237 132.965C86.9822 132.959 88.1155 132.626 89.0927 132.004Z" fill="#D9BF66"/>
<path d="M82.5275 132.038C82.5275 129.841 82.5275 127.644 82.5275 125.456C74.4237 125.456 75.9282 123.951 75.9282 132.055L82.5275 132.038Z" fill="#D9BF66"/>
<path d="M89.0929 132.003H82.5107C82.5107 138.603 82.5107 138.603 89.0929 138.697V132.003Z" fill="#D9BF66"/>
<path d="M42.6496 238.045H49.2232C49.2232 235.845 49.2232 233.654 49.2232 231.471C42.2906 231.13 42.2906 231.13 42.6496 238.045Z" fill="#D9BF66"/>
<path d="M95.8716 92.6386L95.9229 99.2464C99.5302 99.2464 103.138 99.3746 106.736 99.2464C108.745 99.1609 109.241 99.9217 109.198 101.811C109.087 106.709 109.284 111.616 109.113 116.505C109.019 119.181 110.711 118.642 112.199 118.642C113.686 118.642 115.345 119.172 115.251 116.497C115.062 111.419 115.302 106.324 115.148 101.238C115.088 99.1096 115.806 98.6053 117.832 98.6224C126.987 98.725 136.143 98.5625 145.289 98.742C147.939 98.7933 147.948 97.5966 148.008 95.6134C148.059 93.4507 147.666 92.4163 145.178 92.5787C141.87 92.7839 138.528 92.5787 135.202 92.5787H109.181C104.845 91.2264 100.196 91.2473 95.8716 92.6386Z" fill="#D9BF66"/>
<path d="M148.657 92.0916C154.701 92.0916 154.701 92.0916 154.701 86.1078C154.701 71.5757 154.598 57.1119 154.778 42.6226C154.82 39.6991 153.418 39.9555 151.469 39.8273C149.23 39.682 148.212 40.2804 148.546 42.6653C148.614 43.7706 148.597 44.8795 148.495 45.9821C148.495 60.1722 148.52 74.3567 148.571 88.5355C148.571 89.698 148.623 90.8948 148.657 92.0916Z" fill="#D9BF66"/>
<path d="M29.3229 59.2918C29.2103 58.2927 29.1903 57.2855 29.2631 56.2828C29.7161 53.5644 28.6219 52.8634 25.9891 53.0088C24.1255 53.1113 23.4844 53.4704 23.5186 55.4279C23.6383 62.2666 23.6725 69.1052 23.5101 75.8669C23.4502 78.2348 23.9375 79.3631 26.502 78.8844C27.4167 78.7946 28.3371 78.7774 29.2545 78.8332C29.2887 74.5419 29.3172 70.245 29.34 65.9423L29.3229 59.2918Z" fill="#D9BF66"/>
<path d="M39.3671 91.9889C42.2051 92.7839 42.5556 91.3991 42.6496 88.997C42.7608 86.3043 41.7521 85.9111 39.3842 85.8683C37.0163 85.8256 36.1871 86.4582 36.3239 88.9286C36.4521 91.1597 36.4179 92.9805 39.3671 91.9889Z" fill="#D9BF66"/>
<path d="M32.8189 79.3632C30.2032 78.6366 29.6988 79.859 29.639 82.3551C29.5791 84.9794 30.4938 85.441 32.8959 85.5436C35.6912 85.6547 35.8878 84.4836 35.9818 82.2012C36.0844 79.7136 35.3065 78.8075 32.8189 79.3632Z" fill="#D9BF66"/>
<path d="M62.4051 108.778C63.2599 105.589 61.1485 106.094 59.1482 105.871C56.3187 105.547 56.4384 107.051 56.2674 109.094C56.0195 111.898 57.3188 112.052 59.5841 112.189C62.4906 112.368 62.9607 111.12 62.4051 108.778Z" fill="#D9BF66"/>
<path d="M66.072 112.701C63.3365 111.932 63.063 113.385 62.9433 115.753C62.798 118.514 63.9605 118.719 66.26 118.873C69.175 119.079 69.1494 117.668 69.2776 115.454C69.4229 112.89 68.4655 112.146 66.072 112.701Z" fill="#D9BF66"/>
<path d="M46.112 98.6737C48.856 99.443 49.2236 98.0753 49.3091 95.6647C49.4117 92.9805 48.4543 92.5617 46.0436 92.5275C43.633 92.4933 42.8722 93.1002 42.9748 95.5792C43.0688 97.8787 43.2398 99.4687 46.112 98.6737Z" fill="#D9BF66"/>
<path d="M55.7712 102.444C56.532 99.7423 55.2754 99.2721 52.7964 99.2123C50.3174 99.1524 49.625 100.007 49.625 102.461C49.625 104.914 50.1635 105.683 52.6767 105.555C54.9335 105.401 56.6004 105.316 55.7712 102.444Z" fill="#D9BF66"/>
<path d="M95.8715 92.6386L109.181 92.5275C109.181 92.0659 109.181 91.6043 109.181 91.1427C109.181 86.2616 109.181 86.2103 104.437 86.0137C103.018 85.9453 102.394 85.5008 102.505 84.0647C102.573 83.2099 102.454 82.3551 102.505 81.5686C102.659 79.953 102.112 79.1152 100.351 79.3033C99.496 79.3888 98.6412 79.252 97.8633 79.3033C96.2733 79.4486 95.6835 78.7391 95.8202 77.209C95.8886 76.3542 95.7689 75.4993 95.8202 74.7214C95.9485 73.1913 95.3672 72.4476 93.7772 72.6271C93.3241 72.6271 92.8454 72.5673 92.3924 72.6271C89.6569 73.0802 88.6995 71.8577 89.144 69.2591C89.5885 66.6604 88.5029 65.4551 85.8444 65.9594C82.861 66.5236 82.0746 65.1046 82.4849 62.429C82.8268 60.1637 82.2028 59.0695 79.5699 59.2234C75.86 59.4542 75.6719 59.2234 75.8856 55.5989C76.0309 53.0344 75.0992 52.4617 72.7398 52.5813C69.1923 52.7523 68.9871 52.5813 69.2265 49.0509C69.4145 46.324 68.2947 45.5717 65.9183 45.9821C63.0375 46.4693 62.0374 45.2469 62.499 42.4944C62.9264 39.9983 61.969 39.075 59.3618 39.246C55.9424 39.4683 52.5231 39.246 49.1038 39.246C49.1038 42.9389 49.2064 46.6317 49.1038 50.316C49.0525 52.171 49.7193 52.8805 51.5059 52.6412C52.2325 52.5557 52.9847 52.6839 53.7199 52.6412C55.25 52.5044 55.9766 53.0942 55.8057 54.6842C55.7544 55.1373 55.8655 55.616 55.8057 56.069C55.3526 58.8045 56.5836 59.7619 59.1822 59.3174C61.7809 58.8729 62.9691 59.9671 62.4733 62.617C61.9006 65.6175 63.3795 66.3868 66.0123 65.9765C68.2776 65.626 69.3633 66.2757 69.2008 68.9C68.9786 72.6015 69.2008 72.7895 72.8339 72.5758C75.3984 72.4305 75.9625 73.3793 75.8514 75.7301C75.6719 79.2777 75.8514 79.4828 79.3819 79.2349C82.1344 79.0469 82.8525 80.2009 82.4422 82.5602C81.9464 85.4581 83.2115 86.3727 85.947 85.9795C87.8276 85.7145 89.2979 85.8171 89.1868 88.544C88.9987 93.0062 88.4516 92.5703 93.3241 92.6045L95.8715 92.6386Z" fill="#D9BF66"/>
<path d="M89.1865 45.9735C89.1865 46.3411 89.1865 46.7087 89.1865 47.0848C89.1865 52.1625 89.1865 52.2138 94.1274 52.6156C95.4695 52.7267 95.9226 53.2396 95.8371 54.4876C95.7858 55.4109 95.8969 56.3426 95.8371 57.2658C95.7003 58.8473 96.3842 59.4798 97.9314 59.3089C98.3845 59.3089 98.8632 59.3687 99.3163 59.3089C101.821 58.9157 102.736 59.856 102.565 62.4632C102.351 65.9424 102.565 66.1219 106.163 65.8825C108.677 65.7372 109.352 66.592 109.224 69.0026C109.036 72.5758 109.224 72.781 112.737 72.5416C115.464 72.3536 116.233 73.4649 115.814 75.8584C115.31 78.7562 116.575 79.7393 119.311 79.2777C121.875 78.8417 122.73 79.8675 122.542 82.4406C122.328 85.5607 125.389 87.2361 128.372 85.8599C129.646 85.2615 129.124 84.0818 129.124 83.1672C129.158 70.7721 129.158 58.38 129.124 45.9906L128.722 45.6316C127.699 45.1933 126.582 45.0198 125.474 45.1273C114.589 45.1273 103.704 45.1273 92.8195 45.1273C91.7124 45.0211 90.5963 45.1915 89.5712 45.6231L89.1865 45.9735Z" fill="#D9BF66"/>
<path d="M89.1866 19.337H69.1408C69.1408 22.8504 69.3032 26.3723 69.1408 29.8771C69.004 32.2792 69.9102 33.0485 72.1413 32.7322C72.6884 32.6553 73.2525 32.7322 73.7996 32.7322C75.3811 32.5612 76.0222 33.2708 75.8512 34.818C75.8512 35.177 75.9025 35.5617 75.8512 35.9207C75.3811 38.6904 76.4069 39.9042 79.2705 39.4084C81.6812 38.9896 82.7412 39.8102 82.5616 42.5115C82.3308 46.0419 82.5616 46.059 86.1177 46.059H89.1695C89.8018 45.2545 90.1071 44.2409 90.0243 43.221C90.0699 36.2114 90.0699 29.2075 90.0243 22.2093C90.0692 21.3774 89.9015 20.5478 89.537 19.7986C89.4345 19.602 89.3148 19.4653 89.1866 19.337Z" fill="#D9BF66"/>
<path d="M95.7859 13.3104C99.3847 13.3104 102.992 13.1138 106.591 13.2677C109.378 13.3959 108.574 11.558 108.608 10.1305C108.643 8.70291 109.241 7.01889 106.523 7.04454C94.9652 7.17276 83.4421 7.13002 71.8592 7.04454C70.1495 7.04454 69.5426 7.58308 69.705 9.25855C69.8332 10.5408 69.7478 11.823 69.7649 13.1395L89.1866 13.3019C90.1983 13.8546 91.3323 14.145 92.4851 14.1465C93.638 14.148 94.7728 13.8605 95.7859 13.3104Z" fill="#D9BF66"/>
<path d="M135.108 45.9735L135.185 39.3999C133.176 37.9381 131.099 38.263 129.005 39.1947C128.449 40.2448 128.171 41.4194 128.196 42.6073C128.221 43.7951 128.55 44.9567 129.15 45.9821H135.134L135.108 45.9735Z" fill="#D9BF66"/>
<path d="M95.7858 13.3104H89.1865V19.2942C91.221 20.5508 93.341 20.2431 95.4781 19.6704L95.8542 19.337L95.7858 13.3104Z" fill="#D9BF66"/>
<path d="M42.5727 39.8444C41.2894 39.8717 40.0056 39.8346 38.726 39.7332C36.7684 39.4853 36.2214 40.229 36.2812 42.161C36.3923 45.982 36.2812 45.982 40.0253 45.982H42.5129C42.53 43.9305 42.5499 41.8846 42.5727 39.8444Z" fill="#D9BF66"/>
<path d="M55.8487 32.6125C55.8487 31.3218 55.7803 30.0481 55.8915 28.7573C56.0453 27.0476 55.6436 26.3381 53.7031 26.3808C49.6427 26.4749 49.6341 26.3808 49.6598 30.4755C49.6598 31.2106 49.7196 31.9372 49.7452 32.6724L55.8487 32.6125Z" fill="#D9BF66"/>
<path d="M62.5503 19.867C61.3608 19.8914 60.1709 19.8515 58.9857 19.7473C56.7973 19.4395 56.3015 20.3115 56.2246 22.4485C56.122 25.2011 56.7546 26.5517 59.7379 26.0132C60.6529 25.926 61.5733 25.9117 62.4905 25.9704C62.5076 23.9359 62.5332 21.9014 62.5503 19.867Z" fill="#D9BF66"/>
<path d="M49.1554 39.2973C49.1554 37.9296 49.0956 36.5447 49.2409 35.1856C49.446 33.4161 48.6767 33.0656 47.0611 33.0741C42.9921 33.0741 42.1458 34.1427 42.9921 38.2715C43.2058 39.3058 43.7785 39.3229 44.5308 39.3144C46.0866 39.3144 47.6424 39.3144 49.1896 39.2631L49.1554 39.2973Z" fill="#D9BF66"/>
<path d="M69.1413 19.3114C69.1413 18.7643 69.1926 18.2172 69.1926 17.6701C69.1926 13.6866 67.936 12.6437 64.0636 13.7379C61.9522 14.3277 63.3456 16.2084 63.072 17.465C62.884 18.3198 62.7985 19.3798 64.2773 19.337C65.9186 19.2857 67.5684 19.337 69.2097 19.2772L69.1413 19.3114Z" fill="#D9BF66"/>
<path d="M129.15 39.4084H135.185C138.793 39.4084 142.4 39.2289 145.999 39.4084C149.059 39.5195 147.845 37.3654 148.008 35.9891C148.17 34.6128 148.324 33.151 145.922 33.1852C136.587 33.322 127.244 33.1852 117.901 33.2878C115.9 33.2878 115.165 32.886 115.234 30.7233C115.413 25.8252 115.14 20.9099 115.345 16.0203C115.473 13.0882 113.584 13.8832 112.079 13.8234C110.575 13.7635 108.78 13.4216 109.139 16.0288C109.207 17.1369 109.19 18.2486 109.087 19.3541C108.942 19.696 109.002 19.2259 108.942 19.5849C107.804 26.1656 107.824 32.8945 109.002 39.4682C115.657 40.7734 122.503 40.7531 129.15 39.4084Z" fill="#D9BF66"/>
<path d="M109.181 39.2375C109.181 32.5926 109.149 25.9477 109.087 19.3029L95.8455 19.3712V19.3114C95.1833 20.2094 94.8786 21.3215 94.9906 22.4315C94.9906 27.0391 94.9051 31.6551 94.9906 36.2627C95.059 39.4597 95.7514 40.1009 98.9656 40.2034C101.368 40.2804 103.761 40.2633 106.155 40.2034C107.223 40.1692 108.377 40.2034 109.181 39.2375Z" fill="#D9BF66"/>
<path d="M35.8368 52.6241C35.8368 51.1452 35.8368 49.6749 35.9052 48.2046C35.9822 46.9822 35.7172 46.3411 34.2811 46.3924C28.7332 46.5975 29.8445 45.4777 29.6479 51.0341C29.5966 52.4702 30.2377 52.7438 31.4516 52.6583C32.9219 52.5728 34.4007 52.5984 35.871 52.5813L35.8368 52.6241Z" fill="#D9BF66"/>
<path d="M49.2231 238.054C49.2231 242.459 49.2231 246.861 49.2231 251.261H75.8596V238.054H49.2231Z" fill="#D9BF66"/>
<path d="M109.181 39.2375C105.403 39.2375 101.625 39.2375 97.8462 39.3486C96.2648 39.3999 95.7946 38.8528 95.8117 37.297C95.8801 31.3132 95.8117 25.3294 95.8117 19.3456H89.1611C89.1611 28.2358 89.1611 37.126 89.1611 46.0163H129.141V39.4084L109.181 39.2375Z" fill="#D9BF66"/>
<path d="M106.061 269.828H111.609C112.207 264.861 111.737 259.877 111.874 254.911C111.933 252.603 111.771 250.278 111.874 247.978C111.993 246.14 111.352 245.61 109.531 245.644C105.736 245.713 105.736 245.644 105.736 241.84C105.736 235.181 105.668 228.531 105.736 221.88C105.736 220.017 105.189 219.538 103.377 219.555C93.9734 219.641 84.5703 219.555 75.1074 219.649C72.9019 219.649 72.3463 219.051 72.3463 216.871C72.4146 185.174 72.4146 153.474 72.3463 121.771C72.3463 119.506 73.0472 118.925 75.1672 119.061C77.8343 119.224 80.527 119.001 83.2026 119.13C85.0405 119.215 85.8184 118.762 85.7671 116.719C85.6645 112.616 85.6132 112.445 81.3989 112.385C78.5352 112.385 75.6715 112.274 72.8506 112.453C68.3457 112.351 63.8322 112.342 59.3272 112.453C56.0874 112.283 52.8562 112.334 49.6163 112.411C46.6415 112.479 46.368 112.83 46.368 115.83V216.272C46.368 219.931 46.7441 219.589 43.1453 219.589C33.9901 219.589 24.8434 219.658 15.6882 219.546C13.6708 219.546 12.9698 219.974 13.0126 222.111C13.1579 229.044 13.0126 235.985 13.1151 242.918C13.1151 245.046 12.6535 246.055 10.3882 245.687C9.66162 245.576 8.90937 245.687 8.17422 245.687C6.87488 245.585 6.37053 246.072 6.38763 247.397C6.44746 254.697 6.38763 262.006 6.44746 269.306C6.44746 269.477 6.59279 269.64 6.67827 269.81H12.8245C14.2179 267.93 13.5682 265.75 13.6793 263.69C13.7862 262.139 13.7862 260.582 13.6793 259.031C13.7734 251.962 12.9271 252.996 19.723 252.851C21.937 252.774 24.2279 253.381 26.3222 252.167C26.8301 251.126 27.1005 249.986 27.1138 248.829C27.1271 247.671 26.883 246.525 26.3992 245.473C25.98 245.109 25.4844 244.843 24.9489 244.695C24.4134 244.547 23.8516 244.521 23.3047 244.619C20.9368 244.755 20.2786 243.567 20.3384 241.404C20.4239 238.361 20.4325 235.301 20.3384 232.258C20.4752 225.47 19.5264 226.368 26.5616 226.274C35.298 226.399 44.0286 226.399 52.7536 226.274C66.1487 226.411 79.5439 226.274 92.9305 226.334C98.41 226.334 98.41 226.334 98.6408 231.873C98.5724 234.899 98.6408 237.925 98.6408 240.951C98.5981 244.371 98.4527 244.542 95.0933 244.584C94.2384 244.584 93.4434 244.584 92.6228 244.584C86.0349 244.465 79.447 244.465 72.8592 244.584C67.26 244.439 61.6609 244.533 56.0618 244.584C54.9566 244.468 53.8436 244.714 52.8903 245.285C51.5483 247.542 51.7192 249.842 52.6681 252.175C54.8394 253.526 57.2414 252.834 59.5495 252.936C72.8079 253.073 86.0492 252.936 99.3161 252.996C100.333 252.996 101.351 253.047 102.359 252.996C104.479 252.893 105.394 253.851 105.266 255.979C105.222 256.9 105.242 257.823 105.326 258.74C105.197 261.416 105.274 264.083 105.326 266.75C105.172 267.832 105.435 268.932 106.061 269.828Z" fill="#211F30"/>
<path d="M72.7139 113.214C76.1333 113.214 79.5526 113.402 82.9719 113.214C85.2115 113.103 85.5877 114.026 85.5364 115.967C85.4765 117.677 85.5364 119.002 83.1172 118.805C80.4587 118.583 77.7574 118.89 75.0904 118.711C72.8165 118.549 72.0814 119.241 72.1156 121.6C72.2438 131.303 72.1668 141.005 72.1668 150.707C72.1668 172.363 72.1668 193.99 72.1668 215.589C72.1668 220.607 71.4744 219.863 76.6291 219.914C85.1773 219.957 93.8111 220.008 102.402 219.871C104.753 219.871 105.599 220.316 105.522 222.872C105.326 229.711 105.522 236.549 105.411 243.388C105.411 245.414 105.916 246.388 108.027 246.012C110.95 245.491 111.711 246.713 111.626 249.585C111.429 256.321 111.626 263.075 111.626 269.819H112.181C111.643 262.81 111.985 255.791 112.002 248.782C112.002 246.405 111.592 245.106 108.925 245.627C106.257 246.149 105.727 244.901 105.779 242.447C105.941 235.515 105.779 228.582 105.881 221.649C105.881 219.94 105.42 219.487 103.719 219.504C94.2043 219.581 84.6815 219.504 75.1673 219.581C73.167 219.581 72.4831 219.145 72.4917 217.016C72.5601 185.228 72.5601 153.434 72.4917 121.634C72.4917 119.737 72.9533 119.002 74.945 119.113C77.8002 119.275 80.6724 119.061 83.4933 119.19C85.203 119.267 85.9125 118.89 85.8612 116.959C85.7501 113.069 85.8612 112.915 89.8191 113.103C92.0673 113.206 92.5802 112.471 92.5118 110.351C92.3579 105.453 92.5631 100.546 92.4178 95.6562C92.3579 93.5875 92.9563 92.9891 95.0421 93.0148C104.095 93.1259 113.156 93.0148 122.209 93.1173C124.517 93.1173 125.628 92.7583 125.269 90.1682C125.089 88.9458 124.876 87.6037 125.619 86.3813C125.853 86.0983 126.025 85.7692 126.124 85.4153C126.551 82.3892 126.32 79.3375 126.337 76.3028C126.337 65.6004 126.337 54.9036 126.337 44.2126C126.337 42.7508 126.517 41.2377 125.619 39.9384C121.192 38.6262 116.48 38.6262 112.053 39.9384C111.113 41.1266 111.198 42.5542 111.198 43.9219C111.198 56.8811 111.198 69.8346 111.198 82.7825C111.198 84.0732 111.104 85.3469 111.814 86.5608C112.934 87.655 114.378 87.4156 115.737 87.4926C117.866 87.561 120.012 87.4327 122.115 87.578C122.371 87.5642 122.626 87.6081 122.863 87.7066C123.1 87.805 123.311 87.9554 123.482 88.1467C123.653 88.3379 123.778 88.5651 123.849 88.8115C123.921 89.0578 123.935 89.317 123.893 89.5698C123.893 90.6896 123.559 91.5701 122.26 91.7496C121.343 91.8465 120.421 91.8836 119.499 91.8607C111.634 91.8607 103.778 91.8607 95.9226 91.8607C91.8194 91.8607 91.2894 92.4335 91.2552 96.5196C91.221 100.606 91.2552 104.658 91.2552 108.727C91.2552 110.24 91.315 111.804 89.0583 111.744C86.8015 111.684 86.9468 110.094 86.9298 108.615C86.8785 104.632 86.9298 100.657 86.9298 96.6478C86.8614 93.0917 86.2202 92.3736 82.6556 92.4249C79.2876 92.519 75.817 91.5701 72.5601 93.1686C72.0551 93.9436 71.8151 94.8615 71.8762 95.7844C71.8249 100.725 71.8164 105.666 71.8762 110.607C71.8286 111.076 71.8785 111.55 72.0227 111.998C72.1668 112.447 72.4022 112.861 72.7139 113.214Z" fill="#843346"/>
<path d="M6.71264 269.828C6.71264 262.613 6.71264 255.398 6.61861 248.192C6.61861 246.354 7.1657 245.627 8.96939 245.884C9.69599 245.978 10.4568 245.815 11.1834 245.884C12.8931 246.115 13.3718 245.38 13.3547 243.696C13.2692 236.583 13.3974 229.454 13.2692 222.325C13.2692 220.213 13.859 219.683 15.9106 219.709C25.2453 219.82 34.5886 219.709 43.9234 219.812C46.1288 219.812 46.6674 219.205 46.6674 217.042C46.599 183.567 46.6674 150.092 46.5477 116.617C46.5477 113.779 47.2486 112.949 50.0439 113.197C53.1641 113.445 56.3184 113.197 59.4471 113.197C60.678 111.539 60.3019 109.675 60.0454 107.872C59.8232 106.256 58.5238 105.812 57.1732 105.863C54.6686 105.957 53.3692 105.068 53.5487 102.358C53.6855 100.187 52.4375 99.084 50.3089 99.1781C47.8727 99.2806 46.7272 98.3232 46.8896 95.7588C47.052 93.4336 45.7271 92.3394 43.4703 92.4591C41.2136 92.5788 40.051 91.6556 40.222 89.2364C40.3758 86.9968 39.3158 85.6632 36.9736 85.8171C34.6314 85.971 33.3748 85.0392 33.5543 82.4918C33.6996 80.2094 32.5199 78.987 30.2119 79.1409C27.9039 79.2947 26.7413 78.4656 26.9037 75.9951C27.0661 73.5246 25.8779 72.3193 23.4246 72.4647C21.2533 72.5929 20.2788 71.7722 20.2104 69.4642C20.1249 66.3783 19.6633 66.0449 16.5945 65.797C15.2011 65.6859 13.9701 65.6859 13.6795 63.7283C12.9614 58.9669 10.8928 57.9753 5.98603 59.8645C4.59266 63.9591 5.38765 68.1307 5.46459 72.2851C5.57673 72.6239 5.75385 72.9374 5.98603 73.2084C6.67845 74.7043 6.31087 76.3028 6.30232 77.8415C6.30232 79.2093 6.57587 80.0042 8.12311 79.7563C8.2141 79.7479 8.30566 79.7479 8.39665 79.7563C12.9102 79.8846 12.9871 79.8846 12.9614 84.2356C12.9614 85.8513 13.2521 86.7147 15.0643 86.4411C15.7909 86.33 16.5517 86.4924 17.2783 86.4411C18.988 86.253 19.9283 86.8258 19.6719 88.7235C19.5949 89.262 19.7231 89.8348 19.6719 90.3819C19.3812 92.442 20.0052 93.2626 22.3133 93.1857C26.8524 93.0233 26.3994 92.5446 26.2968 97.0495C26.254 99.1182 26.6729 99.9218 28.9724 99.8448C33.5201 99.691 33.0585 99.2123 32.9559 103.709C32.9132 105.794 33.3491 106.581 35.6401 106.504C40.1792 106.35 39.7176 105.88 39.615 110.376C39.5723 112.462 40.0168 113.24 42.2992 113.163C46.8041 113.018 46.3169 112.505 46.3169 117.044C46.3169 150.154 46.3368 183.259 46.3767 216.358C46.3767 218.786 45.898 219.692 43.231 219.641C34.2723 219.461 25.2795 219.726 16.3295 219.487C13.3718 219.401 12.9102 220.342 12.9614 223.009C13.1495 229.574 12.9614 236.139 13.0726 242.67C13.0726 244.867 12.6623 245.798 10.226 245.687C6.37071 245.499 6.41345 245.687 6.35361 249.611C6.25958 256.356 6.64425 263.1 6.14845 269.836L6.71264 269.828Z" fill="#CC8B1A"/>
<path d="M19.4752 269.828H59.4385C60.9516 266.263 60.3703 262.621 59.8403 258.98C59.6609 258.659 59.386 258.402 59.0538 258.245C58.0027 257.896 56.8932 257.756 55.7884 257.834C44.9207 257.834 34.0558 257.834 23.1938 257.834C21.9115 257.834 20.6293 257.749 19.4667 258.587C18.0824 262.206 18.0854 266.21 19.4752 269.828Z" fill="#E0C933"/>
<path d="M79.4162 269.828H99.4021C100.727 266.205 100.769 262.237 99.5218 258.587C99.1798 258.45 99.65 258.493 99.291 258.441C92.6879 257.391 85.9578 257.423 79.3649 258.535C78.0224 262.183 78.0406 266.192 79.4162 269.828Z" fill="#833346"/>
<path d="M79.4158 269.828L79.5013 258.783C78.7576 257.928 77.7147 257.877 76.706 257.86C71.919 257.792 67.1262 257.792 62.3278 257.86C61.3191 257.86 60.2762 257.911 59.541 258.792C59.541 262.468 59.5182 266.146 59.4727 269.828H79.4158Z" fill="#CD8A16"/>
<path d="M99.3506 258.783L99.4019 269.828H106.061L105.967 258.715C104.974 258.091 103.822 257.766 102.649 257.778C101.476 257.79 100.331 258.139 99.3506 258.783Z" fill="#CD8A16"/>
<path d="M19.4753 269.828C19.4753 266.129 19.4753 262.425 19.4753 258.715L19.1077 258.381C17.0048 257.809 14.9105 257.467 12.9016 258.706L12.8076 269.819L19.4753 269.828Z" fill="#CD8A16"/>
<path d="M6.24235 59.9585C6.70396 59.9585 7.16557 59.9585 7.62718 59.9585C12.4997 59.9585 12.5595 59.9585 12.7562 64.7113C12.8245 66.1389 13.2947 66.7373 14.7223 66.6261C15.5771 66.5663 16.3892 66.686 17.2184 66.6261C18.8596 66.4637 19.6546 67.0536 19.4666 68.7974C19.3811 69.6522 19.5179 70.4643 19.4666 71.2935C19.3127 72.9091 20.082 73.4391 21.5865 73.3109C22.4414 73.2425 23.2962 73.3622 24.0826 73.3109C25.647 73.1741 26.3137 73.8324 26.1428 75.3881C26.1428 75.7557 26.1855 76.1319 26.1428 76.4994C25.6897 79.2263 26.6471 80.5257 29.5621 79.9871C32.2805 79.4913 33.2635 80.7308 32.819 83.3381C32.3745 85.9453 33.4601 87.1421 36.1186 86.6377C39.1276 86.0735 39.9141 87.5609 39.4696 90.1852C39.0251 92.8096 40.2218 93.7242 42.6837 93.3054C45.4876 92.8181 46.6501 93.9294 46.103 96.7247C45.556 99.52 46.9579 100.375 49.5224 99.9388C52.2322 99.4772 53.1297 100.657 52.8306 103.298C52.6339 105.008 52.3091 106.795 55.2583 106.675C59.4298 106.495 59.4384 106.675 59.4469 110.949C59.4469 111.684 59.4469 112.428 59.4469 113.163H72.6968L72.825 93.2113C73.3454 92.1878 73.63 91.0609 73.6581 89.913C73.6862 88.7652 73.4571 87.6256 72.9874 86.5779C71.9189 85.6034 70.5768 85.723 69.3031 85.723C67.7131 85.723 67.0464 84.9793 66.9096 83.3723C66.5506 79.44 66.4907 79.3717 62.7722 79.0981C61.0626 78.9699 60.3616 78.3117 60.2077 76.5336C59.9256 72.7211 59.8573 72.6356 56.2157 72.4048C54.3692 72.2937 53.6512 71.55 53.5401 69.7292C53.3178 66.0962 53.2323 66.0278 49.4112 65.7371C47.7016 65.6089 47.0177 64.8823 46.8467 63.1726C46.5647 59.3516 46.4877 59.2575 42.8461 59.0524C40.9826 58.9412 40.2817 58.1975 40.1791 56.3767C39.9568 52.7181 39.8628 52.6497 36.0503 52.3847C34.3406 52.265 33.6567 51.5897 33.4858 49.8202C33.1951 46.0504 33.1267 45.9649 29.2116 45.6743C27.3823 45.5375 26.8352 44.6741 26.8523 43.0243C26.8523 40.9043 26.8523 38.7502 26.8523 36.6473C26.8523 35.5531 26.9549 34.4162 26.2625 33.4331C25.4076 32.3475 24.1938 32.3817 23.0141 32.3902C21.1933 32.3902 20.6462 31.4414 20.7061 29.8257C20.7574 28.4238 21.4412 27.9109 22.7748 27.8938C24.322 27.8938 25.1939 28.4324 25.2281 30.0907C25.2281 31.2619 25.1512 32.5014 26.2026 33.3904C28.844 34.6641 31.6564 33.9289 34.3919 34.0144C38.0164 34.1426 38.666 34.0828 38.5635 37.7073C38.6233 39.9469 39.897 40.8958 41.8887 40.7761C44.2737 40.6735 45.556 41.4771 45.3593 44.0843C45.1884 46.3838 46.3851 47.572 48.6846 47.5036C50.9841 47.4352 52.1894 48.1789 52.0099 50.6665C51.8304 53.154 53.0614 54.3337 55.4976 54.1713C57.9339 54.0089 58.8058 55.1714 58.6776 57.4795C58.5494 59.7875 59.729 60.9843 62.0285 60.8219C64.593 60.6252 65.4478 61.8989 65.3453 64.2925C65.2427 66.4637 66.3967 67.6007 68.5594 67.481C71.0042 67.3357 72.1668 68.2674 71.9787 70.8234C71.8078 73.0801 73.0387 74.2341 75.3382 74.1059C77.6377 73.9777 78.7575 74.9094 78.6208 77.3115C78.484 79.7136 79.732 80.936 82.1512 80.7821C84.3823 80.6368 85.391 81.5771 85.2713 83.851C85.1727 84.4004 85.2032 84.9652 85.3605 85.5008C85.5177 86.0364 85.7974 86.528 86.1774 86.9369C86.4857 87.1506 86.8401 87.2882 87.2118 87.3387C94.9052 87.6891 102.693 87.5866 110.429 87.39C110.76 87.388 111.087 87.3099 111.383 87.1617C111.68 87.0135 111.938 86.7991 112.139 86.5351C112.139 72.1227 112.156 57.7131 112.19 43.3064C112.19 42.1951 112.25 41.0924 112.284 39.9811L111.908 39.6221C109.882 38.981 107.873 38.7673 105.924 39.964C105.009 41.2805 105.223 42.7935 105.223 44.2382C105.223 54.7526 105.223 65.2755 105.223 75.7985C105.223 77.1149 105.539 78.6878 103.513 78.9955C101.487 79.3033 100.573 78.6963 100.316 76.431C99.9146 72.9177 99.8633 72.7382 96.3414 72.4903C94.2898 72.345 93.7256 71.3876 93.6059 69.5155C93.4008 66.3868 93.0588 66.0192 89.9814 65.8483C87.9469 65.7286 87.0323 64.9934 86.9382 62.8905C86.7929 59.7362 86.3911 59.3174 83.3651 59.1977C81.1169 59.1037 80.1765 58.2232 80.2962 56.0092C80.433 53.5815 79.1764 52.3761 76.7829 52.5044C74.3893 52.6326 73.5003 51.4529 73.62 49.162C73.7397 47.042 72.6968 45.7427 70.5084 45.8709C67.9439 46.0077 66.7215 45.0161 66.9523 42.3404C67.0088 41.5111 66.7526 40.6908 66.2343 40.041C65.9009 39.8871 66.371 39.9982 66.0291 39.8614C63.3558 38.72 61.1894 36.6447 59.9342 34.023C59.3102 32.6552 58.0792 32.5356 56.8995 32.5954C54.6171 32.698 53.5657 31.9286 53.5401 29.4496C53.5401 26.4492 53.0015 25.979 49.8643 25.9363C47.4708 25.9363 46.9664 24.8164 46.9151 22.705C46.8382 19.696 47.5563 16.6186 46.3766 13.6866C45.4619 12.4984 44.1113 12.6608 42.8547 12.6009C41.5981 12.5411 40.8373 11.9684 40.8287 10.5835C40.8287 9.36114 41.3246 8.67727 42.5897 8.66018C43.8548 8.64308 45.0516 8.5576 45.3081 10.2245C45.4705 11.464 45.3081 12.8317 46.5732 13.6438C48.1204 14.4987 49.8045 14.1824 51.4286 14.1909C55.2754 14.1909 59.1221 14.1909 62.9603 14.1909C64.0654 14.2974 65.1753 14.0425 66.1231 13.4643C66.6982 12.5144 67.0177 11.4319 67.0507 10.3219C67.0836 9.21198 66.8289 8.1124 66.3112 7.13003C65.8235 6.69565 65.1948 6.4527 64.5417 6.44617C58.746 6.36923 52.9417 6.0444 47.1545 6.62568C46.83 6.76948 46.5389 6.97906 46.2997 7.24116C44.2224 7.34374 41.7007 6.74536 40.1962 7.71986C38.6917 8.69437 40.1962 11.4811 39.4354 13.3703C39.2217 13.6242 39.0539 13.9135 38.9396 14.2251C38.6893 16.1291 38.6177 18.0523 38.7259 19.9696C38.6233 26.6885 39.4097 25.7311 32.8617 25.8679C30.9362 25.7521 29.0041 25.8208 27.0916 26.073C26.78 26.1912 26.4909 26.3618 26.2368 26.5774C24.1596 27.2955 21.3044 25.7653 20.0478 27.3467C18.9964 28.6803 19.5777 31.3217 19.4409 33.3818C19.2259 33.6334 19.0605 33.9235 18.9537 34.2367C18.706 36.1122 18.6373 38.0071 18.7485 39.8956C18.569 41.6737 19.3982 43.7338 18.2613 45.1785C17.1243 46.6231 14.7735 45.4349 13.1323 46.2641C12.858 46.4022 12.6316 46.6197 12.4826 46.8881C12.4826 50.7263 11.2944 53.3677 6.75525 52.8719C6.41332 52.8719 6.11413 53.1882 5.90042 53.4874C5.17382 55.6843 4.7635 57.8812 6.24235 59.9585Z" fill="#E0C933"/>
<path d="M46.2402 7.27535C46.3904 7.25025 46.5388 7.21599 46.6847 7.17277C46.9184 6.95379 47.1043 6.6889 47.2308 6.3947C47.3573 6.10051 47.4217 5.78335 47.4199 5.46311C47.2404 2.10363 48.3944 2.0438 51.3179 2.0438H80.6642C81.1258 2.0438 81.5874 2.0438 82.049 2.0438C83.4937 2.0438 84.6135 2.45411 84.6135 4.20651C84.6135 5.95891 83.5963 6.37778 82.1345 6.40343C80.1 6.40343 78.0741 6.40343 76.0396 6.40343C74.8514 6.40343 73.6204 6.34359 72.6203 7.15568C72.1008 8.12126 71.8325 9.20195 71.84 10.2984C71.8474 11.3948 72.1305 12.4717 72.663 13.4301C77.091 14.7893 81.5361 14.5414 85.9983 13.6267C86.3051 13.2782 86.5389 12.8716 86.6857 12.4311C86.8325 11.9906 86.8895 11.5252 86.8532 11.0622C86.9301 9.5321 87.5028 8.64308 89.2125 8.72001C90.9222 8.79695 91.2299 10.0194 91.247 11.3956C91.2983 14.7209 91.247 18.0462 91.247 21.3715C91.247 22.2947 91.247 23.2179 91.247 24.1411C91.3923 27.3638 91.9822 28.0135 95.2562 28.0477C103.292 28.1161 111.327 28.0477 119.362 28.0477C120.286 28.0292 121.211 28.0577 122.132 28.1332C123.577 28.2785 123.91 29.2274 123.893 30.4669C123.924 30.7216 123.897 30.9801 123.814 31.2231C123.732 31.466 123.595 31.6873 123.415 31.8704C123.236 32.0535 123.017 32.1937 122.776 32.2808C122.534 32.3678 122.276 32.3994 122.021 32.3731C119.892 32.5014 117.747 32.3731 115.644 32.4501C114.37 32.4501 113.037 32.3389 111.917 33.1938C111.392 34.2419 111.118 35.3981 111.118 36.5704C111.118 37.7426 111.392 38.8988 111.917 39.9469H112.156L125.303 39.8956C126.363 39.0408 126.158 37.7073 126.286 36.5447C126.287 36.29 126.341 36.0382 126.447 35.8063C126.552 35.5744 126.706 35.3677 126.898 35.2001C127.09 35.0325 127.315 34.9079 127.559 34.8346C127.803 34.7613 128.06 34.7411 128.312 34.7752C129.603 34.7752 130.441 35.2454 130.552 36.6558C130.62 37.5791 130.62 38.5023 130.62 39.4255V80.2863C130.62 84.4237 130.62 84.4237 126.654 85.4153C126.205 85.5343 125.795 85.7703 125.466 86.0992C125.457 86.194 125.484 86.2888 125.543 86.3642C131.868 86.6804 131.868 86.6804 131.868 80.4829C131.868 65.7799 131.817 51.0768 131.92 36.3737C131.92 34.1341 131.492 33.3049 129.09 33.4417C125.244 33.6468 125.115 33.4417 125.252 29.424C125.321 27.4066 124.85 26.7484 122.688 26.7826C113.541 26.9108 104.386 26.7826 95.2305 26.8851C93.1276 26.8851 92.3155 26.4321 92.401 24.1497C92.572 19.3541 92.401 14.5329 92.4865 9.72871C92.4865 8.01905 92.136 7.09584 90.2298 7.39503C89.6912 7.48051 89.1185 7.34374 88.5714 7.39503C86.46 7.68567 85.4171 6.96761 85.7761 4.69377C85.8787 4.06119 85.7248 3.39443 85.7761 2.7533C86.1095 1.2659 85.5966 0.718811 83.9639 0.718811C72.0361 0.787197 60.1084 0.787197 48.1807 0.718811C46.7873 0.718811 46.1633 1.04365 46.2573 2.56524C46.3514 4.08684 46.2573 5.71101 46.2402 7.27535Z" fill="#C58E30"/>
<path d="M12.7564 46.6403H13.0299C19.6207 46.7087 19.6207 46.7087 19.4241 39.964C18.4496 39.1092 17.2101 39.2374 16.0475 39.1776C14.4233 39.1007 14.1583 38.0834 14.1754 36.7499C14.1338 36.4783 14.1547 36.2008 14.2366 35.9386C14.3185 35.6763 14.4593 35.4362 14.6481 35.2367C14.837 35.0371 15.0689 34.8833 15.3263 34.7871C15.5836 34.6908 15.8595 34.6546 16.133 34.6812C17.2955 34.6299 18.5436 34.8094 19.4924 33.8264C19.4746 33.6693 19.4403 33.5146 19.3899 33.3648L18.005 33.3135C13.1069 33.3135 13.0556 33.3135 12.8761 38.0407C12.8162 39.4341 12.4401 40.1265 10.9698 39.9811C10.3287 39.9213 9.66191 40.0581 9.02934 39.9811C6.67856 39.6136 6.04598 40.6223 6.13146 42.8961C6.29388 47.1703 6.50759 46.7257 2.53263 46.6146C0.557977 46.5719 0.00233778 47.2045 0.00233778 49.1364C0.104917 56.2485 0.147659 63.3607 0.00233778 70.5071C-0.048952 72.8835 0.737491 73.6529 2.97714 73.3537C3.97676 73.2507 4.98125 73.2022 5.98614 73.2084C6.04563 73.0945 6.09154 72.9739 6.12292 72.8493C5.96142 72.6233 5.75036 72.4373 5.50588 72.3054C5.26141 72.1735 4.99001 72.0994 4.71245 72.0885C1.78038 72.2082 1.29313 70.5498 1.36152 68.0452C1.49829 62.7025 1.40426 57.3598 1.40426 52.0086C1.40426 51.3675 1.40426 50.7178 1.4641 50.0767C1.54103 48.897 2.05393 48.1875 3.32762 48.1533C4.60132 48.1191 5.13131 48.7773 5.25954 49.9741C5.38776 51.1709 5.13131 52.4189 6.24259 53.3079C12.8846 53.3592 12.8846 53.3592 12.7906 46.5975C11.8674 45.8025 10.7219 45.888 9.62772 45.8795C7.91806 45.8795 7.465 44.8708 7.49064 43.3577C7.51629 41.8447 8.12322 41.3574 9.50804 41.3318C11.0296 41.3318 12.0212 41.7335 12.0725 43.4688C12.0469 44.563 11.9699 45.7085 12.7564 46.6403Z" fill="#F3E98A"/>
<path d="M39.4697 13.8831C39.4557 13.7206 39.4242 13.5601 39.3756 13.4044C39.0081 13.4044 38.6405 13.3617 38.2815 13.3617C33.2123 13.3617 33.1525 13.3617 32.8362 18.2684C32.7422 19.5507 32.3319 19.9781 31.0496 20.0465C26.1001 20.3798 26.1087 20.4311 26.1429 25.5003C26.1429 25.8593 26.1429 26.2269 26.1856 26.5945C26.3415 26.6422 26.502 26.6737 26.6643 26.6885C27.6132 25.7396 27.4508 24.4916 27.5192 23.329C27.579 21.7561 28.4766 21.3458 29.8614 21.3629C31.2462 21.38 31.9472 21.8331 32.0241 23.2435C32.084 24.4061 31.913 25.6456 32.802 26.6628C39.6406 26.868 39.6406 26.868 39.444 20.0208C38.461 19.166 37.2215 19.2942 36.0247 19.2344C34.4005 19.1574 34.1441 18.1402 34.1526 16.8067C34.111 16.5351 34.1319 16.2576 34.2138 15.9953C34.2958 15.7331 34.4365 15.493 34.6254 15.2934C34.8142 15.0939 35.0462 14.9401 35.3035 14.8438C35.5608 14.7476 35.8367 14.7114 36.1102 14.738C37.2728 14.661 38.5208 14.832 39.4697 13.8831Z" fill="#F1E78B"/>
<path d="M52.8652 126.071V172.651C53.7201 173.505 54.857 173.505 55.9255 173.437C57.8916 173.343 58.7807 174.155 58.6695 176.147C58.5578 177.147 58.6898 178.158 59.0542 179.096C59.2071 179.382 59.4464 179.612 59.7381 179.754C61.8751 180.207 64.0122 180.66 66.0125 179.318V132.73C65.1577 131.875 64.0208 131.875 62.9522 131.952C60.9861 132.046 60.0971 131.226 60.2082 129.234C60.3196 128.234 60.1876 127.222 59.8235 126.285C59.6654 126.003 59.4275 125.774 59.1397 125.626C57.0026 125.182 54.8655 124.729 52.8652 126.071Z" fill="#B86E54"/>
<path d="M99.3078 232.061C99.6498 225.419 99.6498 225.411 93.2129 225.419L52.7709 225.505C52.1522 226.516 51.8247 227.679 51.8247 228.864C51.8247 230.05 52.1522 231.212 52.7709 232.224C53.7112 232.813 54.8221 233.069 55.9252 232.95C61.5158 232.95 67.0979 233.053 72.6885 232.899C79.3048 233.002 85.9298 233.027 92.5461 232.899C94.8285 232.737 97.2135 233.566 99.3078 232.061Z" fill="#E0C933"/>
<path d="M99.3505 258.783L105.967 258.706C106.309 252.064 106.309 252.056 99.872 252.064L59.43 252.15C58.8411 253.132 58.5258 254.254 58.5168 255.4C58.5078 256.545 58.8054 257.672 59.3787 258.664L59.4984 258.792H99.3505V258.783Z" fill="#E0C933"/>
<path d="M92.6833 232.13H72.8171C72.5205 232.417 72.2903 232.765 72.1426 233.151C71.9949 233.536 71.9334 233.949 71.9622 234.361C72.1845 238.019 71.0561 241.772 72.723 245.328H92.7944C94.1816 241.032 94.1426 236.402 92.6833 232.13Z" fill="#833346"/>
<path d="M72.7142 245.328L72.8168 232.13L52.771 232.078L52.4291 232.437C51.5743 236.515 51.9162 240.61 52.2154 244.704C52.3237 245.022 52.5192 245.304 52.7796 245.516L72.7142 245.328Z" fill="#CD8A16"/>
<path d="M59.3789 258.664L59.4302 252.15L52.8052 251.979C51.8863 251.344 50.7704 251.059 49.6595 251.175C42.855 251.175 36.0534 251.175 29.2547 251.175C28.1465 251.06 27.0338 251.345 26.1175 251.979L19.4925 252.15C18.8722 253.134 18.543 254.273 18.543 255.437C18.543 256.6 18.8722 257.739 19.4925 258.723L59.3789 258.664Z" fill="#F6EB89"/>
<path d="M52.7712 232.078V225.539H26.1518C24.8524 227.625 25.2029 229.813 25.8269 231.976C26.0415 232.274 26.3387 232.503 26.6818 232.634C29.9387 233.352 33.2469 232.916 36.5294 232.976C40.7437 233.053 44.958 232.976 49.1638 232.976C50.446 232.976 51.7283 233.044 52.8139 232.121L52.7712 232.078Z" fill="#F6EB89"/>
<path d="M52.8652 192.637V205.963C53.8226 206.895 55.0536 206.818 56.2247 206.818C57.8061 206.818 58.4473 207.553 58.6182 209.126C59.114 213.588 61.6614 214.742 66.0467 212.605V199.287C64.9953 198.304 63.6617 198.518 62.4137 198.432C61.1656 198.347 60.5331 197.723 60.3364 196.415C59.5756 191.619 57.4215 190.542 52.8652 192.637Z" fill="#A04744"/>
<path d="M52.865 192.637H54.5148C59.1395 192.637 59.1822 192.637 59.413 197.347C59.4728 198.732 59.8661 199.39 61.3278 199.313C62.7896 199.236 64.448 199.313 66.0123 199.313V186.029C65.0634 185.08 63.8239 185.174 62.6614 185.174C60.8919 185.217 60.1995 184.379 60.2422 182.678C60.2422 181.507 60.3277 180.276 59.3874 179.31C58.4024 178.688 57.2613 178.358 56.0963 178.358C54.9313 178.358 53.7902 178.688 52.8052 179.31L52.865 192.637Z" fill="#B86E54"/>
<path d="M26.1172 251.979H52.805V245.516V245.277C52.1307 244.775 51.3023 244.524 50.4627 244.568C43.0001 244.568 35.5289 244.439 28.0577 244.61C27.6885 244.635 27.3254 244.716 26.9806 244.85C26.6308 244.973 26.3308 245.207 26.1257 245.516L26.1172 251.979Z" fill="#833346"/>
<path d="M66.0294 212.623H64.6446C59.7465 212.623 59.6952 212.623 59.4644 207.912C59.396 206.528 59.0028 205.878 57.541 205.946C56.0792 206.015 54.4123 205.946 52.848 205.946C52.848 209.725 52.848 213.512 52.754 217.281C52.7112 218.897 53.3523 219.359 54.8654 219.316C57.9086 219.23 60.9518 219.205 63.995 219.316C65.7816 219.384 66.2346 218.615 66.1149 217.025C65.9953 215.435 66.0465 214.101 66.0294 212.623Z" fill="#833346"/>
<path d="M92.6831 232.13L92.7857 245.328C99.4021 245.593 99.4106 245.593 99.3935 238.943C99.3935 236.643 99.3422 234.352 99.308 232.061L92.6831 232.13Z" fill="#CD8A16"/>
<path d="M19.5694 232.061C19.5694 235.831 19.5694 239.609 19.4497 243.379C19.3984 244.909 19.8429 245.533 21.45 245.431C23.0571 245.328 24.5701 245.474 26.1345 245.516V245.277C26.4852 244.914 26.7454 244.473 26.8939 243.99C27.0424 243.507 27.0751 242.996 26.9893 242.499C26.7243 239.02 27.8954 235.429 26.1345 232.07C25.147 231.464 24.0115 231.143 22.8531 231.141C21.6947 231.14 20.5584 231.458 19.5694 232.061Z" fill="#CD8A16"/>
<path d="M52.8652 179.378H59.4474C59.4474 172.779 59.4474 172.779 52.8652 172.685V179.378Z" fill="#A04744"/>
<path d="M59.4302 179.378C59.4302 185.977 59.4302 185.977 66.0124 186.071V179.361L59.4302 179.378Z" fill="#A04744"/>
<path d="M19.4842 258.723C19.4842 256.535 19.4842 254.344 19.4842 252.15C12.5429 251.791 12.5429 251.791 12.902 258.706L19.4842 258.723Z" fill="#E0C933"/>
<path d="M66.0127 126.02C66.3546 119.13 66.3546 119.13 59.4647 119.472C58.8406 120.456 58.5093 121.597 58.5093 122.763C58.5093 123.928 58.8406 125.07 59.4647 126.054C60.4484 126.666 61.585 126.987 62.7436 126.981C63.9021 126.975 65.0354 126.642 66.0127 126.02Z" fill="#B86E54"/>
<path d="M59.4474 126.054C59.4474 123.857 59.4474 121.66 59.4474 119.472C51.3436 119.472 52.8481 117.967 52.8481 126.071L59.4474 126.054Z" fill="#A04744"/>
<path d="M66.0124 126.02H59.4302C59.4302 132.619 59.4302 132.619 66.0124 132.713V126.02Z" fill="#A04744"/>
<path d="M19.5695 232.061H26.1431C26.1431 229.862 26.1431 227.67 26.1431 225.488C19.2105 225.146 19.2105 225.146 19.5695 232.061Z" fill="#E0C933"/>
<path d="M72.791 86.6548L72.8423 93.2626C76.4497 93.2626 80.0571 93.3909 83.6559 93.2626C85.6647 93.1772 86.1605 93.938 86.1178 95.8271C86.0067 100.725 86.2033 105.632 86.0323 110.522C85.9383 113.197 87.6309 112.659 89.1183 112.659C90.6057 112.659 92.264 113.189 92.17 110.513C91.9819 105.435 92.2213 100.341 92.0674 95.2544C92.0076 93.1259 92.7256 92.6215 94.7516 92.6386C103.907 92.7412 113.062 92.5788 122.209 92.7583C124.859 92.8096 124.867 91.6128 124.927 89.6296C124.978 87.4669 124.585 86.4325 122.098 86.595C118.789 86.8001 115.447 86.595 112.122 86.595H86.1007C81.764 85.2427 77.1154 85.2636 72.791 86.6548Z" fill="#211F30"/>
<path d="M125.577 86.1077C131.621 86.1077 131.621 86.1077 131.621 80.1239C131.621 65.5918 131.518 51.1281 131.697 36.6387C131.74 33.7152 130.338 33.9716 128.389 33.8434C126.15 33.6981 125.132 34.2965 125.466 36.6814C125.534 37.7867 125.517 38.8956 125.414 39.9982C125.414 54.1884 125.44 68.3728 125.491 82.5516C125.491 83.7142 125.543 84.9109 125.577 86.1077Z" fill="#211F30"/>
<path d="M6.24233 53.308C6.12974 52.309 6.10971 51.3017 6.18249 50.299C6.63555 47.5806 5.54137 46.8797 2.90849 47.025C1.04497 47.1276 0.403843 47.4866 0.438036 49.4442C0.557712 56.2828 0.591906 63.1214 0.429488 69.8831C0.36965 72.251 0.856903 73.3794 3.42139 72.9007C4.33611 72.8108 5.25651 72.7937 6.17394 72.8494C6.20813 68.5581 6.23663 64.2612 6.25942 59.9586L6.24233 53.308Z" fill="#211F30"/>
<path d="M16.287 86.0051C19.125 86.8001 19.4755 85.4153 19.5696 83.0132C19.6807 80.3205 18.672 79.9273 16.3041 79.8846C13.9362 79.8418 13.107 80.4744 13.2438 82.9449C13.372 85.176 13.3379 86.9967 16.287 86.0051Z" fill="#211F30"/>
<path d="M9.73886 73.3793C7.12308 72.6527 6.61873 73.8751 6.55889 76.3712C6.49906 78.9955 7.41372 79.4571 9.81579 79.5597C12.6111 79.6708 12.8077 78.4997 12.9017 76.2173C13.0043 73.7298 12.2264 72.8236 9.73886 73.3793Z" fill="#211F30"/>
<path d="M39.3245 102.794C40.1793 99.6055 38.0679 100.11 36.0676 99.8876C33.2381 99.5628 33.3578 101.067 33.1868 103.11C32.9389 105.914 34.2383 106.068 36.5036 106.205C39.41 106.384 39.8801 105.136 39.3245 102.794Z" fill="#211F30"/>
<path d="M42.9919 106.718C40.2564 105.948 39.9829 107.401 39.8632 109.769C39.7179 112.53 40.8805 112.736 43.1799 112.889C46.0949 113.095 46.0693 111.684 46.1975 109.47C46.3428 106.906 45.3854 106.162 42.9919 106.718Z" fill="#211F30"/>
<path d="M23.0315 92.6899C25.7755 93.4593 26.143 92.0915 26.2285 89.6809C26.3311 86.9968 25.3737 86.5779 22.9631 86.5437C20.5525 86.5095 19.7917 87.1164 19.8942 89.5954C19.9883 91.8949 20.1592 93.4849 23.0315 92.6899Z" fill="#211F30"/>
<path d="M32.6911 96.4596C33.4519 93.7584 32.1953 93.2882 29.7163 93.2284C27.2373 93.1685 26.5449 94.0234 26.5449 96.4767C26.5449 98.9301 27.0835 99.6994 29.5967 99.5712C31.8534 99.4173 33.5203 99.3319 32.6911 96.4596Z" fill="#211F30"/>
<path d="M72.791 86.6548L86.1006 86.5436C86.1006 86.082 86.1006 85.6204 86.1006 85.1588C86.1006 80.2777 86.1006 80.2264 81.3563 80.0298C79.9373 79.9614 79.3133 79.5169 79.4244 78.0808C79.4928 77.226 79.3731 76.3712 79.4244 75.5847C79.5783 73.9691 79.0312 73.1314 77.2703 73.3194C76.4154 73.4049 75.5606 73.2681 74.7827 73.3194C73.1927 73.4647 72.6029 72.7552 72.7397 71.2251C72.808 70.3703 72.6884 69.5154 72.7397 68.7375C72.8679 67.2074 72.2866 66.4637 70.6966 66.6432C70.2436 66.6432 69.7649 66.5834 69.3118 66.6432C66.5763 67.0963 65.6189 65.8739 66.0634 63.2752C66.508 60.6765 65.4223 59.4712 62.7638 59.9755C59.7804 60.5397 58.994 59.1207 59.4043 56.4451C59.7463 54.1798 59.1222 53.0856 56.4894 53.2395C52.7794 53.4703 52.5913 53.2395 52.805 49.615C52.9504 47.0505 52.0186 46.4778 49.6593 46.5975C46.1117 46.7684 45.9066 46.5975 46.1459 43.067C46.334 40.3401 45.2142 39.5879 42.8377 39.9982C39.957 40.4854 38.9568 39.263 39.4184 36.5105C39.8458 34.0144 38.8884 33.0912 36.2812 33.2621C32.8619 33.4844 29.4426 33.2621 26.0232 33.2621C26.0232 36.955 26.1258 40.6478 26.0232 44.3322C25.9719 46.1871 26.6387 46.8967 28.4253 46.6573C29.1519 46.5718 29.9042 46.7 30.6393 46.6573C32.1695 46.5205 32.8961 47.1104 32.7251 48.7003C32.6738 49.1534 32.7849 49.6321 32.7251 50.0852C32.272 52.8206 33.503 53.778 36.1017 53.3335C38.7004 52.889 39.8886 53.9832 39.3928 56.6332C38.82 59.6336 40.2989 60.4029 42.9318 59.9926C45.1971 59.6422 46.2827 60.2918 46.1203 62.9162C45.898 66.6176 46.1203 66.8056 49.7533 66.5919C52.3178 66.4466 52.882 67.3955 52.7708 69.7462C52.5913 73.2938 52.7708 73.4989 56.3013 73.251C59.0538 73.063 59.7719 74.217 59.3616 76.5763C58.8658 79.4742 60.1309 80.3889 62.8664 79.9956C64.747 79.7306 66.2173 79.8332 66.1062 82.5601C65.9181 87.0223 65.371 86.5864 70.2436 86.6206L72.791 86.6548Z" fill="#CD8A16"/>
<path d="M66.106 39.9896C66.106 40.3572 66.106 40.7248 66.106 41.1009C66.106 46.1786 66.106 46.2299 71.0469 46.6317C72.389 46.7428 72.842 47.2557 72.7565 48.5038C72.7052 49.427 72.8164 50.3587 72.7565 51.2819C72.6198 52.8634 73.3036 53.496 74.8509 53.325C75.3039 53.325 75.7826 53.3848 76.2357 53.325C78.7403 52.9318 79.655 53.8721 79.484 56.4793C79.2703 59.9585 79.484 60.138 83.0829 59.8986C85.5961 59.7533 86.2714 60.6081 86.1432 63.0187C85.9551 66.5919 86.1432 66.7971 89.6565 66.5577C92.3834 66.3697 93.1528 67.481 92.7339 69.8745C92.2295 72.7724 93.4947 73.7554 96.2301 73.2938C98.7946 72.8578 99.6495 73.8836 99.4614 76.4567C99.2477 79.5768 102.308 81.2523 105.291 79.876C106.565 79.2776 106.044 78.0979 106.044 77.1833C106.078 64.7882 106.078 52.3961 106.044 40.0067L105.642 39.6477C104.619 39.2094 103.501 39.0359 102.393 39.1434C91.5086 39.1434 80.6238 39.1434 69.739 39.1434C68.6319 39.0372 67.5157 39.2076 66.4906 39.6392L66.106 39.9896Z" fill="#CD8A16"/>
<path d="M66.1065 13.3533H46.0607C46.0607 16.8666 46.2232 20.3885 46.0607 23.8933C45.924 26.2954 46.8301 27.0647 49.0612 26.7484C49.6083 26.6715 50.1725 26.7484 50.7196 26.7484C52.301 26.5775 52.9421 27.287 52.7711 28.8342C52.7711 29.1933 52.8224 29.5779 52.7711 29.937C52.301 32.7066 53.3268 33.9205 56.1905 33.4247C58.6011 33.0058 59.6611 33.8264 59.4816 36.5277C59.2508 40.0581 59.4816 40.0752 63.0376 40.0752H66.0894C66.7218 39.2707 67.0271 38.2571 66.9442 37.2372C66.9898 30.2276 66.9898 23.2237 66.9442 16.2255C66.9891 15.3936 66.8214 14.564 66.457 13.8149C66.3544 13.6183 66.2347 13.4815 66.1065 13.3533Z" fill="#CD8A16"/>
<path d="M72.7058 7.32667C76.3046 7.32667 79.912 7.13006 83.5108 7.28393C86.2976 7.41216 85.494 5.57427 85.5282 4.14671C85.5624 2.71914 86.1608 1.03513 83.4424 1.06078C71.8852 1.189 60.3621 1.14626 48.7791 1.06078C47.0695 1.06078 46.4625 1.59932 46.6249 3.27478C46.7532 4.55703 46.6677 5.83927 46.6848 7.15571L66.1065 7.31813C67.1182 7.87085 68.2522 8.16122 69.4051 8.16271C70.5579 8.16421 71.6927 7.87677 72.7058 7.32667Z" fill="#211F30"/>
<path d="M112.028 39.9896L112.105 33.416C110.096 31.9542 108.018 32.2791 105.924 33.2108C105.368 34.2609 105.09 35.4355 105.115 36.6234C105.141 37.8112 105.469 38.9729 106.069 39.9982H112.053L112.028 39.9896Z" fill="#F6EB89"/>
<path d="M72.7052 7.32666H66.106V13.3105C68.1405 14.5671 70.2604 14.2593 72.3975 13.6866L72.7736 13.3532L72.7052 7.32666Z" fill="#F6EB89"/>
<path d="M19.4922 33.8606C18.2089 33.8879 16.925 33.8508 15.6454 33.7495C13.6879 33.5016 13.1408 34.2453 13.2006 36.1772C13.3117 39.9983 13.2006 39.9983 16.9448 39.9983H19.4323C19.4494 37.9467 19.4694 35.9008 19.4922 33.8606Z" fill="#211F30"/>
<path d="M32.7682 26.6287C32.7682 25.3379 32.6998 24.0642 32.8109 22.7734C32.9648 21.0637 32.563 20.3542 30.6225 20.397C26.5621 20.491 26.5535 20.397 26.5792 24.4916C26.5792 25.2267 26.639 25.9533 26.6647 26.6885L32.7682 26.6287Z" fill="#211F30"/>
<path d="M39.4698 13.8832C38.2803 13.9077 37.0903 13.8677 35.9051 13.7635C33.7168 13.4558 33.221 14.3277 33.144 16.4648C33.0415 19.2173 33.674 20.568 36.6574 20.0294C37.5723 19.9423 38.4927 19.928 39.4099 19.9867C39.427 17.9522 39.4527 15.9177 39.4698 13.8832Z" fill="#211F30"/>
<path d="M26.0748 33.3135C26.0748 31.9458 26.015 30.561 26.1603 29.2018C26.3655 27.4323 25.5961 27.0818 23.9805 27.0904C19.9115 27.0904 19.0652 28.1589 19.9115 32.2877C20.1252 33.3221 20.698 33.3392 21.4502 33.3306C23.006 33.3306 24.5618 33.3306 26.109 33.2793L26.0748 33.3135Z" fill="#211F30"/>
<path d="M46.0608 13.3276C46.0608 12.7805 46.1121 12.2334 46.1121 11.6863C46.1121 7.70278 44.8555 6.65989 40.9831 7.75407C38.8716 8.3439 40.265 10.2245 39.9915 11.4811C39.8034 12.336 39.7179 13.3959 41.1968 13.3532C42.8381 13.3019 44.4879 13.3532 46.1291 13.2934L46.0608 13.3276Z" fill="#211F30"/>
<path d="M106.07 33.4246H112.105C115.712 33.4246 119.319 33.2451 122.918 33.4246C125.979 33.5358 124.765 31.3816 124.927 30.0053C125.09 28.629 125.243 27.1673 122.841 27.2015C113.507 27.3382 104.163 27.2015 94.8201 27.3041C92.8198 27.3041 92.0846 26.9023 92.153 24.7396C92.3325 19.8414 92.059 14.9261 92.2641 10.0365C92.3924 7.10443 90.5032 7.89942 88.9987 7.83959C87.4942 7.77975 85.699 7.43782 86.0581 10.045C86.1263 11.1531 86.1091 12.2649 86.0068 13.3703C85.8615 13.7123 85.9213 13.2421 85.8615 13.6011C84.723 20.1818 84.7433 26.9108 85.9213 33.4845C92.576 34.7896 99.4228 34.7693 106.07 33.4246Z" fill="#211F30"/>
<path d="M86.1007 33.2536C86.1007 26.6087 86.0694 19.9638 86.0067 13.319L72.7654 13.3874V13.3275C72.1032 14.2255 71.7985 15.3376 71.9106 16.4476C71.9106 21.0552 71.8251 25.6713 71.9106 30.2788C71.9789 33.4758 72.6713 34.117 75.8855 34.2195C78.2876 34.2965 80.6811 34.2794 83.0746 34.2195C84.1432 34.1854 85.2972 34.2195 86.1007 33.2536Z" fill="#833346"/>
<path d="M12.7563 46.6402C12.7563 45.1613 12.7563 43.691 12.8247 42.2207C12.9016 40.9983 12.6366 40.3572 11.2005 40.4085C5.65264 40.6137 6.76392 39.4938 6.56731 45.0502C6.51602 46.4863 7.15714 46.7599 8.371 46.6744C9.84131 46.5889 11.3202 46.6146 12.7905 46.5975L12.7563 46.6402Z" fill="#211F30"/>
<path d="M26.1431 232.07C26.1431 236.475 26.1431 240.877 26.1431 245.277H52.7796V232.07H26.1431Z" fill="#E0C933"/>
<path d="M86.1007 33.2536C82.3223 33.2536 78.544 33.2536 74.7656 33.3647C73.1842 33.416 72.714 32.8689 72.7311 31.3131C72.7995 25.3293 72.7311 19.3455 72.7311 13.3617H66.0806C66.0806 22.2519 66.0806 31.1421 66.0806 40.0324H106.061V33.4245L86.1007 33.2536Z" fill="#E0C933"/>
</svg>
